<mxfile host="65bd71144e">
    <diagram id="bAgSqxSTk3kXiF7-yGeQ" name="Page-1">
        <mxGraphModel dx="952" dy="713" grid="1" gridSize="10" guides="1" tooltips="1" connect="1" arrows="1" fold="1" page="1" pageScale="1" pageWidth="850" pageHeight="1100" math="0" shadow="0">
            <root>
                <mxCell id="0"/>
                <mxCell id="1" parent="0"/>
                <mxCell id="30" value="" style="rounded=0;whiteSpace=wrap;html=1;fillColor=#FFFFFF;" vertex="1" parent="1">
                    <mxGeometry x="60" y="240" width="580" height="400" as="geometry"/>
                </mxCell>
                <mxCell id="3" style="edgeStyle=none;html=1;entryX=0;entryY=0.5;entryDx=0;entryDy=0;" edge="1" parent="1" source="4" target="14">
                    <mxGeometry relative="1" as="geometry"/>
                </mxCell>
                <mxCell id="28" style="edgeStyle=none;html=1;endArrow=none;endFill=0;startArrow=classic;startFill=1;" edge="1" parent="1" source="4">
                    <mxGeometry relative="1" as="geometry">
                        <mxPoint x="90" y="440" as="targetPoint"/>
                    </mxGeometry>
                </mxCell>
                <mxCell id="29" value="User request" style="edgeLabel;html=1;align=center;verticalAlign=middle;resizable=0;points=[];" vertex="1" connectable="0" parent="28">
                    <mxGeometry x="0.3" y="-1" relative="1" as="geometry">
                        <mxPoint x="11" as="offset"/>
                    </mxGeometry>
                </mxCell>
                <mxCell id="4" value="" style="rounded=0;whiteSpace=wrap;html=1;" vertex="1" parent="1">
                    <mxGeometry x="200" y="400" width="80" height="79" as="geometry"/>
                </mxCell>
                <mxCell id="5" value="" style="sketch=0;aspect=fixed;html=1;points=[];align=center;image;fontSize=12;image=img/lib/mscae/Docker.svg;" vertex="1" parent="1">
                    <mxGeometry x="250" y="390" width="37.2" height="30.5" as="geometry"/>
                </mxCell>
                <mxCell id="6" value="" style="shape=image;verticalLabelPosition=bottom;labelBackgroundColor=default;verticalAlign=top;aspect=fixed;imageAspect=0;image=data:image/png,iVBORw0KGgoAAAANSUhEUgAABoIAAAaCCAYAAAABZu+EAAAgAElEQVR4AezBT1Jk9b4v0M+3iKCwBTOAGUhHI23BDHQGRVsk3DkCtyPIbSC2qRnoDKBlhnZwBjADaFnFC/i9d999991zz/FolcWfzJ1rrQoAAAAAAACjVAEAAAAAAGCUKgAAAAAAAIxSBQAAAAAAgFGqAAAAAAAAMEoVAAAAAAAARqkCAAAAAADAKFUAAAAAAAAYpQoAAAAAAACjVAEAAAAAAGCUKgAAAAAAAIxSBQAAAAAAgFGqAAAAAAAAMEoVAAAAAAAARqkCAAAAAADAKFUAAAAAAAAYpQoAAAAAAACjVAEAAAAAAGCUKgAAAAAAAIxSBQAAAAAAgFGqAAAAAAAAMEoVAAAAAAAARqkCAAAAAADAKFUAAAAAAAAYpQoAAAAAAACjVAEAAAAAAGCUKgAAAAAAAIxSBQAAAAAAgFGqAAAAAAAAMEoVAAAAAAAARqkCAAAAAADAKFUAAAAAAAAYpQoAAAAAAACjVAEAAAAAAGCUKgAAAAAAAIxSBQAAAAAAgFGqAAAAAAAAMEoVAAAAAAAARqkCAAAAAADAKFUAAAAAAAAYpQoAAAAAAACjVAEAAAAAAGCUKgAAAAAAAIxSBQAAAAAAgFGqAAAAAAAAMEoVAAAAAAAARqkCAAAAAADAKFUAAAAAAAAYpQoAAAAAAACjVAEAAAAAAGCUKgAAAAAAAIxSBQAAAAAAgFGqAAAAAAAAMEoVAAAAAAAARqkCAAAAAADAKFUAAAAAAAAYpQoAAAAAAACjVAEAAAAAAGCUKgAAAAAAAIxSBQAAAAAAgFGqAAAAAAAAMEoVAAAAAAAARqkCAAAAAADAKFUAAAAAAAAYpQoAAAAAAACjVAEAAAAAAGCUKgAAAAAAAIxSBQAAAAAAgFGqAAAAAAAAMEoVAAAAAAAARqkCAAAAAADAKFUAAAAAAAAYpQoAAAAAAACjVAEAAAAAAGCUKgAAAAAAAIxSBQAAAAAAgFGqAAAAAAAAMEoVAAAAAAAARqkCAAAAAADAKFUAAAAAAAAYpQoAAAAAAACjVAEAAAAAAGCUKgAAAAAAAIxSBQAAAAAAgFGqAAAAAAAAMEoVAAAAAAAARqkCAAAAAADAKFUAAAAAAAAYpQoAAAAAAACjVAEAAAAAAGCUKgAAAAAAAIxSBQAAAAAAgFGqAAAAAAAAMEoVAAAAAAAARqkCAAAAAADAKFUAAAAAAAAYpQoAAAAAAACjVAEAAAAAAGCUKgAAAGNz8slusrabZCep3aRt5f+qnVS2k3aTlov8t7O0uk5rFzmanwUAAGAkKgAAAMtutruV9Y0vkvoi1faT2syHaO08rX7M/2o/Zjq/DAAAwJKqAAAALKvZZCcv0yf1Ko+ltfMkpzmcnwYAAGDJVAAAAJbNbLKTl+mTepWn0nKV+3aQo/lZAAAAlkQFAABgWcx2t7K+0aXqmzyX1s5zm4NM55cBAABYcBUAAIBlcDI5SKpPZTuLoOW73P7eZ3pxHQAAgAVVAQAAWGTHk/28SJ+qvSycdpOWLofz0wAAACygCgAAwCKaTXbyMn1Sr7Lw2m+5S5ej+VkAAAAWSAUAAGDRnEz6VLqkNrNMWn7KbesynV8GAABgAVQAAAAWxQ+ffpG2NqSynWXW2re5fTNkenEdAACAZ1QBAAB4bief7CZrQ6r2MhYtV0nrczg/DQAAwDOpAAAAPJfZ7lZebgxJvcpYtXae+/Q5mp8FAADgiVUAAACew/efdXnR+qQ2sxLa67xNn+n8MgAAAE+kAgAA8JSOJ/t5UaepbGfltJu0DDmc9wEAAHgCFQAAgKcwm+xkPaep2suqa7lK3XX58pcfAwAA8IgqAAAAj2m2u5X1j/pUvg7/U2vnyV2Xw18vAgAA8AgqAAAAj+VkcpDKkNRm+Pdavsvt732mF9cBAAB4QBUAAICHdjzZz1qGpD4O76jd5L76fPXzEAAAgAdSAQAAeCizyU7Wa0jl8/D3tFzlvh3kaH4WAACAD1QBAAD4ULPdraxvdKl0SW2GD9faeW5zkOn8MgAAAH9TBQAA4EOcTA6S6lPZDg+vtW9z+2bI9OI6AAAA76kCAADwdxxP9vMifar2wiNrN2npcjg/DQAAwHuoAAAAvI/Z7lZebgxJvQpPrP2Wu3Q5mp8FAADgHVQAAADe1cmkT6VLajM8n5afctu6TOeXAQAA+BMVAACAv/LDp1+krQ2pbIcF0W7SMuT2zZDpxXUAAAD+QAUAAODfOflkN1kbUrUXFlPLVdL6HM5PAwAA8E8qAAAA/2y2u5X1j/pUvg7LobXz3KfP0fwsAAAA/08FAADgH33/WZcXrU9qMyyh9jpv33SZXlwHAABYeRUAAID/cDzZz4s6TWU7LLl2k5Yhh/M+AADASqsAAACrbTbZyXoNqXwexqXlKnXX5ctffgwAALCSKgAAwGqa7W5lfaNL1Tdh3Fo7z20OMp1fBgAAWCkVAABg9ZxMDlIZktoMq6Plu9z+3md6cR0AAGAlVAAAgNVxPNnPWoakPg4rqt3kvvp89fMQAABg9CoAAMD4zSY7eZk+qVeB/9Bylft2kKP5WQAAgNGqAAAA4zXb3cr6RpdKl9Rm4J+1/JTb1mU6vwwAADA6FQAAYJxOJgdJ9alsB/5Ka9/m9s2Q6cV1AACA0agAAADjcvLJbrI2pGov8F7aTVq6HM5PAwAAjEIFAAAYh9nuVl5uDEm9CnyQ9lvu0uVofhYAAGCpVQAAgOV3MulT6ZLaDDyY9jpv02c6vwwAALCUKgAAwPL64dMv0taGVLYDj6LdpGXI7Zsh04vrAAAAS6UCAAAsn9lkJ+s5TdVe4Cm0XCWtz+H8NAAAwNKoAAAAy2O2u5X1j/pUvg48h9bOk7suh79eBAAAWHgVAABgOXz/WZcXrU9qM/Ds2uu8fdNlenEdAABgYVUAAIDFdjzZz1qGpD4OLJR2k5Yhh/M+AADAQqoAAACLaTbZyXoNqXweWGQtV7lvBzmanwUAAFgoFQAAYLHMdreyvtGl6pvAMmntPLc5yHR+GQAAYCFUAACAxXEyOUhlSGozsKxavsvt732mF9cBAACeVQUAAHh+x5P9vEifqr3AKLSb3Fefr34eAgAAPJsKAADwfGaTnbxMn9SrwCi133KXLkfzswAAAE+uAgAAPL3Z7lbWN7pUuqQ2A2PX8lNuW5fp/DIAAMCTqQAAAE/rh0+/SFsbUtkOrJrWvs3tmyHTi+sAAACPrgIAADyNk092k7UhVXuBldZu0tLlcH4aAADgUVUAAIDHNdvdysuNIalXAf5ba+e5T5+j+VkAAIBHUQEAAB7PyaRPpUtqM8C/0V7nbfpM55cBAAAeVAUAAHh4x5P9vKjTVLYDvIN2k5Yhh/M+AADAg6kAAAAPZzbZyXpOU7UX4P21XKXuunz5y48BAAA+WAUAAPhws92trH/Up/J1gA/X2nly1+Xw14sAAAB/WwUAAPgwJ5ODVIakNgM8sPY6b990mV5cBwAAeG8VAADg7zme7GctQ1IfB3hE7Sb31eern4cAAADvpQIAALyf2WQn6zWk8nmAp9Nylft2kKP5WQAAgHdSAQAA3s1sdyvrG12qvgnwfFo7z20OMp1fBgAA+FMVAADgr51MDpLqU9kOsBhavsvt732mF9cBAAD+UAUAAPj3jif7eZE+VXsBFlC7SUuXw/lpAACAf1EBAAD+1Wyyk5fpk3oVYAm033KXLkfzswAAAP9fBQAA+J9OJn0qXVKbAZZLy0+5bV2m88sAAACpAAAA/+mHT79IWxtS2Q6w3Fr7NrdvhkwvrgMAACusAgAAq+7kk91kbUjVXoDxaLlKWp/D+WkAAGBFVQAAYFXNdrfycmNI6lWA8WrtPPfpczQ/CwAArJgKAACsou8/6/Ki9UltBlgR7XXevukyvbgOAACsiAoAAKyS48l+XtRpKtsBVlC7ScuQw3kfAABYARUAAFgFs8lO1nOaqr0AtFyl7rp8+cuPAQCAEasAAMCYzXa3sr7RpeqbAPyz1s6Tuy6Hv14EAABGqAIAAGN1MjlIZUhqMwB/puW73P7eZ3pxHQAAGJEKAACMzfFkP2sZkvo4AO+s3eS++nz18xAAABiJCgAAjMVsspP1GlL5PAB/V8tV7ttBjuZnAQCAJVcBAIBlN9vdyvpGl0qX1GYAHkJr57nNQabzywAAwJKqAADAMjuZHCTVp7IdgMfQ2re5fTNkenEdAABYMhUAAFhGx5P9vEifqr0APLp2k5Yuh/PTAADAEqkAAMAyme1u5eXGkNSrADy59lvu0uVofhYAAFgCFQAAWBYnkz6VLqnNADynlp9y27pM55cBAIAFVgEAgEX3w6dfpK0NqWwHYGG0m7QMuX0zZHpxHQAAWEAVAABYVLPJTtZzmqq9ACyqlquk9TmcnwYAABZMBQAAFs1sdyvrH/WpfB2AZdHaeXLX5fDXiwAAwIKoAADAIvn+sy4vWp/UZgCWUnudt2+6TC+uAwAAz6wCAACL4Hiynxd1msp2AJZeu0nLkMN5HwAAeEYVAAB4TrPJTtZrSOXzAIxNy1XqrsuXv/wYAAB4BhUAAHgOs92trG90qfomAGPX2nluc5Dp/DIAAPCEKgAA8NROJgepDEltBmCVtHyX29/7TC+uAwAAT6ACAABP5Xiyn7UMSX0cgJXVbnJffb76eQgAADyyCgAAPLbZZCcv0yf1KgD8p5ar3LeDHM3PAgAAj6QCAACPZba7lfWNLpUuqc0A8K9afspt6zKdXwYAAB5YBQAAHsPJ5CCpPpXtAPDXWvs2t2+GTC+uAwAAD6QCAAAP6eST3WRtSNVeAHhP7SYtXQ7npwEAgAdQAQCAhzDb3crLjSGpVwHgA7XfcpcuR/OzAADAB6gAAMCHOpn0qXRJbQaAB9Re5236TOeXAQCAv6ECAAB/1/FkPy/qNJXtAPBI2k1ahty+GTK9uA4AALyHCgAAvK/ZZCfrOU3VXgB4Gi1XqbsuX/7yYwAA4B1VAADgXc12t7L+UZ/K1wHgebR2ntx1Ofz1IgAA8BcqAADwLr7/rMuL1ie1GQAWQHudt2+6TC+uAwAA/0YFAAD+zPFkP2sZkvo4ACyYdpOWIYfzPgAA8AcqAADwR2aTnazXkMrnAWCxtVzlvh3kaH4WAAD4BxUAAPhHs92trG90qfomACyX1s5zm4NM55cBAID/owIAAP/lZHKQypDUZgBYXi3f5fb3PtOL6wAAsNIqAABwPNnPi/Sp2gsAI9Fucl99vvp5CAAAK6sCAMDqmk128jJ9Uq8CwEi133KXLkfzswAAsHIqAACsntnuVtY3ulS6pDYDwPi1/JTb1mU6vwwAACujAgDAavnh0y/S1oZUtgPA6mnt29y+GTK9uA4AAKNXAQBgNZx8spusDanaCwCrreUqaX0O56cBAGDUKgAAjNtsdysvN4akXgUA/lFr57lPn6P5WQAAGKUKAADj9f1nXV60PqnNAMC/1V7nbfpM55cBAGBUKgAAjM/xZD8v6jSV7QDAO2k3aRlyOO8DAMBoVAAAGI/ZZCfrOU3VXgDg72i5St11+fKXHwMAwNKrAACw/Ga7W1n/qE/l6wDAQ2jtPLnrcvjrRQAAWFoVAACW28nkIJUhqc0AwINrr/P2TZfpxXUAAFg6FQAAltPxZD9rGZL6OADwqNpN7qvPVz8PAQBgqVQAAFgus8lO1mtI5fMAwFNqucp9O8jR/CwAACyFCgAAy2G2u5X1jS5V3wQAnlNr57nNQabzywAAsNAqAAAsvpPJQVJ9KtsBgEXR8l1uf+8zvbgOAAALqQIAwOI6nuznRfpU7QUAFlK7SUuXw/lpAABYOBUAABbPbLKTl+mTehUAWArtt9yly9H8LAAALIwKAACL5WTSp9IltRkAWDYtP+W2dZnOLwMAwLOrAACwGH749Iu0tSGV7QDAUms3aRly+2bI9OI6AAA8mwoAAM/r5JPdZG1I1V4AYExarpLW53B+GgAAnkUFAIDnMdvdyvpHfSpfBwDGrLXz3KfP0fwsAAA8qQoAAE/v+8+6vGh9UpsBgJXRXuftmy7Ti+sAAPAkKgAAPJ3jyX5e1Gkq2wGAldRu0jLkcN4HAIBHVwEA4PHNJjtZz2mq9gIAJC1XqbsuX/7yYwAAeDQVAAAez2x3K+sbXaq+CQDwr1o7T+66HP56EQAAHlwFAIDHcTI5SGVIajMAwJ9r+S63v/eZXlwHAIAHUwEA4GEdT/azliGpjwMAvId2k/vq89XPQwAAeBAVAAAexmyyk/UaUvk8AMDf13KV+3aQo/lZAAD4IBUAAD7MbHcr6xtdKl1SmwEAHkZr57nNQabzywAA8LdUAAD4+04mB0n1qWwHAHgcrX2b2zdDphfXAQDgvVQAAHh/J5/sJmtDqvYCADyBdpOWLofz0wAA8M4qAAC8u9nuVl5uDEm9CgDwDNpvuUuXo/lZAAD4SxUAAN7NyaRPpUtqMwDAM2uv8zZ9pvPLAADwb1UAAPhzP3z6RdrakMp2AIAF0m7SMuT2zZDpxXUAAPgXFQAA/thsspP1nKZqLwDA4mq5Slqfw/lpAAD4HyoAAPxPs92trH/Up/J1AIDl0dp5ctfl8NeLAADwf1UAAPhv33/W5UXrk9oMALCk2uu8fdNlenEdAIAVVwEAIDme7OdFnaayHQBgBNpNWoYczvsAAKywCgDAKptNdrJeQyqfBwAYn5ar1F2XL3/5MQAAK6gCALCKZrtbWd/oUvVNAIDxa+08tznIdH4ZAIAVUgEAWDUnk4NUhqQ2AwCslpbvcvt7n+nFdQAAVkAFAGBVHE/2s5YhqY8DAKywdpP76vPVz0MAAEauAgAwdrPJTl6mT+pVAAD+S8tV7ttBjuZnAQAYqQoAwFjNdreyvtGl0iW1GQCAP9LyU25bl+n8MgAAI1MBABijHz79Im1tSGU7AADvorVvc/tmyPTiOgAAI1EBABiTk092k7UhVXsBAHhv7SYtXQ7npwEAGIEKAMAYzHa38nJjSOpVAAA+VGvnuU+fo/lZAACWWAUAYNmdTPpUuqQ2AwDwoNrrvE2f6fwyAABLqAIAsKyOJ/t5UaepbAcA4NG0m7QMuX0zZHpxHQCAJVIBAFg2s8lO1nOaqr0AADyVlqvUXZcvf/kxAABLogIAsCxmu1tZ/6hP5esAADyX1s6Tuy6Hv14EAGDBVQAAlsH3n3V50fqkNgMAsBDa67x902V6cR0AgAVVAQBYZMeT/axlSOrjAAAsnHaTliGH8z4AAAuoAgCwiGaTnazXkMrnAQBYdC1XuW8HOZqfBQBggVQAABbJbHcr6xtdqr4JAMCyae08tznIdH4ZAIAFUAEAWBQnk4NUhqQ2AwCwzFq+y+3vfaYX1wEAeEYVAIDndjzZz4v0qdoLAMBotJu0dDmcnwYA4JlUAACey2yyk5fpk3oVAIDRar/lLl2O5mcBAHhiFQCA53Ay6VPpktoMAMAqaPkpt63LdH4ZAIAnUgEAeEo/fPpF2tqQynYAAFZRa9/m9s2Q6cV1AAAeWQUA4CmcfLKbrA2p2gsAwKpruUpan8P5aQAAHlEFAOAxzXa38nJjSOpVAAD4n1o7z336HM3PAgDwCCoAAI/l+8+6vGh9UpsBAOBPtNd5mz7T+WUAAB5QBQDgoR1P9vOiTlPZDgAA76jdpGXI4bwPAMADqQAAPJTZZCfrOU3VXgAA+HtarlJ3Xb785ccAAHygCgDAh5rtbmX9oz6VrwMAwMNo7Ty563L460UAAP6mCgDAhziZHKQyJLUZAAAeQXudt2+6TC+uAwDwnioAAH/H8WQ/axmS+jgAADyydpP76vPVz0MAAN5DBQDgfcwmO1mvIZXPAwDA02q5yn07yNH8LAAA76ACAPAuZrtbWd/oUvVNAAB4Xq2d5zYHmc4vAwDwJyoAAH/lZHKQVJ/KdgAAWBytfZvbN0OmF9cBAPgDFQCAf+d4sp8X6VO1FwAAFlS7SUuXw/lpAAD+SQUA4J/NdrfycmNI6lUAAFgS7bfcpcvR/CwAAP9PBQDgH51M+lS6pDYDAMDyafkpt63LdH4ZAGDlVQAA/sMPn36Rtjaksh0AAJZcu0nLkNs3Q6YX1wEAVlYFAFhtJ5/sJmtDqvYCAMC4tFwlrc/h/DQAwEqqAACraba7lfWP+lS+DgAA49baee7T52h+FgBgpVQAgNXz/WddXrQ+qc0AALBC2uu8fdNlenEdAGAlVACA1XE82c+LOk1lOwAArKh2k5Yhh/M+AMDoVQCA8ZtNdrKe01TtBQAA/kPLVequy5e//BgAYLQqAMB4zXa3sr7RpeqbAADAH2ntPLnrcvjrRQCA0akAAON0MjlIZUhqMwAA8Fdavsvt732mF9cBAEajAgCMy/FkP2sZkvo4AADwXtpN7qvPVz8PAQBGoQIAjMNsspOX6ZN6FQAA+BAtV7lvBzmanwUAWGoVAGC5zXa3sr7RpdIltRkAAHgoLT/ltnWZzi8DACylCgCwvE4mB0n1qWwHAAAeS2vf5vbNkOnFdQCApVIBAJbPySe7ydqQqr0AAMCTaDdp6XI4Pw0AsDQqAMDymO1u5eXGkNSrAADAs2i/5S5djuZnAQAWXgUAWA4nkz6VLqnNAADAs2uv8zZ9pvPLAAALqwIALLYfPv0ibW1IZTsAALBQ2k1ahty+GTK9uA4AsHAqAMBimk12sp7TVO0FAAAWWctV0voczk8DACyUCgCwWGa7W1n/qE/l6wAAwDJp7Ty563L460UAgIVQAQAWx/efdXnR+qQ2AwAAS6u9zts3XaYX1wEAnlUFAHh+x5P9vKjTVLYDAACj0G7SMuRw3gcAeDYVAOD5zCY7Wa8hlc8DAABj1HKVuuvy5S8/BgB4chUA4OnNdreyvtGl6psAAMAqaO08tznIdH4ZAODJVACAp3UyOUhlSGozAACwalq+y+3vfaYX1wEAHl0FAHgax5P9vEifqr0AAMBKaze5rz5f/TwEAHhUFQDgcc0mO3mZPqlXAQAA/kH7LXfpcjQ/CwDwKCoAwOOY7W5lfaNLpUtqMwAAwB9r+Sm3rct0fhkA4EFVAICH98OnX6StDalsBwAAeDetfZvbN0OmF9cBAB5EBQB4OCef7CZrQ6r2AgAA/A3tJi1dDuenAQA+WAUA+HCz3a283BiSehUAAODDtXae+/Q5mp8FAPjbKgDAhzmZ9Kl0SW0GAAB4YO113qbPdH4ZAOC9VQCAv+d4sp8XdZrKdgAAgEfUbtIy5PbNkOnFdQCAd1YBAN7PbLKT9Zymai8AAMDTablK3XX58pcfAwC8kwoA8G5mu1tZ/6hP5esAAADPp7Xz5K7L4a8XAQD+VAUA+Gvff9blReuT2gwAALAg2uu8fdNlenEdAOAPVQCAf+94sp+1DEl9HAAAYAG1m9xXn69+HgIA/IsKAPCvZpOdrNeQyucBAAAWX8tV7ttBjuZnAQD+vwoA8N9mu1tZ3+hS9U0AAIDl09p5bnOQ6fwyAEAqAMB/OpkcJNWnsh0AAGC5tXyX29/7TC+uAwArrAIAq+54sp8X6VO1FwAAYETaTVq6HM5PAwArqgIAq2o22cnL9Em9CgAAMGLtt9yly9H8LACwYioAsIpOJn0qXVKbAQAAVkPLT7ltXabzywDAiqgAwCr54dMv0taGVLYDAACspta+ze2bIdOL6wDAyFUAYBWcfLKbrA2p2gsAAEDLVdL6HM5PAwAjVgGAMZvtbuXlxpDUqwAAAPyz1s5znz5H87MAwAhVAGCsvv+sy4vWJ7UZAACAP9Ve5236TOeXAYARqQDA2BxP9vOiTlPZDgAAwDtrN2kZcjjvAwAjUQGAsZhNdrKe01TtBQAA4O9quUrddfnylx8DAEuuAgDLbra7lfWNLlXfBAAA4KG0dp7cdTn89SIAsKQqALDMTiYHqQxJbQYAAOAxtHyX29/7TC+uAwBLpgIAy+h4sp+1DEl9HAAAgEfXbnJffb76eQgALJEKACyT2WQn6zWk8nkAAACeWstV7ttBjuZnAYAlUAGAZTDb3cr6RpdKl9RmAAAAnlNr57nNQabzywDAAqsAwKI7mRwk1aeyHQAAgEXS2re5fTNkenEdAFhAFQBYVMeT/bxIn6q9AAAALKx2k5Yuh/PTAMCCqQDAopntbuXlxpDUqwAAACyN9lvu0uVofhYAWBAVAFgkJ5M+lS6pzQAAACyjlp9y27pM55cBgGdWAYBF8MOnX6StDalsBwAAYOm1m7QMuX0zZHpxHQB4JhUAeE4nn+wma0Oq9gIAADA2LVdJ63M4Pw0APIMKADyH2e5W1j/qU/k6AAAAY9faee7T52h+FgB4QhUAeGrff9blReuT2gwAAMBKaa/z9k2X6cV1AOAJVADgqRxP9vOiTlPZDgAAwMpqN2kZcjjvAwCPrAIAj2022cl6Dal8HgAAAP5Ty1XqrsuXv/wYAHgkFQB4LLPdraxvdKn6JgAAAPyx1s5zm4NM55cBgAdWAYDHcDI5SGVIajMAAAD8tZbvcvt7n+nFdQDggVQA4CEdT/azliGpjwMAAMB7aje5rz5f/TwEAB5ABQAewmyyk5fpk3oVAAAAPkzLVe7bQY7mZwGAD1ABgA8x293K+kaXSpfUZgAAAHg4LT/ltnWZzi8DAH9DBQD+rpPJQVJ9KtsBAADg8bT2bW7fDJleXAcA3kMFAN7XySe7ydqQqr0AAADwRNpNWroczk8DAO+oAgDvara7lZcbQ1KvAgAAwDNpv+UuXY7mZwGAv1ABgHdxMulT6ZLaDAAAAAugvc7b9JnOLwMA/0YFAP7MD59+kbY2pLIdAAAAFky7ScuQ2zdDphfXAYB/UgGAPzKb7GQ9p6naCwAAAIut5SppfQ7npwGAf1ABgH80293K+kd9Kl8HAACA5dLaeXLX5fDXiwDA/1EBgP/y/WddXrQ+qc0AAACwxNrrvH3TZXpxHQBWWgUAjif7WcIa1cMAACAASURBVMuQ1McBAABgJNpNWoYczvsAsLIqAKyu2WQn6zWk8nkAAAAYp5ar3LeDHM3PAsDKqQCwema7W1nf6FL1TQAAAFgNrZ3nNgeZzi8DwMqoALBaTiYHqQxJbQYAAIDV0/K/2YOf2DgLO/H/7w+sHCo5P3sFB5g9xEiwcArOqFRPl1+bxxxWFRwm7WrhghqjnDo2YnxqpbKaBy1Iv548ETPsKYtTcQlV+80cwqLvgZlQ0bEKcpycwiZSnMMaDolkf2Op2FJ4fmLX/Za2/Ekc/xn7eb9ex1n7Q8bU/BKSpD0vkCQVw2tJyl1kRBxGkiRJklRw+TKfRcZkr4EkaU8LJEl723Qywj4yiKNIkiRJkvRn8vPcpMYLs10kSXtSIEnam6ZHhxm4p0ZQgxhCkiRJkqSvktNmLa8xNbuAJGlPCSRJe8/r3zlCfneD4ACSJEmSJN2qPH+ZtU8bTM0vIUnaEwJJ0t7RenwU7m4QcRhJkiRJkjYkXyanxsTsDJKkXS+QJO1+06PD7LunAXEUSZIkSZI2Q56f5TMyXpjtIknatQJJ0u7WSjKCGsQQkiRJkiRtuvwkq2RMzS4gSdp1AknS7vRaknJXzBAcQJIkSZKkLZUvk9NgYjZDkrSrBJKk3WU6GWGAGSIOI0mSJEnSdsq5StysUf39aSRJu0IgSdodpkeHGfhWRvAikiRJkiTtpDw/CzdrTHwwjySprwWSpP7XSsYJGhBDSJIkSZLUN/KTrH5aY2p+CUlSXwokSf3rtSTlbhoQjyFJkiRJUl/Kl/ksMiZ7DSRJfSeQJPWf6WSEgWgQVJAkSZIkaTfIucpn+TgvzHaRJPWNQJLUP6ZHhxm4p0ZEHUmSJEmSdqM8P8sa40zNLiBJ2nGBJKk/tJJxiIzgAJIkSZIk7XY5x1n7Q8bU/BKSpB0TSJJ21mtJyl1kRBxGkiRJkqQ9JV8mp8bE7AySpB0RSJJ2xnQywj4yiKNIkiRJkrSn5ee5SY0XZrtIkrZVIEnafq0kI6hBDCFJkiRJUlHktFnLa0zNLiBJ2haBJGn7vP6dI+R3NwgOIEmSJElSUeX5y6x92mBqfglJ0pYKJElbr/X4KNzdIOIwkiRJkiQJcq5CnjExO4MkacsEkqStMz06zMC3MoIXkSRJkiRJfy3Pz/IZGS/MdpEkbbpAkrQ1mt+tcVeeQQwhSZIkSZK+QX6S1U9rTM0vIUnaNIEkaXO9lqTcFTMEB5AkSZIkSbchXyanwcRshiRpUwSSpM0xnYwwwAwRh5EkSZIkSRuXc5W4WaP6+9NIku5IIEm6M9OjwwzcUyOijiRJkiRJ2jx5fhZu1pj4YB5J0oYEkqSNayXjBA2IISRJkiRJ0tbIOc7aHzKm5peQJN2WQJJ0+15LUu6mAfEYkiRJkiRpG+TLfBYZk70GkqRbFkiSbt10MsJANAgqSJIkSZKk7Zdzlc/ycV6Y7SJJ+kaBJOmbTY8OM3BPjaAGMYQkSZIkSdpZeX6WNcaZml1AkvSVAknS12sl4xAZwQEkSZIkSVJ/yfOXWfu0wdT8EpKkvxJIkr7ca0nKXWREHEaSJEmSJPWxfJmcGhOzM0iS/kwgSfpz06PD7LunAXEUSZIkSZK0i+TnuUmNF2a7SJL+WyBJ+pNWkhHUIIaQJEmSJEm7U06btbzG1OwCklRwgSQJXv/OEfK7GwQHkCRJkiRJe0C+TE6DtU8bTM0vIUkFFUhSkU0nIwwwQ8RhJEmSJEnS3pNzFfKMidkZJKmAAkkqounRYQa+lRG8iCRJkiRJ2vvy/CzcrDHxwTySVCCBJBVN87s17soziCEkSZIkSVLB5CdZ/bTG1PwSklQAgSQVxWtJyl0xQ3AASZIkSZJUYPkyOQ0mZjMkaY8LJGmvm05GGIgGQQVJkiRJkqQ/yrlK3KxR/f1pJGmPCiRpr5oeHWbgnhoRdSRJkiRJkr5Knp9ljXGmZheQpD0mkKS9qJWMEzQghpAkSZIkSboVOcdZ+0PG1PwSkrRHBJK0l7yWpNxNA+IxJEmSJEmSblu+zGeRMdlrIEl7QCBJe8F0MsI+MoijSJIkSZIk3amcq3yWj/PCbBdJ2sUCSdrNpkeHGbinRlCDGEKSJEmSJGkz5bRZy2tMzS4gSbtQIEm7VSsZh8gIDiBJkiRJkrSV8vxl1j5tMDW/hCTtIoEk7Tatx0fh7gYRh5EkSZIkSdo2+TI5NSZmZ5CkXSKQpN1ienSYffc0II4iSZIkSZK0Y/Lz3KTGC7NdJKnPBZK0G7SSjKAGMYQkSZIkSVJfyE+ySsbU7AKS1KcCSepnryUpd8UMwQEkSZIkSZL6Tr5MToO1TxtMzS8hSX0mkKR+NJ2MMMAMEYeRJEmSJEnqdzlXiZs1qr8/jST1kUCS+sn06DAD38oIXkSSJEmSJGm3yfOzcLPGxAfzSFIfCCSpXzS/W+OuPIMYQpIkSZIkaVfLT7L6aY2p+SUkaQcFkrTTXktS7qYB8RiSJEmSJEl7Rr5MToOJ2QxJ2iGBJO2U6WSEgWgQVJAkSZIkSdqrcq7yWT7OC7NdJGmbBZK03aZHhxm4p0ZEHUmSJEmSpKLI87OsMc7U7AKStE0CSdpOrWScoAExhCRJkiRJUhHlHGftDxlT80tI0hYLJGk7vJak3EVGxGEkSZIkSZIKL1/ms8iY7DWQpC0USNJWmk5G2EcGcRRJkiRJkiT9hfw8N6nxwmwXSdoCgSRthenRYQbuqRHUIIaQJEmSJEnSV8tps5bXmJpdQJI2USBJm+317xwhv7tBcABJkiRJkiTdujx/mbVPG0zNLyFJmyCQpM3SenwU7m4QcRhJkiRJkiRtTM5VyDMmZmeQpDsUSNKdmh4dZt89DYijSJIkSZIkaXPk+Vk+I+OF2S6StEGBJN2J5ndr3JVnEENIkiRJkiRpC+QnWSVjanYBSbpNgSRtxGtJyl0xQ3AASZIkSZIkbbF8mZwGE7MZknQbAkm6HdPJCAPMEHEYSZIkSZIkba+cq8TNGtXfn0aSbkEgSbdienSYgW9lBC8iSZIkSZKknZXnZ+FmjYkP5pGkrxFI0jdpJeMEDYghJEmSJEmS1Efyk6x+WmNqfglJ+hKBJH2V15KUu2lAPIYkSZIkSZL6VL7MZ5Ex2WsgSX8hkKS/NJ2MMBANggqSJEmSJEnaHXKu8lk+zguzXSRpXSBJfzQ9OszAPTUi6kiSJEmSJGl3yvOzrDHO1OwCkgovkKTPtZJxiIzgAJIkSZIkSdr9co6z9oeMqfklJBVWIKnYXktS7iIj4jCSJEmSJEnaY/JlcmpMzM4gqZACScU0PTrMvnsaEEeRJEmSJEnSHpef5yY1XpjtIqlQAknF00oyghrEEJIkSZIkSSqOnDZreY2p2QUkFUIgqThe/84R8rsbBAeQJEmSJElSQeXL5DRY+7TB1PwSkva0QNLe13p8FO5uEHEYSZIkSZIk6XM5VyHPmJidQdKeFUjau6ZHhxn4VkbwIpIkSZIkSdKXyfOzfEbGC7NdJO05gaS9qfndGnflGcQQkiRJkiRJ0jfKT7L6aY2p+SUk7RmBpL3ltSTlrpghOIAkSZIkSZJ0W/JlchpMzGZI2hMCSXvDdDLCADNEHEaSJEmSJEm6EzlXiZs1qr8/jaRdLZC0u02PDjNwT42IOpIkSZIkSdJmyvOzcLPGxAfzSNqVAkm7VysZJ2hADCFJkiRJkiRtlZzjrP0hY2p+CUm7SiBp93ktSbmbBsRjSJIkSZIkSdsiX+azyJjsNZC0awSSdo/pZISBaBBUkCRJkiRJknZCzlU+y8d5YbaLpL4XSOp/06PDDNxTI6hBDCFJkiRJkiTttDw/yxrjTM0uIKlvBZL6WysZh8gIDiBJkiRJkiT1mzx/mbVPG0zNLyGp7wSS+lPr8VG4u0HEYSRJkiRJkqS+li+TU2NidgZJfSWQ1F+mR4fZd08D4iiSJEmSJEnSrpKf5yY1XpjtIqkvBJL6RyvJCGoQQ0iSJEmSJEm7Vn6SVTKmZheQtKMCSTvv9e8cIb+7QXAASZIkSZIkaU/Il8lpsPZpg6n5JSTtiEDSzplORhhghojDSJIkSZIkSXtRzlXIMyZmZ5C07QJJ2296dJiBb2UELyJJkiRJkiQVQZ6fhZs1Jj6YR9K2CSRtr+Z3a9yVZxBDSJIkSZIkSYWTn2T10xpT80tI2nKBpO3xWpJyV8wQHECSJEmSJEkqtHyZnAYTsxmStlQgaWtNJyMMRIOggiRJkiRJkqQ/yblK3KxR/f1pJG2JQNLWmB4dZuCeGhF1JEmSJEmSJH21PD/LGuNMzS4gaVMFkjZfKxknaEAMIUmSJEmSJOnW5Bxn7Q8ZU/NLSNoUgaTN81qScjcNiMeQJEmSJEmStAH5Mp9FxmSvgaQ7Fki6c9PJCPvIII4iSZIkSZIk6c7lXOWzfJwXZrtI2rBA0sZNjw4zcE+NoAYxhCRJkiRJkqTNldNmLa8xNbuApNsWSNqY179zhPzuBsEBJEmSJEmSJG2tPH+ZtU8bTM0vIemWBZJuz3QywgAzRBxGkiRJkiRJ0jbKl+Gzcaq/P42kWxJIunWtZJygATGEJEmSJEmSpB2Sn2T10xpT80tI+lqBpFvzejIDcRRJkiRJkiRJfSA/z+qnKVPzS0j6SoGkb/Z6MgNxFEmSJEmSJEl9JF8mv5ky8cE8kr5UIOnrvZ7MQBxFkiRJkiRJUh/Kl1lllKnZBST9lUDSV3s9mYE4iiRJkiRJkqQ+lp9n9dOUqfklJP2ZQNKXayXjRLyBJEmSJEmSpP6X52eZmE2R9GcCSX+t9fgo8TfnkCRJkiRJkrR75PnLTMxmSPq/Akl/bnp0mIFvzRMcQJIkSZIkSdLucjMf44XZLpL+WyDpz7W+2yB4EUnSbRu972GGB/Yz8v88wMj++/nc6L1/z/C+Qf7ocOkQt+v89cssrd7gjxZufMzCjY/53MKNT1j4Px/zue7iHJIkSZtt9L6HGR7YT/p3h/jc6L1/z/C+QT53uHSIO3F28RyfW1pdYf76f/K57n+dY2ntBvPXLiFJ2oCcq0z0RpD03wJJf9J6fJT4m3NIkr7S8L5BRu/9e0bve5iR/Q8wet/DjOx/gAP776dfnF08x+e6i3Msra4wf+0SCzc+ZuHGx0iSJH2dtFRm9L6HGb3vYUbv+3seu/chdtL565eZv/afzF+7xPy1S3QX55Ak3YI8f5mJ2QxJBJL+pJV0iTiMJOn/Sktl0r87xOi9f8/ofQ9zYP/97GZnF8+xcONj5q9dYv7aJeav/ydLqytIkqRiSktl0r87RFoqc7h0iN3g7OI5uotzdP/rHN3FOSRJXyZfZpVRpmYXkAoukPQ/XktS7o4OklRwaalM+neHSEtlDpcOUQRXb3zC/LVLdBfnmL92ie7iHJIkaW8a3jfIkQcPc2Tk+6R/d4ihgUF2s+W1Fbr/dY7TC+9x+spZllZXkCT9UX6S6uw4UsEFkv5HK+kScRhJKpiR/Q+Q/l2ZIyPfp/Lg99D/OLt4ju7iHPPXLtFdnGNpdQVJkrQ7De8b5MiDhzky8n0qD36Pvax95becXniP01fOsrS6giQV3mr+IFOzC0gFFkiC1uOjxN+cQ5IKYmT/Axx58PuMP/o0j937EPpmZxfP0V2co/tf5+guziFJkvpfWioz/uhTHHnw+wwNDFIky2srnL7yHo0Lp5i/dglJKqw8f5mJ2QypwAJJ8HoyA3EUSdrDhvcNcuTBw9QOPstj9z6ENm55bYXuf53j9MJ7nL5ylqXVFSRJUv8Yf/Rpagef5bF7H0Jw/vplGhdOMXPxDJJUPPky1dlhpAILJMHryRLEEJK0B6WlMuOPPsXRR55CW+P89cvMXDzD6SvvsXDjYyRJ0vYb3jdI7eCz1A4+y9DAIPprV298wsxHZ2hcOMXS6gqSVBw3f0j196eRCiqQiu717xyBu/8XkrSHDO8bZPyRp6kdfJYD++9H2+f89cvMXDzD6SvvsXDjYyRJ0tYa3jdI7eCz1A4+y9DAIPpmy2srNC6conHhFEurK0jS3pefpDo7jlRQgVR0ryczEEeRpD1gZP8DjD/6FLWDzzI0MIh21vnrl2lcOMXpK2dZWl1BkiRtnuF9g9QOPkvt4LMMDQyi27e8tkLjwimyD04gSXtbvkx1dhipoAKp6FrfXSA4gCTtYiP7HyB7/BhHH3kK9aeTH73N6SvvcfrKe0iSpDsz/ujTZN8+xoH996M7d/XGJ9Teb3D6yntI0p51Mx/jhdkuUgEFUpFNJyPsiytI0i41sv8BssePcfSRp9DucPXGJ8x8dIaZi2+zcONjJEnSrRu972EaT9Q4XDqENt/ZxXOMv/sKCzc+RpL2nM+YYrLXQCqgQCqy15KUu6ODJO0yw/sGqR18lvq3j6Hd6+RHbzNz8W26i3NIkqSvNrxvkNrBZ6l/+xjaei9/eILsgxNI0t6Sn6Q6O45UQIFUZK0kI6KOJO0itYPPkj1+jKGBQbQ3nL9+mcaFU8xcPIMkSfpzaanMzJMvcWD//Wj7XL3xCUfe+Snz1y4hSXtCnp9lYjZFKqBAKrJWkhFRR5J2gbRUpvH/1njs3ofQ3nT1xifMfHSGxoVTLK2uIElS0TWeqPHiwWfQznn5wxNkH5xAkna9nKtM9EaQCiiQiqyVZETUkaQ+NrxvkMYTNY4+8hQqhuW1FRoXTtG4cIql1RUkSSqa0fseZubJf+Gxex9CO+/89csc+Y+fsnDjYyRpV6v2AqmAAqnIWklGRB1J6lNHHvw+M0++xNDAICqe5bUVGhdO0bhwiqXVFSRJKoLxR5+m8cSLDA0Mov6xvLbC+LuvcPrKe0jSrlXtBVIBBVKRtZKMiDqS1GeG9w0yM/YvVB78HtLy2gqNC6doXDjF0uoKkiTtVY0narx48BnUv45feIva+w0kaVeq9gKpgAKpyFpJRkQdSeojaanMzJMvcWD//UhftLy2QuPCKbIPTiBJ0l4yvG+Q0z/4BYdLh1D/a1/5LeOdf2VpdQVJ2lWqvUAqoEAqslaSEVFHkvpE9vgx6t8+hvR1rt74hOzDE8xcPIMkSbvd6H0PM/Pkv/DYvQ+h3eP89csc+Y+fsnDjYyRp16j2AqmAAqnIWklGRB1J2mHD+wY5/YNfcLh0COlWnV08R/bBCbqLc0iStBuN3vcw3UqLoYFBtPssr62QtieYv3YJSdoVqr1AKqBAKrJWkhFRR5J20Oh9D3P6B7/gwP77kTbi5EdvU3u/wdLqCpIk7RZHHvw+M0++xNDAINq9ltdWSNsTzF+7hCT1vWovkAookIqslWRE1JGkHTL+6NM0nniRoYFBpDuxvLZC9sEJGhdOIUlSvxt/9GneGPs52huW11aovX+cmYtnkKS+Vu0FUgEFUpG1koyIOpK0A2oHn2X6iReRNtP565cZf/dfmb92CUmS+tH4o0/zxtjP0d7zfOdVZi6eQZL6VrUXSAUUSEXWSjIi6kjSNpt58iWOPvIU0lZ5+cMTZB+cQJKkfjL+6NO8MfZztHc933mVmYtnkKS+VO0FUgEFUpG1koyIOpK0jWaefImjjzyFtNXOX7/M+Lv/yvy1S0iStNOOPPh9/tcP/j+09x361VHmr11CkvpOtRdIBRRIRdZKMiLqSNI2mXnyJY4+8hTSdnr5wxNkH5xAkqSdMnrfw3QrLYYGBtHet7y2QtqeYP7aJSSpr1R7gVRAgVRkrSQjoo4kbYOZJ1/i6CNPIe2E89cvc+Q/fsrCjY+RJGk7jd73MN1Ki6GBQVQcy2srpO0J5q9dQpL6RrUXSAUUSEXWSjIi6kjSFpt58iWOPvIU0k5aXluh9v5xZi6eQZKk7TC8b5D5f/4lB/bfj4rn/PXLpO0qS6srSFJfqPYCqYACqchaSUZEHUnaQjNPvsTRR55C6hcnP3qb2vsNllZXkCRpK80/80seu/chVFxnF8+RtieQpL5Q7QVSAQVSkbWSjIg6krRFZp58iaOPPIXUb85fv8z4u//K/LVLSJK0FWaefImjjzyFdPzCW9TebyBJO67aC6QCCqQiayUZEXUkaQvUDj7L9BMvIvWr5bUVxt99hdNX3kOSpM00/ujTvDH2c6Q/er7zKjMXzyBJO6raC6QCCqQiayUZEXUkaZONP/o0b4z9HGk3OH7hLWrvN5AkaTOM3vcw3UqLoYFBpD9aXlshbU8wf+0SkrRjqr1AKqBAKrJWkhFRR5I20eh9D9OttBgaGETaLdpXfst4519ZWl1BkqSNGt43SLfyOo/d+xDSXzp//TKjb/0YSdox1V4gFVAgFVkryYioI0mbZHjfIAvP/YahgUGk3eb89csc+Y+fsnDjYyRJ2ojGEzVePPgM0lc5fuEtau83kKQdUe0FUgEFUpG1koyIOpK0SbqVFodLh5B2q+W1FdL2BPPXLiFJ0u1IS2U6lSbSNxlrT9JdnEOStl21F0gFFEhF1koyIupI0ibIHj9G/dvHkHa75bUVjvzHz+guziFJ0q0Y3jfIwnO/YWhgEOmbXL3xCaO/+jFLqytI0raq9gKpgAKpyFpJRkQdSbpDaalMp9JE2kue77zKzMUzSJL0TRpP1Hjx4DNIt+r4hbeovd9AkrZVtRdIBRRIRdZKMiLqSNIdGN43yPw//5ID++9H2mue77zKzMUzSJL0VdJSmU6liXS7Dv3qKPPXLiFJ26baC6QCCqQiayUZEXUk6Q40nqjx4sFnkPaq5zuvMnPxDJIkfZn5Z37JY/c+hHS7zi6eI21PIEnbptoLpAIKpCJrJRkRdSRpg9JSmU6libTXTb1/nMaFU0iS9EW1g88y/cSLSBv1fOdVZi6eQZK2RbUXSAUUSEXWSjIi6kjSBgzvG2T+n3/Jgf33IxXB8QtvUXu/gSRJnxveN8jCc79haGAQaaOW11YYefNHLK2uIElbrtoLpAIKpCJrJRkRdSRpA7LHj1H/9jGkInm+8yozF88gSVL2+DHq3z6GdKde/vAE2QcnkKQtV+0FUgEFUpG1koyIOpJ0m0b2P8CV536NVETPd15l5uIZJEnFNbL/Aa4892ukzbC8tsLImz9iaXUFSdpS1V4gFVAgFVkryYioI0m3qVtpcbh0CKmonu+8yszFM0iSimnmyZc4+shTSJvl5Q9PkH1wAknaUtVeIBVQIBVZK8mIqCNJtyEtlelUmkhF93znVWYunkGSVCwj+x/gynO/RtpMy2srjLz5I5ZWV5CkLVPtBVIBBVKRtZKMiDqSdBu6lRaHS4eQim55bYW0PcH8tUtIkopj5smXOPrIU0ib7eUPT5B9cAJJ2jLVXiAVUCAVWSvJiKgjSbcoLZXpVJpI+h/Layuk7Qnmr11CkrT3De8bZOG53zA0MIi02ZbXVhh580csra4gSVui2gukAgqkImslGRF1JOkWdSstDpcOIelPzl+/TNqusrS6giRpb8seP0b928eQtsrU+8dpXDiFJG2Jai+QCiiQiqyVZETUkaRbkJbKdCpNJP21s4vnSNsTSJL2toXnfsOB/fcjbZWrNz5h5M0fIUlbotoLpAIKpCJrJRkRdSTpFnQrLQ6XDiHpy5386G3G330FSdLeNP7o07wx9nOkrfbDd37G6SvvIUmbrtoLpAIKpCJrJRkRdSTpG4zsf4Arz/0aSV/v+c6rzFw8gyRp7zn9g19QefB7SFutfeW3HHnnp0jSpqv2AqmAAqnIWklGRB1J+gYzT77E0UeeQtI3G2tP0l2cQ5K0d4zsf4Arz/0aabv87b//I0urK0jSpqr2AqmAAqnIWklGRB1J+hrD+wZZeO43DA0MIumbLa+tkLYnmL92CUnS3lA7+CzTT7yItF2m3j9O48IpJGlTVXuBVECBVGStJCOijiR9jfFHn+aNsZ8j6dadv36ZtF1laXUFSdLut/Dcbziw/36k7XL++mVG3/oxkrSpqr1AKqBAKrJWkhFRR5K+xvwzv+Sxex9C0u05u3iOtD2BJGl3G73vYc7980mk7fbgm//Ewo2PkaRNU+0FUgEFUpG1koyIOpL0FUb2P8CV536NpI05+dHbjL/7CpKk3St7/Bj1bx9D2m5T7x+nceEUkrRpqr1AKqBAKrJWkhFRR5K+Qu3gs0w/8SKSNu75zqvMXDyDJGl3mn/mlzx270NI2+389cuMvvVjJGnTVHuBVECBVGStJCOijiR9hflnfslj9z6EpDsz1p6kuziHJGl3Gdn/AFee+zXSTvnbf/9HllZXkKRNUe0FUgEFUpG1koyIOpL0JUb2P8CV536NpDu3vLZC2p5g/tolJEm7x/ijT/PG2M+RdsoP3/kZp6+8hyRtimovkAookIqslWRE1JGkLzH+6NO8MfZzJG2O89cvk7arLK2uIEnaHWaefImjjzyFtFNOfvQ24+++giRtimovkAookIqslWRE1JGkL3H6B7+g8uD3kLR5zi6eI21PIEnaHRae+w0H9t+PtFOu3viEkTd/hCRtimovkAookIqslWRE1JGkL7F07H8zNDCIpM118qO3GX/3FSRJ/W1k/wNcee7XSDvtwTf/iYUbHyNJd6zaC6QCCqQiayUZEXUk6S+M3vcw5/75JJK2xtT7x2lcOIUkqX+NP/o0b4z9HGmn/fCdn3H6yntI0h2r9gKpgAKpyFpJRkQdSfoLtYPPMv3Ei0jaOj9852ecvvIekqT+1HiixosHn0HaaS9/eILsgxNI0h2r9gKpgAKpyFpJRkQdSfoLM0++xNFHnkLS1lleWyFtTzB/7RKSpP7TrbQ4XDqEtNPOLp4jbU8gSXes2gukAgqkImslGRF1JOkvzD/zSx679yEkba2rNz5h9Fc/Zml1BUlSf8l/8jukfrC8tsLwiX9Eku5YtRdIBRRIRdZKMiLqSNJfyH/yOyRtj/PXLzP61o+RJPWPkf0PcOW5XyP1i7/9939kaXUFSboj1V4gFVAgFVkryYioI0lfkJbKdCpN5E7nFAAAIABJREFUJG2fkx+9zfi7ryBJ6g9pqUyn0kTqF2PtSbqLc0jSHan2AqmAAqnIWklGRB1J+oLxR5/mjbGfI2l7Tb1/nMaFU0iSdl72+DHq3z6G1C+m3j9O48IpJOmOVHuBVECBVGStJCOijiR9Qfb4MerfPoak7ffDd37G6SvvIUnaWY0narx48BmkfvHyhyfIPjiBJN2Rai+QCiiQiqyVZETUkaQvOP2DX1B58HtI2n7Layuk7Qnmr11CkrRzupUWh0uHkPpF+8pvOfLOT5GkO1LtBVIBBVKRtZKMiDqS9AXdSovDpUNI2hlXb3zC6K9+zNLqCpKkndGttDhcOoTUL84uniNtTyBJd6TaC6QCCqQiayUZEXUk6QsWnvsNB/bfj6Sdc/76ZUbf+jGSpJ2xdOx/MzQwiNQvrt74hJE3f4Qk3ZFqL5AKKJCKrJVkRNSRpC/If/I7JO28kx+9zfi7ryBJ2n75T36H1G/i3/4BSboj1V4gFVAgFVkryYioI0lfkP/kd0jqD1PvH6dx4RSSpO2V/+R3SP0m/u0fkKQ7Uu0FUgEFUpG1koyIOpL0BflPfoek/vHDd37G6SvvIUnaHiP7H+DKc79G6jfxb/+AJN2Rai+QCiiQiqyVZETUkaR1aalMp9JEUv9YXlshbU8wf+0SkqStl5bKdCpNpH7z4Jv/xMKNj5GkDav2AqmAAqnIWklGRB1JWpeWynQqTST1l6s3PmH0Vz9maXUFSdLWSktlOpUmUr8Za0/SXZxDkjas2gukAgqkImslGRF1JGldWirTqTSR1H/OX7/M6Fs/RpK0tdJSmU6lidRvxtqTdBfnkKQNq/YCqYACqchaSUZEHUlal5bKdCpNJPWnkx+9zfi7ryBJ2jppqUyn0kTqN2PtSbqLc0jShlV7gVRAgVRkrSQjoo4krUtLZTqVJpL619T7x2lcOIUkaWukpTKdShOp34y1J+kuziFJG1btBVIBBVKRtZKMiDqStC4tlelUmkjqb893XmXm4hkkSZsvLZXpVJpI/WasPUl3cQ5J2rBqL5AKKJCKrJVkRNSRpHVpqUyn0kRSf1teWyFtTzB/7RKSpM2Vlsp0Kk2kfjPWnqS7OIckbVi1F0gFFEhF1koyIupI0rq0VKZTaSKp/y2vrTDy5o9YWl1BkrR50lKZTqWJ1G/G2pN0F+eQpA2r9gKpgAKpyFpJRkQdSVqXlsp0Kk0k7Q7nr18mbVdZWl1BkrQ50lKZTqWJ1G/G2pN0F+eQpA2r9gKpgAKpyFpJRkQdSVqXlsp0Kk0k7R4nP3qb8XdfQZK0OdJSmU6lidRvxtqTdBfnkKQNq/YCqYACqchaSUZEHUlal5bKdCpNJO0uL394guyDE0iS7lxaKtOpNJH6zVh7ku7iHJK0YdVeIBVQIBVZK8mIqCNJ69JSmU6liaTd5/nOq8xcPIMk6c6kpTKdShOp34y1J+kuziFJG1btBVIBBVKRtZKMiDqStC4tlelUmkjafZbXVkjbE8xfu4QkaePSUplOpYnUb8bak3QX55CkDav2AqmAAqnIWklGRB1JWpeWynQqTSTtTstrK4y8+SOWVleQJG1MWirTqTSR+s1Ye5Lu4hyStGHVXiAVUCAVWSvJiKgjSevSUplOpYmk3ev89cuk7SpLqytIkm5fWirTqTSR+s1Ye5Lu4hyStGHVXiAVUCAVWSvJiKgjSevSUplOpYmk3e3kR28z/u4rSJJuX1oq06k0kfrNWHuS7uIckrRh1V4gFVAgFVkryYioI0nr0lKZTqWJpN3v5Q9PkH1wAknS7UlLZTqVJlK/GWtP0l2cQ5I2rNoLpAIKpCJrJRkRdSRpXVoq06k0kbQ3PN95lZmLZ5Ak3bq0VKZTaSL1m7H2JN3FOSRpw6q9QCqgQCqyVpIRUUeS1qWlMp1KE0l7w/LaCml7gvlrl5Ak3Zq0VKZTaSL1m7H2JN3FOSRpw6q9QCqgQCqyVpIRUUeS1qWlMp1KE0l7x/LaCiNv/oil1RUkSd8sLZXpVJpI/WasPUl3cQ5J2rBqL5AKKJCKrJVkRNSRpHVpqUyn0kTS3nL++mXSdpWl1RUkSV8vLZXpVJpI/WasPUl3cQ5J2rBqL5AKKJCKrJVkRNSRpHVpqUyn0kTS3nPyo7cZf/cVJElfLy2V6VSaSP1mrD1Jd3EOSdqwai+QCiiQiqyVZETUkaR1aalMp9JE0t708ocnyD44gSTpq6WlMp1KE6nfjLUn6S7OIUkbVu0FUgEFUpG1koyIOpK0Li2V6VSaSNq7nu+8yszFM0iSvlxaKtOpNJH6zVh7ku7iHJK0YdVeIBVQIBVZK8mIqCNJ69JSmU6liaS97dCvjjJ/7RKSpL+Wlsp0Kk2kfjPWnqS7OIckbVi1F0gFFEhF1koyIupI0rq0VKZTaSJpb1teW2H0raMs3PgYSdKfS0tlOpUmUr8Za0/SXZxDkjas2gukAgqkImslGRF1JGldWirTqTSRtPedv36ZtF1laXUFSdKfpKUynUoTqd+MtSfpLs4hSRtW7QVSAQVSkbWSjIg6krQuLZXpVJpIKob2ld9y5J2fIkn6k7RUplNpIvWbsfYk3cU5JGnDqr1AKqBAKrJWkhFRR5LWpaUynUoTScVx/MJb1N5vIEn6H2mpTKfSROo3Y+1JuotzSNKGVXuBVECBVGStJCOijiStS0tlOpUmkorl+c6rzFw8gyQJ0lKZTqWJ1G/G2pN0F+eQpA2r9gKpgAKpyFpJRkQdSVqXlsp0Kk0kFc+hXx1l/tolJKno0lKZTqWJ1G/G2pN0F+eQpA2r9gKpgAKpyFpJRkQdSVqXlsp0Kk0kFc/y2gqjbx1l4cbHSFKRpaUynUoTqd+MtSfpLs4hSRtW7QVSAQVSkbWSjIg6krQuLZXpVJpIKqbz1y+Ttqssra4gSUWVlsp0Kk2kfjPWnqS7OIckbVi1F0gFFEhF1koyIupI0rq0VKZTaSKpuNpXfsuRd36KJBVVWirTqTSR+s1Ye5Lu4hyStGHVXiAVUCAVWSvJiKgjSevSUplOpYmkYjt+4S1q7zeQpCJKS2U6lSZSvxlrT9JdnEOSNqzaC6QCCqQiayUZEXUkaV1aKtOpNJGk5zuvMnPxDJJUNGmpTKfSROo3Y+1JuotzSNKGVXuBVECBVGStJCOijiStS0tlOpUmkvS5Q786yvy1S0hSkaSlMp1KE6nfjLUn6S7OIUkbVu0FUgEFUpG1koyIOpK0Li2V6VSaSNLnltdWGH3rKAs3PkaSiiItlelUmkj9Zqw9SXdxDknasGovkAookIqslWRE1JGkdWmpTKfSRJL+6Pz1y6TtKkurK0hSEaSlMp1KE6nfjLUn6S7OIUkbVu0FUgEFUpG1koyIOpK0Li2V6VSaSNIXta/8liPv/BRJKoK0VKZTaSL1m7H2JN3FOSRpw6q9QCqgQCqyVpIRUUeS1qWlMp1KE0n6S8cvvEXt/QaStNelpTKdShOp34y1J+kuziFJG1btBVIBBVKRtZKMiDqStC4tlelUmkjSl3m+8yozF88gSXtZWirTqTSR+s1Ye5Lu4hyStGHVXiAVUCAVWSvJiKgjSevSUplOpYkkfZWx9iTdxTkkaa9KS2U6lSZSvxlrT9JdnEOSNqzaC6QCCqQiayUZEXUkaV1aKtOpNJGkr7K8tkLanmD+2iUkaS9KS2U6lSZSvxlrT9JdnEOSNqzaC6QCCqQiayUZEXUkaV1aKtOpNJGkr3P++mXSdpWl1RUkaa9JS2U6lSZSvxlrT9JdnEOSNqzaC6QCCqQiayUZEXUkaV1aKtOpNJGkb3J28RxpewJJ2mvSUplOpYnUb8bak3QX55CkDav2AqmAAqnIWklGRB1JWpeWynQqTSTpVpz86G3G330FSdpL0lKZTqWJ1G/G2pN0F+eQpA2r9gKpgAKpyFpJRkQdSVqXlsp0Kk0k6VY933mVmYtnkKS9Ii2V6VSaSP1mrD1Jd3EOSdqwai+QCiiQiqyVZETUkaR1aalMp9JEkm7HWHuS7uIckrQXpKUynUoTqd+MtSfpLs4hSRtW7QVSAQVSkbWSjIg6krQuLZXpVJpI0u1YXlshbU8wf+0SkrTbpaUynUoTqd+MtSfpLs4hSRtW7QVSAQVSkbWSjIg6krQuLZXpVJpI0u06f/0yabvK0uoKkrSbpaUynUoTqd+MtSfpLs4hSRtW7QVSAQVSkbWSjIg6krQuLZXpVJpI0kacXTxH2p5AknaztFSmU2ki9Zux9iTdxTkkacOqvUAqoEAqslaSEVFH/z978A+yx3Xnffj7a+xGwQa72D3NOmCTVLFy2IWbJ7y7Z1KFpDhJINlmsSXSjQbiVAkkMBOQYLdaG87kqUykkCY27GYKCVc6kwRzFwkTyZWEBE6aSQoJJPw0UvWy7Lw863f/JWP9Gel8rgvAIjivHJMAYK0L1y/p1OWzAoAnVXBeOSYBW1MNjcZ5EgCsVu9NQIFMQMn6XSezVgCwCM4rxyQA+CRO53M6f+2iAOBJFJxXjknA1lRDo3GeBACr1XsTUCATULJ+18msFQAsgvPKMQkAPqlqaDTOkwDgSROcV45JwNZUQ6NxngQAq9V7E1AgE1CyftfJrBUALILzyjEJAD6pu/ePFIYzunLrhgDgSRKcV45JwNZUQ6NxngQAq9V7E1AgE1CyftfJrBUALILzyjEJAB6Eq7dvKgy17tw7EgA8KYLzyjEJ2JpqaDTOkwBgtXpvAgpkAkrW7zqZtQKARXBeOSYBwIPyi/m3CsMZAcCTIjivHJOAramGRuM8CQBWq/cmoEAmoGT9rpNZKwBYBOeVYxIAPEgXrl/SqctnBQBPguC8ckwCtqYaGo3zJABYrd6bgAKZgJL1u05mrQBgEZxXjkkA8KCdzud0/tpFAcDWBeeVYxKwNdXQaJwnAcBq9d4EFMgElKzfdTJrBQCL4LxyTAKAh+Fr731PP//wlwKALQvOK8ckYGuqodE4TwKA1eq9CSiQCShZv+tk1goAFsF55ZgEAA/D3ftHCsMZXbl1QwCwVcF55ZgEbE01NBrnSQCwWr03AQUyASXrd53MWgHAIjivHJMA4GH5/Ud/1Ml3X9Ode0cCgC0KzivHJGBrqqHROE8CgNXqvQkokAkoWb/rZNYKABbBeeWYBAAP09XbN3XyndcEAFsUnFeOScDWVEOjcZ4EAKvVexNQIBNQsn7XyawVACyC88oxCQAetgvXL+nU5bMCgK0JzivHJGBrqqHROE8CgNXqvQkokAkoWb/rZNYKABbBeeWYBACPwnfef0tvfvAzAcCWBOeVYxKwNdXQaJwnAcBq9d4EFMgElKzfdTJrBQCL4LxyTAKAR+Vr731PP//wlwKArQjOK8ckYGuqodE4TwKA1eq9CSiQCShZv+tk1goAFsF55ZgEAI/K3ftHCsMZXbl1QwCwBcF55ZgEbE01NBrnSQCwWr03AQUyASXrd53MWgHAIjivHJMA4FH6/Ud/1Ml3X9Ode0cCgMctOK8ck4CtqYZG4zwJAFar9yagQCagZP2uk1krAFgE55VjEgA8aldv39TJd14TADxuwXnlmARsTTU0GudJALBavTcBBTIBJet3ncxaAcAiOK8ckwDgcbhw/ZJOXT4rAHicgvPKMQnYmmpoNM6TAGC1em8CCmQCStbvOpm1AoBFcF45JgHA4/Kd99/Smx/8TADwuATnlWMSsDXV0GicJwHAavXeBBTIBJSs33UyawUAi+C8ckwCgMfpa+99Tz//8JcCgMchOK8ck4CtqYZG4zwJAFar9yagQCagZP2uk1krAFgE55VjEgA8TnfvHykMZ3Tl1g0BwKMWnFeOScDWVEOjcZ4EAKvVexNQIBNQsn7XyawVACyC88oxCQAet99/9EedfPc13bl3JAB4lILzyjEJ2JpqaDTOkwBgtXpvAgpkAkrW7zqZtQKARXBeOSYBwBZcvX1TJ995TQDwKAXnlWMSsDXV0GicJwHAavXeBBTIBJSs33UyawUAi+C8ckwCgK24cP2STl0+KwB4VILzyjEJ2JpqaDTOkwBgtXpvAgpkAkrW7zqZtQKARXBeOSYBwJZ85/239OYHPxMAPArBeeWYBGxNNTQa50kAsFq9NwEFMgEl63edzFoBwCI4rxyTAGBrTudzOn/togDgYQvOK8ckYGuqodE4TwKA1eq9CSiQCShZv+tk1goAFsF55ZgEAFtz9/6RwnBGV27dEAA8TMF55ZgEbE01NBrnSQCwWr03AQUyASXrd53MWgHAIjivHJMAYIvu3j/SSz/9uu7cOxIAPCzBeeWYBGxNNTQa50kAsFq9NwEFMgEl63edzFoBwCI4rxyTAGCrrt6+qTDUunPvSADwMATnlWMSsDXV0GicJwHAavXeBBTIBJSs33UyawUAi+C8ckwCgC27cP2STl0+KwB4GILzyjEJ2JpqaDTOkwBgtXpvAgpkAkrW7zqZtQKARXBeOSYBwNb98Ddvq/v12wKABy04rxyTgK2phkbjPAkAVqv3JqBAJqBk/a6TWSsAWATnlWMSADwJTudzOn/togDgQQrOK8ckYGuqodE4TwKA1eq9CSiQCShZv+tk1goAFsF55ZgEAE+Cu/ePFIYzunLrhgDgQQnOK8ckYGuqodE4TwKA1eq9CSiQCShZv+tk1goAFsF55ZgEAE+Ku/eP9NJPv647944EAA9CcF45JgFbUw2NxnkSAKxW701AgUxAyfpdJ7NWALAIzivHJAB4kly9fVNhqHXn3pEA4JMKzivHJGBrqqHROE8CgNXqvQkokAkoWb/rZNYKABbBeeWYBABPmgvXL+nU5bMCgE8qOK8ck4CtqYZG4zwJAFar9yagQCagZP2uk1krAFgE55VjEgA8iX74m7fV/fptAcAnEZxXjknA1lRDo3GeBACr1XsTUCATULJ+18msFQAsgvPKMQkAnlSn8zmdv3ZRALBWcF45JgFbUw2NxnkSAKxW701AgUxAyfpdJ7NWALAIzivHJAB4Ut29f6QwnNGVWzcEAGsE55VjErA11dBonCcBwGr13gQUyASUrN91MmsFAIvgvHJMAoAn2d37R3rpp1/XnXtHAoA/V3BeOSYBW1MNjcZ5EgCsVu9NQIFMQMn6XSezVgCwCM4rxyQAeNJdvX1TYah1596RAODPEZxXjknA1lRDo3GeBACr1XsTUCATULJ+18msFQAsgvPKMQkAngYXrl/SqctnBQB/juC8ckwCtqYaGo3zJABYrd6bgAKZgJL1u05mrQBgEZxXjkkA8LT44W/eVvfrtwUAf6rgvHJMAramGhqN8yQAWK3em4ACmYCS9btOZq0AYBGcV45JAPA0OZ3P6fy1iwKAP0VwXjkmAVtTDY3GeRIArFbvTUCBTEDJ+l0ns1YAsAjOK8ckAHjafP7d13Xl1g0BwP8mOK8ck4CtqYZG4zwJAFar9yagQCagZP2uk1krAFgE55VjEgA8be7eP9LJd17X7z76gwDgfxKcV45JwNZUQ6NxngQAq9V7E1AgE1CyftfJrBUALILzyjEJAJ5GV2/fVBhq3bl3JAD47wTnlWMSsDXV0GicJwHAavXeBBTIBJSs33UyawUAi+C8ckwCgKfV8OGv9NX3visA+O8E55VjErA11dBonCcBwGr13gQUyASUrN91MmsFAIvgvHJMAoCn2VsfvKM33n9TAPBfCc4rxyRga6qh0ThPAoDV6r0JKJAJKFm/62TWCgAWwXnlmAQAT7vT+ZzOX7soAPj/BeeVYxKwNdXQaJwnAcBq9d4EFMgElKzfdTJrBQCL4LxyTAKAEnz+3dd15dYNAcB/FJxXjknA1lRDo3GeBACr1XsTUCATULJ+18msFQAsgvPKMQkASnD3/pFOvvO6fvfRHwQA/09wXjkmAVtTDY3GeRIArFbvTUCBTEDJ+l0ns1YAsAjOK8ckACjF1ds3FYZad+4dCQD+TXBeOSYBW1MNjcZ5EgCsVu9NQIFMQMn6XSezVgCwCM4rxyQAKMnw4a/01fe+KwD4N8F55ZgEbE01NBrnSQCwWr03AQUyASXrd53MWgHAIjivHJMAoDRvffCO3nj/TQFAcF45JgFbUw2NxnkSAKxW701AgUxAyfpdJ7NWALAIzivHJAAo0el8TuevXRSAsgXnlWMSsDXV0GicJwHAavXeBBTIBJSs33UyawUAi+C8ckwCgFJ9/t3XdeXWDQEoV3BeOSYBW1MNjcZ5EgCsVu9NQIFMQMn6XSezVgCwCM4rxyQAKNXd+0c6+c7r+t1HfxCAMgXnlWMSsDXV0GicJwHAavXeBBTIBJSs33UyawUAi+C8ckwCgJJdvX1TYah1596RAJQnOK8ck4CtqYZG4zwJAFar9yagQCagZP2uk1krAFgE55VjEgCUbvjwV/rqe98VgPIE55VjErA11dBonCcBwGr13gQUyASUrN91MmsFAIvgvHJMAgBIb33wjt54/00BKEtwXjkmAVtTDY3GeRIArFbvTUCBTEDJ+l0ns1YAsAjOK8ckAMC/O53P6fy1iwJQjuC8ckwCtqYaGo3zJABYrd6bgAKZgJL1u05mrQBgEZxXjkkAgGPV0GicJwEoQ3BeOSYBW1MNjcZ5EgCsVu9NQIFMQMn6XSezVgCwCM4rxyQAwLG7948UhjO6cuuGADz9gvPKMQnYmmpoNM6TAGC1em8CCmQCStbvOpm1AoBFcF45JgEAPu7q7ZsKQ607944E4OkWnFeOScDWVEOjcZ4EAKvVexNQIBNQsn7XyawVACyC88oxCQDwn/1i/q3CcEYAnm7BeeWYBGxNNTQa50kAsFq9NwEFMgEl63edzFoBwCI4rxyTAAD/tQvXL+nU5bMC8PQKzivHJGBrqqHROE8CgNXqvQkokAkoWb/rZNYKABbBeeWYBAD4753O53T+2kUBeDoF55VjErA11dBonCcBwGr13gQUyASUrN91MmsFAIvgvHJMAgD8z6qh0ThPAvD0Cc4rxyRga6qh0ThPAoDV6r0JKJAJKFm/62TWCgAWwXnlmAQA+J/dvX+kMJzRlVs3BODpEpxXjknA1lRDo3GeBACr1XsTUCATULJ+18msFQAsgvPKMQkA8L+7evumwlDrzr0jAXh6BOeVYxKwNdXQaJwnAcBq9d4EFMgElKzfdTJrBQCL4LxyTAIA/Gl+Mf9WYTgjAE+P4LxyTAK2phoajfMkAFit3puAApmAkvW7TmatAGARnFeOSQCAP92F65d06vJZAXg6BOeVYxKwNdXQaJwnAcBq9d4EFMgElKzfdTJrBQCL4LxyTAIA/HlO53M6f+2iADz5gvPKMQnYmmpoNM6TAGC1em8CCmQCStbvOpm1AoBFcF45JgEA/nzV0GicJwF4sgXnlWMSsDXV0GicJwHAavXeBBTIBJSs33UyawUAi+C8ckwCAPz57t4/UhjO6MqtGwLw5ArOK8ckYGuqodE4TwKA1eq9CSiQCShZv+tk1goAFsF55ZgEAFjn6u2bCkOtO/eOBODJFJxXjknA1lRDo3GeBACr1XsTUCATULJ+18msFQAsgvPKMQkAsN4v5t8qDGcE4MkUnFeOScDWVEOjcZ4EAKvVexNQIBNQsn7XyawVACyC88oxCQDwyVy4fkmnLp8VgCdPcF45JgFbUw2NxnkSAKxW701AgUxAyfpdJ7NWALAIzivHJADAJ3c6n9P5axcF4MkSnFeOScDWVEOjcZ4EAKvVexNQIBNQsn7XyawVACyC88oxCQDwYFRDo3GeBODJEZxXjknA1lRDo3GeBACr1XsTUCATULJ+18msFQAsgvPKMQkA8GDcvX+kMJzRlVs3BODJEJxXjknA1lRDo3GeBACr1XsTUCATULJ+18msFQAsgvPKMQkA8OD8/qM/6uS7r+nOvSMB2L7gvHJMAramGhqN8yQAWK3em4ACmYCS9btOZq0AYBGcV45JAIAH6+rtmzr5zmsCsH3BeeWYBGxNNTQa50kAsFq9NwEFMgEl63edzFoBwCI4rxyTAAAP3oXrl3Tq8lkB2LbgvHJMAramGhqN8yQAWK3em4ACmYCS9btOZq0AYBGcV45JAICH4zvvv6U3P/iZAGxXcF45JgFbUw2NxnkSAKxW701AgUxAyfpdJ7NWALAIzivHJADAw/O1976nn3/4SwHYpuC8ckwCtqYaGo3zJABYrd6bgAKZgJL1u05mrQBgEZxXjkkAgIfn7v0jheGMrty6IQDbE5xXjknA1lRDo3GeBACr1XsTUCATULJ+18msFQAsgvPKMQkA8HD9/qM/6uS7r+nOvSMB2JbgvHJMAramGhqN8yQAWK3em4ACmYCS9btOZq0AYBGcV45JAICH7+rtmzr5zmsCsC3BeeWYBGxNNTQa50kAsFq9NwEFMgEl63edzFoBwCI4rxyTAACPxoXrl3Tq8lkB2I7gvHJMAramGhqN8yQAWK3em4ACmYCS9btOZq0AYBGcV45JAIBH5zvvv6U3P/iZAGxDcF45JgFbUw2NxnkSAKxW701AgUxAyfpdJ7NWALAIzivHJADAo/W1976nn3/4SwF4/ILzyjEJ2JpqaDTOkwBgtXpvAgpkAkrW7zqZtQKARXBeOSYBAB6tu/ePFIYzunLrhgA8XsF55ZgEbE01NBrnSQCwWr03AQUyASXrd53MWgHAIjivHJMAAI/e7z/6o06++5ru3DsSgMcnOK8ck4CtqYZG4zwJAFar9yagQCagZP2uk1krAFgE55VjEgDg8bh6+6ZOvvOaADw+wXnlmARsTTU0GudJALBavTcBBTIBJet3ncxaAcAiOK8ckwAAj8+F65d06vJZAXg8gvPKMQnYmmpoNM6TAGC1em8CCmQCStbvOpm1AoBFcF45JgEAHq/vvP+W3vzgZwLw6AXnlWMSsDXV0GicJwHAavXeBBTIBJSs33UyawUAi+C8ckwCADx+X3vve/r5h78UgEfuOQD4AAAgAElEQVQrOK8ck4CtqYZG4zwJAFar9yagQCagZP2uk1krAFgE55VjEgDg8bt7/0hhOKMrt24IwKMTnFeOScDWVEOjcZ4EAKvVexNQIBNQsn7XyawVACyC88oxCQCwDXfvH+mln35dd+4dCcCjEZxXjknA1lRDo3GeBACr1XsTUCATULJ+18msFQAsgvPKMQkAsB1Xb99UGGrduXckAA9fcF45JgFbUw2NxnkSAKxW701AgUxAyfpdJ7NWALAIzivHJADAtly4fkmnLp8VgIcvOK8ck4CtqYZG4zwJAFar9yagQCagZP2uk1krAFgE55VjEgBge374m7fV/fptAXi4gvPKMQnYmmpoNM6TAGC1em8CCmQCStbvOpm1AoBFcF45JgEAtul0Pqfz1y4KwMMTnFeOScDWVEOjcZ4EAKvVexNQIBNQsn7XyawVACyC88oxCQCwTXfvHykMZ3Tl1g0BeDiC88oxCdiaamg0zpMAYLV6bwIKZAJK1u86mbUCgEVwXjkmAQC26+79I73006/rzr0jAXjwgvPKMQnYmmpoNM6TAGC1em8CCmQCStbvOpm1AoBFcF45JgEAtu3q7ZsKQ607944E4MEKzivHJGBrqqHROE8CgNXqvQkokAkoWb/rZNYKABbBeeWYBGzN7z/6o/7qU38hAMcuXL+kU5fPCsCDFZxXjknA1lRDo3GeBACr1XsTUCATULJ+18msFQAsgvPKMQnYms+/+7rG2Ou5Z04IwLEf/uZtdb9+WwAenOC8ckwCtqYaGo3zJABYrd6bgAKZgJL1u05mrQBgEZxXjknA1tjhgb766b/Vv37pHwXg407nczp/7aIAPBjBeeWYBGxNNTQa50kAsFq9NwEFMgEl63edzFoBwCI4rxyTgK2xwwP9mzc+9/f65y98WwCO3b1/pDCc0ZVbNwTgkwvOK8ckYGuqodE4TwKA1eq9CSiQCShZv+tk1goAFsF55ZgEbI0dHuj/Of/FH+j1z3xZAI7dvX+kl376dd25dyQAn0xwXjkmAVtTDY3GeRIArFbvTUCBTEDJ+l0ns1YAsAjOK8ckYGvs8ED/0ZVv/kSvvvCyABy7evumwlDrzr0jAVgvOK8ck4CtqYZG4zwJAFar9yagQCagZP2uk1krAFgE55VjErA1dnig/+j5Z0/oyjd+or/61F8IwLEL1y/p1OWzArBecF45JgFbUw2NxnkSAKxW701AgUxAyfpdJ7NWALAIzivHJGBr7PBA/7+TL76iMfZ67pkTAnDsh795W92v3xaAdYLzyjEJ2JpqaDTOkwBgtXpvAgpkAkrW7zqZtQKARXBeOSYBW2OHB/qvfPXTf6t//dI/CsDHnc7ndP7aRQH48wXnlWMSsDXV0GicJwHAavXeBBTIBJSs33UyawUAi+C8ckwCtsYOD/TfeeNzf69//sK3BeDY3ftHCsMZXbl1QwD+PMF55ZgEbE01NBrnSQCwWr03AQUyASXrd53MWgHAIjivHJOArbHDA/1Pzn/xB3r9M18WgGN37x/p5Duv63cf/UEA/nTBeeWYBGxNNTQa50kAsFq9NwEFMgEl63edzFoBwCI4rxyTgK2xwwP9b6588yd69YWXBeDY1ds3FYZad+4dCcCfJjivHJOAramGRuM8CQBWq/cmoEAmoGT9rpNZKwBYBOeVYxKwNXZ4oP/N88+e0JVv/ER/9am/EIBjw4e/0lff+64A/GmC88oxCdiaamg0zpMAYLV6bwIKZAJK1u86mbUCgEVwXjkmAVtjhwf6U5x88RWNsddzz5wQgGNvffCO3nj/TQH43wXnlWMSsDXV0GicJwHAavXeBBTIBJSs33UyawUAi+C8ckwCtsYOD/SnCs4rxyQAH3c6n9P5axcF4H8WnFeOScDWVEOjcZ4EAKvVexNQIBNQsn7XyawVACyC88oxCdgaOzzQn+PUZ7+iH1ffF4CP+/y7r+vKrRsC8N8LzivHJGBrqqHROE8CgNXqvQkokAkoWb/rZNYKABbBeeWYBGyNHR7oz3X+iz/Q65/5sgAcu3v/SCffeV2/++gPAvBfC84rxyRga6qh0ThPAoDV6r0JKJAJKFm/62TWCgAWwXnlmARsjR0eaI0x9vo793kBOHb19k2Fodade0cC8J8F55VjErA11dBonCcBwGr13gQUyASUrN91MmsFAIvgvHJMArbGDg+0xvPPntAYf6RXX3hZAI4NH/5KX33vuwLwnwXnlWMSsDXV0GicJwHAavXeBBTIBJSs33UyawUAi+C8ckwCtsYOD7TWyRdf0Rh7PffMCQE49tYH7+iN998UgI8LzivHJGBrqqHROE8CgNXqvQkokAkoWb/rZNYKABbBeeWYBGyNHR7okwjOK8ckAB93Op/T+WsXBeBYcF45JgFbUw2NxnkSAKxW701AgUxAyfpdJ7NWALAIzivHJGBr7PBAn9Spz35FP66+LwAf9/l3X9eVWzcE4N8F55VjErA11dBonCcBwGr13gQUyASUrN91MmsFAIvgvHJMArbGDg/0IJz/4g/0+me+LADH7t4/0sl3XtfvPvqDAEjBeeWYBGxNNTQa50kAsFq9NwEFMgEl63edzFoBwCI4rxyTgK2xwwM9KGPs9Xfu8wJw7OrtmwpDrTv3jgSULjivHJOAramGRuM8CQBWq/cmoEAmoGT9rpNZKwBYBOeVYxKwNXZ4oAfl+WdPaIw/0qsvvCwAx4YPf6WvvvddAaULzivHJGBrqqHROE8CgNXqvQkokAkoWb/rZNYKABbBeeWYBGyNHR7oQTr54isaY6/nnjkhAMfe+uAdvfH+mwJKFpxXjknA1lRDo3GeBACr1XsTUCATULJ+18msFQAsgvPKMQnYGjs80IMWnFeOSQA+7nQ+p/PXLgooVXBeOSYBW1MNjcZ5EgCsVu9NQIFMQMn6XSezVgCwCM4rxyRga+zwQA/Dqc9+RT+uvi8AH/f5d1/XlVs3BJQoOK8ck4CtqYZG4zwJAFar9yagQCagZP2uk1krAFgE55VjErA1dnigh+X8F3+g1z/zZQE4dvf+kcJwRldu3RBQmuC8ckwCtqYaGo3zJABYrd6bgAKZgJL1u05mrQBgEZxXjknA1tjhgR6mMfb6O/d5ATh29fZNhaHWnXtHAkoSnFeOScDWVEOjcZ4EAKvVexNQIBNQsn7XyawVACyC88oxCdgaOzzQw/T8syc0xh/p1RdeFoBjv5h/qzCcEVCS4LxyTAK2phoajfMkAFit3puAApmAkvW7TmatAGARnFeOScDW2OGBHraTL76iMfZ67pkTAnDswvVLOnX5rIBSBOeVYxKwNdXQaJwnAcBq9d4EFMgElKzfdTJrBQCL4LxyTAK2xg4P9CicfPEV/fYbFwTg407nczp/7aKAEgTnlWMSsDXV0GicJwHAavXeBBTIBJSs33UyawUAi+C8ckwCtsYOD/SonPrsV/Tj6vsC8HHV0GicJwFPu+C8ckwCtqYaGo3zJABYrd6bgAKZgJL1u05mrQBgEZxXjknA1tjhgR6lN7/whr79uW8KwLG7948UhjO6cuuGgKdZcF45JgFbUw2NxnkSAKxW701AgUxAyfpdJ7NWALAIzivHJGBr7PBAj9rPv/RPip/+PwJw7OrtmwpDrTv3jgQ8rYLzyjEJ2JpqaDTOkwBgtXpvAgpkAkrW7zqZtQKARXBeOSYBW2OHB3rUnn/2hMb4I736wssCcOwX828VhjMCnlbBeeWYBGxNNTQa50kAsFq9NwEFMgEl63edzFoBwCI4rxyTgK2xwwM9Di996i915ZsX9NwzJwTg2IXrl3Tq8lkBT6PgvHJMAramGhqN8yQAWK3em4ACmYCS9btOZq0AYBGcV45JwNbY4YEel5MvvqLffuOCAHzc6XxO569dFPC0Cc4rxyRga6qh0ThPAoDV6r0JKJAJKFm/62TWCgAWwXnlmARsjR0e6HE69dmv6MfV9wXg46qh0ThPAp4mwXnlmARsTTU0GudJALBavTcBBTIBJet3ncxaAcAiOK8ck4CtscMDPW5vfuENfftz3xSAY3fvHykMZ3Tl1g0BT4vgvHJMAramGhqN8yQAWK3em4ACmYCS9btOZq0AYBGcV45JwNbY4YG24Odf+ifFT/8fATh29fZNhaHWnXtHAp4GwXnlmARsTTU0GudJALBavTcBBTIBJet3ncxaAcAiOK8ck4CtscMDbcHzz57QGH+kV194WQCO/WL+rcJwRsDTIDivHJOAramGRuM8CQBWq/cmoEAmoGT9rpNZKwBYBOeVYxKwNXZ4oK146VN/qSvfvKDnnjkhAMcuXL+kU5fPCnjSBeeVYxKwNdXQaJwnAcBq9d4EFMgElKzfdTJrBQCL4LxyTAK2xg4PtCUnX3xFv/3GBQH4uNP5nM5fuyjgSRacV45JwNZUQ6NxngQAq9V7E1AgE1CyftfJrBUALILzyjEJ2Bo7PNDWnPrsV/Tj6vsC8HHV0GicJwFPquC8ckwCtqYaGo3zJABYrd6bgAKZgJL1u05mrQBgEZxXjknA1tjhgbbozS+8oW9/7psCcOzu/SOF4Yyu3Loh4EkUnFeOScDWVEOjcZ4EAKvVexNQIBNQsn7XyawVACyC88oxCdgaOzzQVv38S/+k+On/IwDHfv/RH3Xy3dd0596RgCdNcF45JgFbUw2NxnkSAKxW701AgUxAyfpdJ7NWALAIzivHJGBr7PBAW/X8syc0xh/p1RdeFoBjV2/f1Ml3XhPwpAnOK8ckYGuqodE4TwKA1eq9CSiQCShZv+tk1goAFsF55ZgEbI0dHmjLXvrUX+rKNy/ouWdOCMCxC9cv6dTlswKeJMF55ZgEbE01NBrnSQCwWr03AQUyASXrd53MWgHAIjivHJOArbHDA23dyRdf0Rh7PffMCQE49p3339KbH/xMwJMiOK8ck4CtqYZG4zwJAFar9yagQCagZP2uk1krAFgE55VjErA1dnigJ8Gpz35FP66+LwAf97X3vqeff/hLAU+C4LxyTAK2phoajfMkAFit3puAApmAkvW7TmatAGARnFeOScDW2OGBnhTd33xL7V9/SwCO3b1/pDCc0ZVbNwRsXXBeOSYBW1MNjcZ5EgCsVu9NQIFMQMn6XSezVgCwCM4rxyRga+zwQE+S81/8gV7/zJcF4NjvP/qjTr77mu7cOxKwZcF55ZgEbE01NBrnSQCwWr03AQUyASXrd53MWgHAIjivHJOArbHDAz1Jnn/2hMb4I736wssCcOzq7Zs6+c5rArYsOK8ck4CtqYZG4zwJAFar9yagQCagZP2uk1krAFgE55VjErA1dnigJ83zz57Q7/7hX/TcMycE4NiF65d06vJZAVsVnFeOScDWVEOjcZ4EAKvVexNQIBNQsn7XyawVACyC88oxCdgaOzzQk+jki69ojL2ee+aEABz7zvtv6c0PfiZgi4LzyjEJ2JpqaDTOkwBgtXpvAgpkAkrW7zqZtQKARXBeOSYBW2OHB3pSnfrsV/Tj6vsC8HFfe+97+vmHvxSwNcF55ZgEbE01NBrnSQCwWr03AQUyASXrd53MWgHAIjivHJOArbHDAz3Jur/5ltq//pYAHLt7/0hhOKMrt24I2JLgvHJMAramGhqN8yQAWK3em4ACmYCS9btOZq0AYBGcV45JwNbY4YGedOe/+AO9/pkvC8Cx33/0R5189zXduXckYCuC88oxCdiaamg0zpMAYLV6bwIKZAJK1u86mbUCgEVwXjkmAVtjhwd60j3/7AmN8Ud69YWXBeDY1ds3dfKd1wRsRXBeOSYBW1MNjcZ5EgCsVu9NQIFMQMn6XSezVgCwCM4rxyRga+zwQE+D5589od/9w7/ouWdOCMCxC9cv6dTlswK2IDivHJOAramGRuM8CQBWq/cmoEAmoGT9rpNZKwBYBOeVYxKwNXZ4oKfFyRdf0Rh7PffMCQE49p3339KbH/xMwOMWnFeOScDWVEOjcZ4EAKvVexNQIBNQsn7XyawVACyC88oxCdgaOzzQ0+TUZ7+iH1ffF4CP+9p739PPP/ylgMcpOK8ck4CtqYZG4zwJAFar9yagQCagZP2uk1krAFgE55VjErA1dnigp033N99S+9ffEoBjd+8fKQxndOXWDQGPS3BeOSYBW1MNjcZ5EgCsVu9NQIFMQMn6XSezVgCwCM4rxyRga+zwQE+j81/8gV7/zJcF4Njd+0d66adf1517RwIeh+C8ckwCtqYaGo3zJABYrd6bgAKZgJL1u05mrQBgEZxXjknA1tjhgZ5Gzz97QmP8kV594WUBOHb19k2Fodade0cCHrXgvHJMAramGhqN8yQAWK3em4ACmYCS9btOZq0AYBGcV45JwNbY4YGeVs8/e0K/+4d/0XPPnBCAYxeuX9Kpy2cFPGrBeeWYBGxNNTQa50kAsFq9NwEFMgEl63edzFoBwCI4rxyTgK2xwwM9zU6++IrG2Ou5Z04IwLEf/uZtdb9+W8CjFJxXjknA1lRDo3GeBACr1XsTUCATULJ+18msFQAsgvPKMQnYGjs80NPu1Ge/oh9X3xeAjzudz+n8tYsCHpXgvHJMAramGhqN8yQAWK3em4ACmYCS9btOZq0AYBGcV45JwNbY4YFK8Mbn/l7//IVvC8Cxu/ePFIYzunLrhoBHITivHJOAramGRuM8CQBWq/cmoEAmoGT9rpNZKwBYBOeVYxKwNXZ4oFKc/+IP9PpnviwAx+7eP9JLP/267tw7EvCwBeeVYxKwNdXQaJwnAcBq9d4EFMgElKzfdTJrBQCL4LxyTAK2xg4PVJIr3/yJXn3hZQE4dvX2TYWh1p17RwIepuC8ckwCtqYaGo3zJABYrd6bgAKZgJL1u05mrQBgEZxXjknA1tjhgUry/LMndOUbP9FffeovBODYheuXdOryWQEPU3BeOSYBW1MNjcZ5EgCsVu9NQIFMQMn6XSezVgCwCM4rxyRga+zwQKU5+eIrGmOv5545IQDHfvibt9X9+m0BD0twXjkmAVtTDY3GeRIArFbvTUCBTEDJ+l0ns1YAsAjOK8ckYGvs8EAl+uqn/1b/+qV/FICPO53P6fy1iwIehuC8ckwCtqYaGo3zJABYrd6bgAKZgJL1u05mrQBgEZxXjknA1tjhgUr1xuf+Xv/8hW8LwLG7948UhjO6cuuGgActOK8ck4CtqYZG4zwJAFar9yagQCagZP2uk1krAFgE55VjErA1dnigkp3/4g/0+me+LADH7t4/0ks//bru3DsS8CAF55VjErA11dBonCcBwGr13gQUyASUrN91MmsFAIvgvHJMArbGDg9Uuivf/IlefeFlATh29fZNhaHWnXtHAh6U4LxyTAK2phoajfMkAFit3puAApmAkvW7TmatAGARnFeOScDW2OGBSvf8syd05Rs/0V996i8E4NiF65d06vJZAQ9KcF45JgFbUw2NxnkSAKxW701AgUxAyfpdJ7NWALAIzivHJGBr7PBAkE6++IrG2Ou5Z04IwLEf/uZtdb9+W8CDEJxXjknA1lRDo3GeBACr1XsTUCATULJ+18msFQAsgvPKMQnYGjs8EP7dVz/9t/rXL/2jAHzc6XxO569dFPBJBeeVYxKwNdXQaJwnAcBq9d4EFMgElKzfdTJrBQCL4LxyTAK2xg4PhGNvfO7v9c9f+LYAHLt7/0hhOKMrt24I+CSC88oxCdiaamg0zpMAYLV6bwIKZAJK1u86mbUCgEVwXjkmAVtjhwfCx53/4g/0+me+LADH7t4/0ks//bru3DsSsFZwXjkmAVtTDY3GeRIArFbvTUCBTEDJ+l0ns1YAsAjOK8ckYGvs8ED4z6588yd69YWXBeDY1ds3FYZad+4dCVgjOK8ck4CtqYZG4zwJAFar9yagQCagZP2uk1krAFgE55VjErA1dngg/GfPP3tCV77xE/3Vp/5CAI4NH/5KX33vuwLWCM4rxyRga6qh0ThPAoDV6r0JKJAJKFm/62TWCgAWwXnlmARsjR0eCP+1ky++ojH2eu6ZEwJw7K0P3tEb778p4M8VnFeOScDWVEOjcZ4EAKvVexNQIBNQsn7XyawVACyC88oxCdgaOzwQ/ntf/fTf6l+/9I8C8HGn8zmdv3ZRwJ8jOK8ck4CtqYZG4zwJAFar9yagQCagZP2uk1krAFgE55VjErA1/5c9+Am1o77/P/56b5LNlQSSRTubKiSYlbkOLRyOtP2MKzGLjy2YboqJuJsMaFctRDhTUGhXVZjJWUkS6aYRWmdhcOVn2iJn0TLeuFIS0G6mXSSQ4N0kqx9fvufL+d7vr390NMkn+TwfD1vOhX/v9LETOl+cFYC9nnznlHauXxXwZbksV/CNgNgUXaV+HAQAk5UrE5AgE5CydlbLbCEAWHNZruAbAbGx5Vz4zy48/apOPf6sAGzcurOr7Uun9PkXfxfwZbgsV/CNgNgUXaV+HAQAk5UrE5AgE5CydlbLbCEAWHNZruAbAbGx5Vz4cnrf6ofZkwKwceXGNbmu1M3buwL+E5flCr4REJuiq9SPgwBgsnJlAhJkAlLWzmqZLQQAay7LFXwjIDa2nAtfzsH9W+r9OR0/dEQANrrP/qzn3v+5gP/EZbmCbwTEpugq9eMgAJisXJmABJmAlLWzWmYLAcCay3IF3wiIjS3nwpe3ffioet/qwL4tAdh48+NLeuXDNwT8Oy7LFXwjIDZFV6kfBwHAZOXKBCTIBKSsndUyWwgA1lyWK/hGQGxsORe+GpflCr4RgL1eDK/rwifvCfhXXJYr+EZAbIquUj8OAoDJypUJSJAJSFk7q2W2EACsuSxX8I2A2NhyLnx1p4+d0PnirADs9eQ7p7Rz/aqAf8ZluYJvBMSm6Cr14yAAmKxcmYAEmYCUtbNaZgsBwJrLcgXfCIiNLefCNBeeflWnHn9WADZu3dnV9qVT+vyLvwv4v1yWK/hGQGyKrlI/DgKAycqVCUiQCUhZO6tlthAArLksV/CNgNjYci5M1/tWP8yeFICNKzeuyXWlbt7eFfC/uSxX8I2A2BRdpX4cBACTlSsTkCATkLJ2VstsIQBYc1mu4BsBsbHlXJju4P4t9f6cjh86IgAb3Wd/1nPv/1zA/+ayXME3AmJTdJX6cRAATFauTECCTEDK2lkts4UAYM1luYJvBMTGlnPh69k+fFS9b3Vg35YAbLz58SW98uEbAv6Hy3IF3wiITdFV6sdBADBZuTIBCTIBKWtntcwWAoA1l+UKvhEQG1vOha/PZbmCbwRgrxfD67rwyXsC/ovLcgXfCIhN0VXqx0EAMFm5MgEJMgEpa2e1zBYCgDWX5Qq+ERAbW86Fb8bpYyd0vjgrAHs9+c4p7Vy/KsBluYJvBMSm6Cr14yAAmKxcmYAEmYCUtbNaZgsBwJrLcgXfCIiNLefCN+fC06/q1OPPCsDGrTu72r50Sp9/8XchbS7LFXwjIDZFV6kfBwHAZOXKBCTIBKSsndUyWwgA1lyWK/hGQGxsORe+Wb1v9cPsSQHYuHLjmlxX6ubtXSFdLssVfCMgNkVXqR8HAcBk5coEJMgEpKyd1TJbCADWXJYr+EZAbGw5F75ZB/dvqffndPzQEQHY+OP4kVx3RkiXy3IF3wiITdFV6sdBADBZuTIBCTIBKWtntcwWAoA1l+UKvhEQG1vOhW/e9uGj6n2rA/u2BGDj4qeXdfqD14Q0uSxX8I2A2BRdpX4cBACTlSsTkCATkLJ2VstsIQBYc1mu4BsBsbHlXLg7XJYr+EYA9noxvK4Ln7wnpMdluYJvBMSm6Cr14yAAmKxcmYAEmYCUtbNaZgsBwJrLcgXfCIiNLefC3XP62AmdL84KwF5FV6kfByEtLssVfCMgNkVXqR8HAcBk5coEJMgEpKyd1TJbCADWXJYr+EZAbGw5F+6uN556RS8/cVIANm7d2ZXrzmjn+lUhHS7LFXwjIDZFV6kfBwHAZOXKBCTIBKSsndUyWwgA1lyWK/hGQGxsORfuvnef+bX8Y98XgI0rN67JdaVu3t4V0uCyXME3AmJTdJX6cRAATFauTECCTEDK2lkts4UAYM1luYJvBMTGlnPh7ju4f0u9P6fjh44IwMYfx4/kujNCGlyWK/hGQGyKrlI/DgKAycqVCUiQCUhZO6tlthAArLksV/CNgNjYci7cG48+8m3tnLyoA/u2BGDj4qeXdfqD14SHn8tyBd8IiE3RVerHQQAwWbkyAQkyASlrZ7XMFgKANZflCr4REBtbzoV7Z/vwUX30/EUB2OvF8LoufPKe8HBzWa7gGwGxKbpK/TgIACYrVyYgQSYgZe2sltlCALDmslzBNwJiY8u5cG+dPnZC54uzArBX0VXqx0F4eLksV/CNgNgUXaV+HAQAk5UrE5AgE5CydlbLbCEAWHNZruAbAbGx5Vy499546hW9/MRJAdi4dWdXrjujnetXhYeTy3IF3wiITdFV6sdBADBZuTIBCTIBKWtntcwWAoA1l+UKvhEQG1vOhfvj3Wd+Lf/Y9wVg48qNa3JdqZu3d4WHj8tyBd8IiE3RVerHQQAwWbkyAQkyASlrZ7XMFgKANZflCr4REBtbzoX74+D+LfX+nI4fOiIAG38cP5LrzggPH5flCr4REJuiq9SPgwBgsnJlAhJkAlLWzmqZLQQAay7LFXwjIDa2nAv3z6OPfFs7Jy/qwL4tAdi4+Ollnf7gNeHh4rJcwTcCYlN0lfpxEABMVq5MQIJMQMraWS2zhQBgzWW5gm8ExMaWc+H+2j58VB89f1EA9noxvK4Ln7wnPDxcliv4RkBsiq5SPw4CgMnKlQlIkAlIWTurZbYQAKy5LFfwjYDY2HIu3H+nj53Q+eKsAOxVdJX6cRAeDi7LFXwjIDZFV6kfBwHAZOXKBCTIBKSsndUyWwgA1lyWK/hGQGxsORfi8MZTr+jlJ04KwMatO7ty3RntXL8qPPhcliv4RkBsiq5SP01eV3MAACAASURBVA4CgMnKlQlIkAlIWTurZbYQAKy5LFfwjYDY2HIuxOPdZ34t/9j3BWDjyo1rcl2pm7d3hQeby3IF3wiITdFV6sdBADBZuTIBCTIBKWtntcwWAoA1l+UKvhEQG1vOhXgc3L+l3p/T8UNHBGDjyo1r2r70gvBgc1mu4BsBsSm6Sv04CAAmK1cmIEEmIGXtrJbZQgCw5rJcwTcCYmPLuRCXRx/5tnZOXtSBfVsCsHHx08s6/cFrwoPLZbmCbwTEpugq9eMgAJisXJmABJmAlLWzWmYLAcCay3IF3wiIjS3nQny2Dx/VR89fFIC9fvbhm3rj498JDyaX5Qq+ERCboqvUj4MAYLJyZQISZAJS1s5qmS0EAGsuyxV8IyA2tpwLcTp97ITOF2cFYK8fvf8LvfvZn4QHj8tyBd8IiE3RVerHQQAwWbkyAQkyASlrZ7XMFgKANZflCr4REBtbzoV41d97SYvvviQAG7fu7Mp1Z7Rz/arwYHFZruAbAbEpukr9OAgAJitXJiBBJiBl7ayW2UIAsOayXME3AmJjy7kQtwtPv6pTjz8rABt/++If2n7nBd28vSs8OFyWK/hGQGyKrlI/DgKAycqVCUiQCUhZO6tlthAArLksV/CNgNjYci7E7eD+LfX+nI4fOiIAG1duXNP2pReEB4fLcgXfCIhN0VXqx0EAMFm5MgEJMgEpa2e1zBYCgDWX5Qq+ERAbW86F+B3cv6XPf/p7Hdi3JQAbFz+9rNMfvCY8GFyWK/hGQGyKrlI/DgKAycqVCUiQCUhZO6tlthAArLksV/CNgNjYci48GLYPH1XvWx3YtyUAGz/78E298fHvhPi5LFfwjYDYFF2lfhwEAJOVKxOQIBOQsnZWy2whAFhzWa7gGwGxseVceHCcPnZC54uzArDXj97/hd797E9C3FyWK/hGQGyKrlI/DgKAycqVCUiQCUhZO6tlthAArLksV/CNgNjYci48WOrvvaTFd18SgI1bd3blujPauX5ViJfLcgXfCIhN0VXqx0EAMFm5MgEJMgEpa2e1zBYCgDWX5Qq+ERAbW86FB8+Fp1/VqcefFYCNv33xD22/84Ju3t4V4uSyXME3AmJTdJX6cRAATFauTECCTEDK2lkts4UAYM1luYJvBMTGlnPhwXNw/5Z6f07HDx0RgI0rN65p+9ILQpxcliv4RkBsiq5SPw4CgMnKlQlIkAlIWTurZbYQAKy5LFfwjYDY2HIuPJgO7t/S5z/9vQ7s2xKAjYufXtbpD14T4uOyXME3AmJTdJX6cRAATFauTECCTEDK2lkts4UAYM1luYJvBMTGlnPhwbV9+Kh63+rAvi0B2PjZh2/qjY9/J8TFZbmCbwTEpugq9eMgAJisXJmABJmAlLWzWmYLAcCay3IF3wiIjS3nwoPt9LETOl+cFYC9fvT+L/TuZ38S4uGyXME3AmJTdJX6cRAATFauTECCTEDK2lkts4UAYM1luYJvBMTGlnPhwVd/7yUtvvuSAGzcurMr153RzvWrQhxcliv4RkBsiq5SPw4CgMnKlQlIkAlIWTurZbYQAKy5LFfwjYDY2HIuPBwuPP2qTj3+rABs/O2Lf2j7nRd08/aucP+5LFfwjYDYFF2lfhwEAJOVKxOQIBOQsnZWy2whAFhzWa7gGwGxseVceDgc3L+l3p/T8UNHBGDjyo1rcl2pm7d3hfvLZbmCbwTEpugq9eMgAJisXJmABJmAlLWzWmYLAcCay3IF3wiIjS3nwsPj4P4tff7T3+vAvi0B2Lj46WWd/uA14f5yWa7gGwGxKbpK/TgIACYrVyYgQSYgZe2sltlCALDmslzBNwJiY8u58HDZPnxUvW91YN+WAGz88q9vqf7LW8L947JcwTcCYlN0lfpxEABMVq5MQIJMQMraWS2zhQBgzWW5gm8ExMaWc+Hhc/rYCZ0vzgrAXi+G13Xhk/eE+8NluYJvBMSm6Cr14yAAmKxcmYAEmYCUtbNaZgsBwJrLcgXfCIiNLefCw+mVJ36i3zz1sgBs3LqzK9ed0c71q8K957JcwTcCYlN0lfpxEABMVq5MQIJMQMraWS2zhQBgzWW5gm8ExMaWc+HhdeHpV3Xq8WcFYOPWnV09+tsf6+btXeHeclmu4BsBsSm6Sv04CAAmK1cmIEEmIGXtrJbZQgCw5rJcwTcCYmPLufBw2zn5to4fOiIAG1duXJPrSt28vSvcOy7LFXwjIDZFV6kfBwHAZOXKBCTIBKSsndUyWwgA1lyWK/hGQGxsORcebgf3b2nn+bf1nUe+JQAbFz+9rNMfvCbcOy7LFXwjIDZFV6kfBwHAZOXKBCTIBKSsndUyWwgA1lyWK/hGQGxsORceftuHj6r3rQ7s2xKAjV/+9S3Vf3lLuDdcliv4RkBsiq5SPw4CgMnKlQlIkAlIWTurZbYQAKy5LFfwjYDY2HIupOG5x36gPzzzKwHY68Xwui588p5w97ksV/CNgNgUXaV+HAQAk5UrE5AgE5CydlbLbCEAWHNZruAbAbGx5VxIxytP/ES/eeplAdi4dWdXrjujnetXhbvLZbmCbwTEpugq9eMgAJisXJmABJmAlLWzWmYLAcCay3IF3wiIjS3nQlouPP2qTj3+rABs3Lqzq0d/+2PdvL0r3D0uyxV8IyA2RVepHwcBwGTlygQkyASkrJ3VMlsIANZcliv4RkBsbDkX0rNz8m0dP3READau3Lgm15W6eXtXuDtcliv4RkBsiq5SPw4CgMnKlQlIkAlIWTurZbYQAKy5LFfwjYDY2HIupOfg/i3tPP+2vvPItwRg4+Knl3X6g9eEu8NluYJvBMSm6Cr14yAAmKxcmYAEmYCUtbNaZgsBwJrLcgXfCIiNLedCmrYPH1XvWx3YtyUAG7/861uq//KW8M1zWa7gGwGxKbpK/TgIACYrVyYgQSYgZe2sltlCALDmslzBNwJiY8u5kK7nHvuB/vDMrwRgrxfD67rwyXvCN8tluYJvBMSm6Cr14yAAmKxcmYAEmYCUtbNaZgsBwJrLcgXfCIiNLedC2l554if6zVMvC8DGrTu7ct0Z7Vy/KnxzXJYr+EZAbIquUj8OAoDJypUJSJAJSFk7q2W2EACsuSxX8I2A2NhyLuDC06/q1OPPCsDGrTu7evS3P9bN27vCN8NluYJvBMSm6Cr14yAAmKxcmYAEmYCUtbNaZgsBwJrLcgXfCIiNLecC/svOybd1/NARAdi4cuOaXFfq5u1d4etzWa7gGwGxKbpK/TgIACYrVyYgQSYgZe2sltlCALDmslzBNwJiY8u5gP9ycP+Wdp5/W9955FsCsNF99mc99/7Pha/PZbmCbwTEpugq9eMgAJisXJmABJmAlLWzWmYLAcCay3IF3wiIjS3nAv7H9uGj6n2rA/u2BGDjzY8v6ZUP3xC+HpflCr4REJuiq9SPgwBgsnJlAhJkAlLWzmqZLQQAay7LFXwjIDa2nAv435577Af6wzO/EoC9Xgyv68In7wnTuSxX8I2A2BRdpX4cBACTlSsTkCATkLJ2VstsIQBYc1mu4BsBsbHlXMD/dfrYCZ0vzgrAXk++c0o7168K07gsV/CNgNgUXaV+HAQAk5UrE5AgE5CydlbLbCEAWHNZruAbAbGx5VzAP3Ph6Vd16vFnBWDj1p1dbV86pc+/+Lvw1bksV/CNgNgUXaV+HAQAk5UrE5AgE5CydlbLbCEAWHNZruAbAbGx5VzAv9L7Vj/MnhSAjSs3rsl1pW7e3hW+GpflCr4REJuiq9SPgwBgsnJlAhJkAlLWzmqZLQQAay7LFXwjIDa2nAv4Vw7u31Lvz+n4oSMCsNF99mc99/7Pha/GZbmCbwTEpugq9eMgAJisXJmABJmAlLWzWmYLAcCay3IF3wiIjS3nAv6d7cNH1ftWB/ZtCcDGmx9f0isfviF8eS7LFXwjIDZFV6kfBwHAZOXKBCTIBKSsndUyWwgA1lyWK/hGQGxsORfwn7gsV/CNAOz1YnhdFz55T/hyXJYr+EZAbIquUj8OAoDJypUJSJAJSFk7q2W2EACsuSxX8I2A2NhyLuDLOH3shM4XZwVgryffOaWd61eF/8xluYJvBMSm6Cr14yAAmKxcmYAEmYCUtbNaZgsBwJrLcgXfCIiNLecCvqwLT7+qU48/KwAbt+7savvSKX3+xd+Ff89luYJvBMSm6Cr14yAAmKxcmYAEmYCUtbNaZgsBwJrLcgXfCIiNLecCvoret/ph9qQAbFy5cU2uK3Xz9q7wr7ksV/CNgNgUXaV+HAQAk5UrE5AgE5CydlbLbCEAWHNZruAbAbGx5VzAV3Fw/5Z6f07HDx0RgI3usz/rufd/LvxrLssVfCMgNkVXqR8HAcBk5coEJMgEpKyd1TJbCADWXJYr+EZAbGw5F/BVbR8+qt63OrBvSwA23vz4kl758A3hn3NZruAbAbEpukr9OAgAJitXJiBBJiBl7ayW2UIAsOayXME3AmJjy7mAKVyWK/hGAPZ6MbyuC5+8J/z/XJYr+EZAbIquUj8OAoDJypUJSJAJSFk7q2W2EACsuSxX8I2A2NhyLmCq08dO6HxxVgD2evKdU9q5flXYy2W5gm8ExKboKvXjIACYrFyZgASZgJS1s1pmCwHAmstyBd8IiI0t5wK+jgtPv6pTjz8rABu37uxq+9Ipff7F34UNl+UKvhEQm6Kr1I+DAGCycmUCEmQCUtbOapktBABrLssVfCMgNracC/i6et/qh9mTArBx5cY1ua7Uzdu7wn9zWa7gGwGxKbpK/TgIACYrVyYgQSYgZe2sltlCALDmslzBNwJiY8u5gK/r4P4t9f6cjh86IgAbfxw/kuvOCP/NZbmCbwTEpugq9eMgAJisXJmABJmAlLWzWmYLAcCay3IF3wiIjS3nAr4J24ePqvetDuzbEoCNi59e1ukPXhMkl+UKvhEQm6Kr1I+DAGCycmUCEmQCUtbOapktBABrLssVfCMgNracC/imuCxX8I0A7PVieF0XPnlPqXNZruAbAbEpukr9OAgAJitXJiBBJiBl7ayW2UIAsOayXME3AmJjy7mAb9LpYyd0vjgrAHsVXaV+HJQyl+UKvhEQm6Kr1I+DAGCycmUCEmQCUtbOapktBABrLssVfCMgNracC/imvfHUK3r5iZMCsHHrzq5cd0Y7168qVS7LFXwjIDZFV6kfBwHAZOXKBCTIBKSsndUyWwgA1lyWK/hGQGxsORdwN7z7zK/lH/u+AGxcuXFNrit18/auUuSyXME3AmJTdJX6cRAATFauTECCTEDK2lkts4UAYM1luYJvBMTGlnMBd8PB/Vvq/TkdP3READb+OH4k151RilyWK/hGQGyKrlI/DgKAycqVCUiQCUhZO6tlthAArLksV/CNgNjYci7gbnn0kW9r5+RFHdi3JQAbFz+9rNMfvKbUuCxX8I2A2BRdpX4cBACTlSsTkCATkLJ2VstsIQBYc1mu4BsBsbHlXMDdtH34qD56/qIA7PVieF0XPnlPKXFZruAbAbEpukr9OAgAJitXJiBBJiBl7ayW2UIAsOayXME3AmJjy7mAu+30sRM6X5wVgL2KrlI/DkqFy3IF3wiITdFV6sdBADBZuTIBCTIBKWtntcwWAoA1l+UKvhEQG1vOBdwLbzz1il5+4qQAbNy6syvXndHO9atKgctyBd8IiE3RVerHQQAwWbkyAQkyASlrZ7XMFgKANZflCr4REBtbzgXcK+8+82v5x74vABtXblyT60rdvL2rh53LcgXfCIhN0VXqx0EAMFm5MgEJMgEpa2e1zBYCgDWX5Qq+ERAbW84F3CsH92+p9+d0/NARAdj44/iRXHdGDzuX5Qq+ERCboqvUj4MAYLJyZQISZAJS1s5qmS0EAGsuyxV8IyA2tpwLuJcefeTb2jl5UQf2bQnAxsVPL+v0B6/pYeayXME3AmJTdJX6cRAATFauTECCTEDK2lkts4UAYM1luYJvBMTGlnMB99r24aP66PmLArDXi+F1XfjkPT2sXJYr+EZAbIquUj8OAoDJypUJSJAJSFk7q2W2EACsuSxX8I2A2NhyLuB+OH3shM4XZwVgr6Kr1I+DHkYuyxV8IyA2RVepHwcBwGTlygQkyASkrJ3VMlsIANZcliv4RkBsbDkXcL+88dQrevmJkwKwcevOrlx3RjvXr+ph47JcwTcCYlN0lfpxEABMVq5MQIJMQMraWS2zhQBgzWW5gm8ExMaWcwH307vP/Fr+se8LwMaVG9fkulI3b+/qYeKyXME3AmJTdJX6cRAATFauTECCTEDK2lkts4UAYM1luYJvBMTGlnMB99PB/Vvq/TkdP3READb+OH4k153Rw8RluYJvBMSm6Cr14yAAmKxcmYAEmYCUtbNaZgsBwJrLcgXfCIiNLecC7rdHH/m2dk5e1IF9WwKwcfHTyzr9wWt6WLgsV/CNgNgUXaV+HAQAk5UrE5AgE5CydlbLbCEAWHNZruAbAbGx5VxADLYPH9VHz18UgL1+9uGbeuPj3+lh4LJcwTcCYlN0lfpxEABMVq5MQIJMQMraWS2zhQBgzWW5gm8ExMaWcwGxOH3shM4XZwVgrx+9/wu9+9mf9KBzWa7gGwGxKbpK/TgIACYrVyYgQSYgZe2sltlCALDmslzBNwJiY8u5gJi88dQrevmJkwKwcevOrlx3RjvXr+pB5rJcwTcCYlN0lfpxEABMVq5MQIJMQMraWS2zhQBgzWW5gm8ExMaWcwGxufD0qzr1+LMCsPG3L/6h7Xde0M3bu3pQuSxX8I2A2BRdpX4cBACTlSsTkCATkLJ2VstsIQBYc1mu4BsBsbHlXEBsDu7fUu/P6fihIwKwceXGNW1fekEPKpflCr4REJuiq9SPgwBgsnJlAhJkAlLWzmqZLQQAay7LFXwjIDa2nAuI0cH9W/r8p7/XgX1bArBx8dPLOv3Ba3oQuSxX8I2A2BRdpX4cBACTlSsTkCATkLJ2VstsIQBYc1mu4BsBsbHlXECstg8fVe9bHdi3JQAbP/vwTb3x8e/0oHFZruAbAbEpukr9OAgAJitXJiBBJiBl7ayW2UIAsOayXME3AmJjy7mAmJ0+dkLni7MCsNeP3v+F3v3sT3qQuCxX8I2A2BRdpX4cBACTlSsTkCATkLJ2VstsIQBYc1mu4BsBsbHlXEDs6u+9pMV3XxKAjVt3duW6M9q5flUPCpflCr4REJuiq9SPgwBgsnJlAhJkAlLWzmqZLQQAay7LFXwjIDa2nAt4EFx4+lWdevxZAdj42xf/0PY7L+jm7V09CFyWK/hGQGyKrlI/DgKAycqVCUiQCUhZO6tlthAArLksV/CNgNjYci7gQXBw/5Z6f07HDx0RgI0rN65p+9ILehC4LFfwjYDYFF2lfhwEAJOVKxOQIBOQsnZWy2whAFhzWa7gGwGxseVcwIPi4P4tff7T3+vAvi0B2Lj46WWd/uA1xc5luYJvBMSm6Cr14yAAmKxcmYAEmYCUtbNaZgsBwJrLcgXfCIiNLecCHiTbh4+q960O7NsSgI2fffim3vj4d4qZy3IF3wiITdFV6sdBADBZuTIBCTIBKWtntcwWAoA1l+UKvhEQG1vOBTxoTh87ofPFWQHY60fv/0LvfvYnxcpluYJvBMSm6Cr14yAAmKxcmYAEmYCUtbNaZgsBwJrLcgXfCIiNLecCHkT1917S4rsvCcDGrTu7ct0Z7Vy/qhi5LFfwjYDYFF2lfhwEAJOVKxOQIBOQsnZWy2whAFhzWa7gGwGxseVcwIPqwtOv6tTjzwrAxt+++Ie233lBN2/vKjYuyxV8IyA2RVepHwcBwGTlygQkyASkrJ3VMlsIANZcliv4RkBsbDkX8KA6uH9LvT+n44eOCMDGlRvXtH3pBcXGZbmCbwTEpugq9eMgAJisXJmABJmAlLWzWmYLAcCay3IF3wiIjS3nAh5kB/dv6fOf/l4H9m0JwMbFTy/r9AevKSYuyxV8IyA2RVepHwcBwGTlygQkyASkrJ3VMlsIANZcliv4RkBsbDkX8KDbPnxUvW91YN+WAGz88q9vqf7LW4qFy3IF3wiITdFV6sdBADBZuTIBCTIBKWtntcwWAoA1l+UKvhEQG1vOBTwMTh87ofPFWQHY68Xwui588p5i4LJcwTcCYlN0lfpxEABMVq5MQIJMQMraWS2zhQBgzWW5gm8ExMaWcwEPi/p7L2nx3ZcEYOPWnV257ox2rl/V/eayXME3AmJTdJX6cRAATFauTECCTEDK2lkts4UAYM1luYJvBMTGlnMBD5MLT7+qU48/KwAbt+7s6tHf/lg3b+/qfnJZruAbAbEpukr9OAgAJitXJiBBJiBl7ayW2UIAsOayXME3AmJjy7mAh83Oybd1/NARAdi4cuOaXFfq5u1d3S8uyxV8IyA2RVepHwcBwGTlygQkyASkrJ3VMlsIANZcliv4RkBsbDkX8LA5uH9LO8+/re888i0B2Lj46WWd/uA13S8uyxV8IyA2RVepHwcBwGTlygQkyASkrJ3VMlsIANZcliv4RkBsbDkX8DDaPnxUvW91YN+WAGz88q9vqf7LW7ofXJYr+EZAbIquUj8OAoDJypUJSJAJSFk7q2W2EACsuSxX8I2A2NhyLuBh9dxjP9AfnvmVAOz1YnhdFz55T/eay3IF3wiITdFV6sdBADBZuTIBCTIBKWtntcwWAoA1l+UKvhEQG1vOBTzMXnniJ/rNUy8LwMatO7ty3RntXL+qe8lluYJvBMSm6Cr14yAAmKxcmYAEmYCUtbNaZgsBwJrLcgXfCIiNLecCHnYXnn5Vpx5/VgA2bt3Z1aO//bFu3t7VveKyXME3AmJTdJX6cRAATFauTECCTEDK2lkts4UAYM1luYJvBMTGlnMBKdg5+baOHzoiABtXblyT60rdvL2re8FluYJvBMSm6Cr14yAAmKxcmYAEmYCUtbNaZgsBwJrLcgXfCIiNLecCUnBw/5Z2nn9b33nkWwKwcfHTyzr9wWu6F1yWK/hGQGyKrlI/DgKAycqVCUiQCUhZO6tlthAArLksV/CNgNjYci4gFduHj6r3rQ7s2xKAjV/+9S3Vf3lLd5vLcgXfCIhN0VXqx0EAMFm5MgEJMgEpa2e1zBYCgDWX5Qq+ERAbW84FpOS5x36gPzzzKwHY68Xwui588p7uJpflCr4REJuiq9SPgwBgsnJlAhJkAlLWzmqZLQQAay7LFXwjIDa2nAtIzStP/ES/eeplAdi4dWdXrjujnetXdbe4LFfwjYDYFF2lfhwEAJOVKxOQIBOQsnZWy2whAFhzWa7gGwGxseVcQIouPP2qTj3+rABs3Lqzq0d/+2PdvL2ru8FluYJvBMSm6Cr14yAAmKxcmYAEmYCUtbNaZgsBwJrLcgXfCIiNLecCUrVz8m0dP3READau3Lgm15W6eXtX3zSX5Qq+ERCboqvUj4MAYLJyZQISZAJS1s5qmS0EAGsuyxV8IyA2tpwLSNXB/Vvaef5tfeeRbwnAxsVPL+v0B6/pm+ayXME3AmJTdJX6cRAATFauTECCTEDK2lkts4UAYM1luYJvBMTGlnMBKds+fFS9b3Vg35YAbLz58SW98uEb+ia5LFfwjYDYFF2lfhwEAJOVKxOQIBOQsnZWy2whAFhzWa7gGwGxseVcQOqee+wH+sMzvxKAvV4Mr+vCJ+/pm+KyXME3AmJTdJX6cRAATFauTECCTEDK2lkts4UAYM1luYJvBMTGlnMBkF554if6zVMvC8BeT75zSjvXr+qb4LJcwTcCYlN0lfpxEABMVq5MQIJMQMraWS2zhQBgzWW5gm8ExMaWcwH4bxeeflWnHn9WADZu3dnV9qVT+vyLv+vrclmu4BsBsSm6Sv04CAAmK1cmIEEmIGXtrJbZQgCw5rJcwTcCYmPLuQBs9L7VD7MnBWDjyo1rcl2pm7d39XW4LFfwjYDYFF2lfhwEAJOVKxOQIBOQsnZWy2whAFhzWa7gGwGxseVcADYO7t9S78/p+KEjArDRffZnPff+z/V1uCxX8I2A2BRdpX4cBACTlSsTkCATkLJ2VstsIQBYc1mu4BsBsbHlXAD22j58VL1vdWDflgBsvPnxJb3y4RuaymW5gm8ExKboKvXjIACYrFyZgASZgJS1s1pmCwHAmstyBd8IiI0t5wLw/3NZruAbAdjrxfC6LnzynqZwWa7gGwGxKbpK/TgIACYrVyYgQSYgZe2sltlCALDmslzBNwJiY8u5APxzp4+d0PnirADs9eQ7p7Rz/aq+KpflCr4REJuiq9SPgwBgsnJlAhJkAlLWzmqZLQQAay7LFXwjIDa2nAvAv3bh6Vd16vFnBWDj1p1dbV86pc+/+Lu+CpflCr4REJuiq9SPgwBgsnJlAhJkAlLWzmqZLQQAay7LFXwjIDa2nAvAv9f7Vj/MnhSAjSs3rsl1pW7e3tWX5bJcwTcCYlN0lfpxEABMVq5MQIJMQMraWS2zhQBgzWW5gm8ExMaWcwH49w7u31Lvz+n4oSMCsNF99mc99/7P9WW5LFfwjYDYFF2lfhwEAJOVKxOQIBOQsnZWy2whAFhzWa7gGwGxseVcAP6z7cNH1ftWB/ZtCcDGmx9f0isfvqEvw2W5gm8ExKboKvXjIACYrFyZgASZgJS1s1pmCwHAmstyBd8IiI0t5wLw5bgsV/CNAOz1YnhdFz55T/+Jy3IF3wiITdFV6sdBADBZuTIBCTIBKWtntcwWAoA1l+UKvhEQG1vOBeDLO33shM4XZwVgryffOaWd61f177gsV/CNgNgUXaV+HAQAk5UrE5AgE5CydlbLbCEAWHNZruAbAbGx5VwAvpoLT7+qU48/KwAbt+7savvSKX3+xd/1r7gsV/CNgNgUXaV+HAQAk5UrE5AgE5CydlbLbCEAWHNZruAbAbGx5VwAvrret/ph9qQAbFy5cU2uK3Xz9q7+/QqrJAAAIABJREFUGZflCr4REJuiq9SPgwBgsnJlAhJkAlLWzmqZLQQAay7LFXwjIDa2nAvAV3dw/5Z6f07HDx0RgI3usz/rufd/rn/GZbmCbwTEpugq9eMgAJisXJmABJmAlLWzWmYLAcCay3IF3wiIjS3nAjDN9uGj6n2rA/u2BGDj4qeXdfqD1/R/uSxX8I2A2BRdpX4cBACTlSsTkCATkLJ2VstsIQBYc1mu4BsBsbHlXACmc1mu4BsB2OvF8LoufPKe/jeX5Qq+ERCboqvUj4MAYLJyZQISZAJS1s5qmS0EAGsuyxV8IyA2tpwLwNdz+tgJnS/OCsBeRVepHwf9D5flCr4REJuiq9SPgwBgsnJlAhJkAlLWzmqZLQQAay7LFXwjIDa2nAvA13fh6Vd16vFnBWDj1p1due6Mdq5f1X9xWa7gGwGxKbpK/TgIACYrVyYgQSYgZe2sltlCALDmslzBNwJiY8u5AHwz3n3m1/KPfV8ANq7cuCbXlbp5e1cuyxV8IyA2RVepHwcBwGTlygQkyASkrJ3VMlsIANZcliv4RkBsbDkXgG/Gwf1b6v05HT90RAA2/jh+JNedkctyBd8IiE3RVerHQQAwWbkyAQkyASlrZ7XMFgKANZflCr4REBtbzgXgm/PoI9/WzsmLOrBvSwA2Ln56WRc+uazgGwGxKbpK/TgIACYrVyYgQSYgZe2sltlCALDmslzBNwJiY8u5AHyztg8f1UfPXxSAvS5+elmnHn9WQGyKrlI/DgKAycqVCUiQCUhZO6tlthAArLksV/CNgNjYci4A37zTx07ofHFWAID4FV2lfhwEAJOVKxOQIBOQsnZWy2whAFhzWa7gGwGxseVcAO6ON556RS8/cVIAgLgVXaV+HAQAk5UrE5AgE5CydlbLbCEAWHNZruAbAbGx5VwA7p53n/m1/GPfFwAgXkVXqR8HAcBk5coEJMgEpKyd1TJbCADWXJYr+EZAbGw5F4C75+D+LfX+nI4fOiIAQJyKrlI/DgKAycqVCUiQCUhZO6tlthAArLksV/CNgNjYci4Ad9ejj3xbOycv6sC+LQEA4lN0lfpxEABMVq5MQIJMQMraWS2zhQBgzWW5gm8ExMaWcwG4+7YPH9VHz18UACA+RVepHwcBwGTlygQkyASkrJ3VMlsIANZcliv4RkBsbDkXgHvj9LETOl+cFQAgLkVXqR8HAcBk5coEJMgEpKyd1TJbCADWXJYr+EZAbGw5F4B7542nXtHLT5wUACAeRVepHwcBwGTlygQkyASkrJ3VMlsIANZcliv4RkBsbDkXgHvr3Wd+Lf/Y9wUAiEPRVerHQQAwWbkyAQkyASlrZ7XMFgKANZflCr4REBtbzgXg3jq4f0u9P6fjh44IAHD/FV2lfhwEAJOVKxOQIBOQsnZWy2whAFhzWa7gGwGxseVcAO69Rx/5tnZOXtSBfVsCANxfRVepHwcBwGTlygQkyASkrJ3VMlsIANZcliv4RkBsbDkXgPtj+/BRffT8RQEA7q+iq9SPgwBgsnJlAhJkAlLWzmqZLQQAay7LFXwjIDa2nAvA/XP62An9P/bgJ7aP+s/z/Ou9u7Iv38he2QeoORBLtpxT7JTIqrqyhHIOrYxzqDQ/kVyin/0bz6UrkeLf6ddS0qpCw0+CE0aqSp2iOIgLoIb4AIvmQH2Bpau1IMfkRBSkhIvhEDREsbQi0ojd0dRPTdPwI7j8p+zP8/G4NnNJAIDdM7NyQf31VQHApiW1CXCQCXBZEWQySwUAjcjzVcW5gK6xMhSA3bV0bFEXD58RAGB3zKxcUH99VQCwaUltAhxkAlxWBJnMUgFAI/J8VXEuoGusDAVg9y2fuKy5yVkBAHbezMoF9ddXBQCbltQmwEEmwGVFkMksFQA0Is9XFecCusbKUAB23/BgT/34iqZGxgUA2FkzKxfUX18VAGxaUpsAB5kAlxVBJrNUANCIPF9VnAvoGitDAeiG4cGe7p17W0MDPQEAds7MygX111cFAJuW1CbAQSbAZUWQySwVADQiz1cV5wK6xspQALpjenRC/bjQ0EBPAICdMbNyQf31VQHApiW1CXCQCXBZEWQySwUAjcjzVcW5gK6xMhSAbpk/dErXZi4JALAzZlYuqL++KgDYtKQ2AQ4yAS4rgkxmqQCgEXm+qjgX0DVWhgLQPdnRBaVPLwgAsP1mVi6ov74qANi0pDYBDjIBLiuCTGapAKAReb6qOBfQNVaGAtBNyycua25yVgCA7TWzckH99VUBwKYltQlwkAlwWRFkMksFAI3I81XFuYCusTIUgG4aHuypH1/R1Mi4AADbZ2blgvrrqwKATUtqE+AgE+CyIshklgoAGpHnq4pzAV1jZSgA3TU82NO9c29raKAnAMD2mFm5oP76qgBg05LaBDjIBLisCDKZpQKARuT5quJcQNdYGQpAt02PTqgfFxoa6AkAsPVmVi6ov74qANi0pDYBDjIBLiuCTGapAKAReb6qOBfQNVaGAtB984dO6drMJQEAtt7MygX111cFAJuW1CbAQSbAZUWQySwVADQiz1cV5wK6xspQAPaG7OiC0qcXBADYWjMrF9RfXxUAbFpSmwAHmQCXFUEms1QA0Ig8X1WcC+gaK0MB2DuWT1zW3OSsAABbZ2blgvrrqwKATUtqE+AgE+CyIshklgoAGpHnq4pzAV1jZSgAe8fwYE/9+IqmRsYFANgaMysX1F9fFQBsWlKbAAeZAJcVQSazVADQiDxfVZwL6BorQwHYW4YHe7p37m0NDfQEAGhvZuWC+uurAoBNS2oT4CAT4LIiyGSWCgAakeerinMBXWNlKAB7z/TohPpxoaGBngAA7cysXFB/fVUAsGlJbQIcZAJcVgSZzFIBQCPyfFVxLqBrrAwFYG+aP3RK12YuCQDQzszKBfXXVwUAm5bUJsBBJsBlRZDJLBUANCLPVxXnArrGylAA9q7s6ILSpxcEANi8mZUL6q+vCgA2LalNgINMgMuKIJNZKgBoRJ6vKs4FdI2VoQDsbcsnLmtuclYAgM2ZWbmg/vqqAGDTktoEOMgEuKwIMpmlAoBG5Pmq4lxA11gZCsDet3bmNU2NjAsA8NvNrFxQf31VALBpSW0CHGQCXFYEmcxSAUAj8nxVcS6ga6wMBWDvGx7sae351/TUgScEAPhtZlYuqL++KgDYtKQ2AQ4yAS4rgkxmqQCgEXm+qjgX0DVWhgKwP0yPTqgfFxoa6AkA8PhmVi6ov74qANi0pDYBDjIBLiuCTGapAKAReb6qOBfQNVaGArB/nB47rndOviQAwOObWbmg/vqqAGDTktoEOMgEuKwIMpmlAoBG5Pmq4lxA11gZCsD+snj4rF45dlEAgMczs3JB/fVVAcCmJbUJcJAJcFkRZDJLBQCNyPNVxbmArrEyFID9Z/nEZc1NzgoA8OtmVi6ov74qANi0pDYBDjIBLiuCTGapAKAReb6qOBfQNVaGArA/rZ15TVMj4wIA/HUzKxfUX18VAGxaUpsAB5kAlxVBJrNUANCIPF9VnAvoGitDAdifhgd7Wnv+NT114AkBAH7ZzMoF9ddXBQCbltQmwEEmwGVFkMksFQA0Is9XFecCusbKUAD2r+nRCfXjQkMDPQEAft7MygX111cFAJuW1CbAQSbAZUWQySwVADQiz1cV5wK6xspQAPa302PH9c7JlwQA+HkzKxfUX18VAGxaUpsAB5kAlxVBJrNUANCIPF9VnAvoGitDAdj/Fg+f1SvHLgoA8O8deWtOa/fvCAA2LalNgINMgMuKIJNZKgBoRJ6vKs4FdI2VoQC4YfnEZc1NzgoA8G9ZGQoAWklqE+AgE+CyIshklgoAGpHnq4pzAV1jZSgA7lg785qmRsYFAPhXVoYCgFaS2gQ4yAS4rAgymaUCgEbk+ariXEDXWBkKgDuGB3tae/41PXXgCQEA/icrQwFAK0ltAhxkAlxWBJnMUgFAI/J8VXEuoGusDAXALdOjE+rHhYYGegIASFaGAoBWktoEOMgEuKwIMpmlAoBG5Pmq4lxA11gZCoB7To8d1zsnXxIAQLIyFAC0ktQmwEEmwGVFkMksFQA0Is9XFecCusbKUADctHj4rF45dlEA4DorQwFAK0ltAhxkAlxWBJnMUgFAI/J8VXEuoGusDAXAXcsnLmtuclYA4DIrQwFAK0ltAhxkAlxWBJnMUgFAI/J8VXEuoGusDAXAbWtnXtPUyLgAwFVWhgKAVpLaBDjIBLisCDKZpQKARuT5quJcQNdYGQqA24YHe+rHVzQ1Mi4AcJGVoQCglaQ2AQ4yAS4rgkxmqQCgEXm+qjgX0DVWhgKA6dEJ9eNCQwM9AYBrrAwFAK0ktQlwkAlwWRFkMksFAI3I81XFuYCusTIUAPwPkeerinMBgGusDAUArSS1CXCQCXBZEWQySwUAjcjzVcW5gK6xMhQA/MX8oVO6NnNJAOASK0MBQCtJbQIcZAJcVgSZzFIBQCPyfFVxLqBrrAwFAD+2fOKy5iZnBQCusDIUALSS1CbAQSbAZUWQySwVADQiz1cV5wK6xspQAPBT/bjQs94RAYALrAwFAK0ktQlwkAlwWRFkMksFAI3I81XFuYCusTIUAPzU8GBP/fiKpkbGBQD7nZWhAKCVpDYBDjIBLiuCTGapAKAReb6qOBfQNVaGAoCfMz06oX5caGigJwDYz6wMBQCtJLUJcJAJcFkRZDJLBQCNyPNVxbmArrEyFAD8ksjzVcW5AGA/szIUALSS1CbAQSbAZUWQySwVADQiz1cV5wK6xspQAPDXzB86pWszlwQA+5WVoQCglaQ2AQ4yAS4rgkxmqQCgEXm+qjgX0DVWhgKAX7N84rLmJmcFAPuRlaEAoJWkNgEOMgEuK4JMZqkAoBF5vqo4F9A1VoYCgMfRjws96x0RAOw3VoYCgFaS2gQ4yAS4rAgymaUCgEbk+ariXEDXWBkKAB7H8GBP/fiKpkbGBQD7iZWhAKCVpDYBDjIBLiuCTGapAKAReb6qOBfQNVaGAoDHNT06oX5caGigJwDYL6wMBQCtJLUJcJAJcFkRZDJLBQCNyPNVxbmArrEyFAD8FpHnq4pzAcB+YWUoAGglqU2Ag0yAy4ogk1kqAGhEnq8qzgV0jZWhAOC3mj90StdmLgkA9gMrQwFAK0ltAhxkAlxWBJnMUgFAI/J8VXEuoGusDAUAm7F84rLmJmcFAHudlaEAoJWkNgEOMgEuK4JMZqkAoBF5vqo4F9A1VoYCgM3qx4We9Y4IAPYyK0MBQCtJbQIcZAJcVgSZzFIBQCPyfFVxLqBrrAwFAJs1PNhTP76iqZFxAcBeZWUoAGglqU2Ag0yAy4ogk1kqAGhEnq8qzgV0jZWhAKCNgwee1NqZ6xoa6AkA9iIrQwFAK0ltAhxkAlxWBJnMUgFAI/J8VXEuoGusDAUAbU2PTujm89cFAHuRlaEAoJWkNgEOMgEuK4JMZqkAoBF5vqo4F9A1VoYCgK0wf+iUrs1cEgDsNVaGAoBWktoEOMgEuKwIMpmlAoBG5Pmq4lxA11gZCgC2ytKxRV08fEYAsJdYGQoAWklqE+AgE+CyIshklgoAGpHnq4pzAV1jZSgA2Eo3Tr6seOwZAcBeYWUoAGglqU2Ag0yAy4ogk1kqAGhEnq8qzgV0jZWhAGArDQ/21I+vaGpkXACwF1gZCgBaSWoT4CAT4LIiyGSWCgAakeerinMBXWNlKADYagcPPKm1M9c1NNATAHSdlaEAoJWkNgEOMgEuK4JMZqkAoBF5vqo4F9A1VoYCgO0wPTqhm89fFwB0nZWhAKCVpDYBDjIBLiuCTGapAKAReb6qOBfQNVaGAoDtMn/olK7NXBIAdJmVoQCglaQ2AQ4yAS4rgkxmqQCgEXm+qjgX0DVWhgKA7bR0bFEXD58RAHSVlaEAoJWkNgEOMgEuK4JMZqkAoBF5vqo4F9A1VoYCgO124+TLiseeEQB0kZWhAKCVpDYBDjIBLiuCTGapAKAReb6qOBfQNVaGAoDtNjzYUz++oqmRcQFA11gZCgBaSWoT4CAT4LIiyGSWCgAakeerinMBXWNlKADYCQcPPKm1M9c1NNATAHSJlaEAoJWkNgEOMgEuK4JMZqkAoBF5vqo4F9A1VoYCgJ0yPTqhm89fFwB0iZWhAKCVpDYBDjIBLiuCTGapAKAReb6qOBfQNVaGAoCdNH/olK7NXBIAdIWVoQCglaQ2AQ4yAS4rgkxmqQCgEXm+qjgX0DVWhgKAnbZ0bFEXD58RAHSBlaEAoJWkNgEOMgEuK4JMZqkAoBF5vqo4F9A1VoYCgN1w4+TLiseeEQDsNitDAUArSW0CHGQCXFYEmcxSAUAj8nxVcS6ga6wMBQC7YXiwp358RVMj4wKA3WRlKABoJalNgINMgMuKIJNZKgBoRJ6vKs4FdI2VoQBgtwwP9nTv3NsaGugJAHaLlaEAoJWkNgEOMgEuK4JMZqkAoBF5vqo4F9A1VoYCgN00PTqhflxoaKAnANgNVoYCgFaS2gQ4yAS4rAgymaUCgEbk+ariXEDXWBkKAHbb/KFTujZzSQCwG6wMBQCtJLUJcJAJcFkRZDJLBQCNyPNVxbmArrEyFAB0QXZ0QenTCwKAnWZlKABoJalNgINMgMuKIJNZKgBoRJ6vKs4FdI2VoQCgK5ZPXNbc5KwAYCdZGQoAWklqE+AgE+CyIshklgoAGpHnq4pzAV1jZSgA6IrhwZ768RVNjYwLAHaKlaEAoJWkNgEOMgEuK4JMZqkAoBF5vqo4F9A1VoYCgC4ZHuzp3rm3NTTQEwDsBCtDAUArSW0CHGQCXFYEmcxSAUAj8nxVcS6ga6wMBQBdMz06oX5caGigJwDYblaGAoBWktoEOMgEuKwIMpmlAoBG5Pmq4lxA11gZCgC6aP7QKV2buSQA2G5WhgKAVpLaBDjIBLisCDKZpQKARuT5quJcQNdYGQoAuio7uqD06QUBwHayMhQAtJLUJsBBJsBlRZDJLBUANCLPVxXnArrGylAA0GXLJy5rbnJWALBdrAwFAK0ktQlwkAlwWRFkMksFAI3I81XFuYCusTIUAHTZ8GBP/fiKpkbGBQDbwcpQANBKUpsAB5kAlxVBJrNUANCIPF9VnAvoGitDAUDXDQ/2dO/c2xoa6AkAtpqVoQCglaQ2AQ4yAS4rgkxmqQCgEXm+qjgX0DVWhgKAvWB6dEL9uNDQQE8AsJWsDAUArSS1CXCQCXBZEWQySwUAjcjzVcW5gK6xMhQA7BXzh07p2swlAcBWsjIUALSS1CbAQSbAZUWQySwVADQiz1cV5wK6xspQALCXZEcXlD69IADYKlaGAoBWktoEOMgEuKwIMpmlAoBG5Pmq4lxA11gZCgD2muUTlzU3OSsA2ApWhgKAVpLaBDjIBLisCDKZpQKARuT5quJcQNdYGQoA9prhwZ768RVNjYwLANqyMhQAtJLUJsBBJsBlRZDJLBUANCLPVxXnArrGylAAsBcND/a09vxreurAEwKANqwMBQCtJLUJcJAJcFkRZDJLBQCNyPNVxbmArrEyFADsVdOjE+rHhYYGegKAzbIyFAC0ktQmwEEmwGVFkMksFQA0Is9XFecCusbKUACwl50eO653Tr4kANgsK0MBQCtJbQIcZAJcVgSZzFIBQCPyfFVxLqBrrAwFAHvd4uGzeuXYRQHAZlgZCgBaSWoT4CAT4LIiyGSWCgAakeerinMBXWNlKADYD5ZPXNbc5KwA4LeyMhQAtJLUJsBBJsBlRZDJLBUANCLPVxXnArrGylAAsF+snXlNUyPjAoDfwspQANBKUpsAB5kAlxVBJrNUANCIPF9VnAvoGitDAcB+MTzY09rzr+mpA08IAB6XlaEAoJWkNgEOMgEuK4JMZqkAoBF5vqo4F9A1VoYCgP1kenRC/bjQ0EBPAPA4rAwFAK0ktQlwkAlwWRFkMksFAI3I81XFuYCusTIUAOw3p8eO652TLwkAHoeVoQCglaQ2AQ4yAS4rgkxmqQCgEXm+qjgX0DVWhgKA/Wjx8Fm9cuyiAODXWBkKAFpJahPgIBPgsiLIZJYKABqR56uKcwFdY2UoANivlk9c1tzkrADgr7EyFAC0ktQmwEEmwGVFkMksFQA0Is9XFecCusbKUACwn62deU1TI+MCgF9iZSgAaCWpTYCDTIDLiiCTWSoAaESeryrOBXSNlaEAYD8bHuxp7fnX9NSBJwQAP8fKUADQSlKbAAeZAJcVQSazVADQiDxfVZwL6BorQwHAfjc9OqF+XGhooCcA+CkrQwFAK0ltAhxkAlxWBJnMUgFAI/J8VXEuoGusDAUALjg9dlzvnHxJAPBTVoYCgFaS2gQ4yAS4rAgymaUCgEbk+ariXEDXWBkKAFyxePisXjl2UQDwY1aGAoBWktoEOMgEuKwIMpmlAoBG5Pmq4lxA11gZCgBcsnzisuYmZwUAf2FlKABoJalNgINMgMuKIJNZKgBoRJ6vKs4FdI2VoQDANWtnXtPUyLgA4H+wMhQAtJLUJsBBJsBlRZDJLBUANCLPVxXnArrGylAA4JrhwZ768RVNjYwLAKwMBQCtJLUJcJAJcFkRZDJLBQCNyPNVxbmArrEyFAC4aHp0Qv240NBATwDcZmUoAGglqU2Ag0yAy4ogk1kqAGhEnq8qzgV0jZWhAMBVkeerinMBcJuVoQCglaQ2AQ4yAS4rgkxmqQCgEXm+qjgX0DVWhgIAl80fOqVrM5cEwF1WhgKAVpLaBDjIBLisCDKZpQKARuT5quJcQNdYGQoAXLd84rLmJmcFwE1WhgKAVpLaBDjIBLisCDKZpQKARuT5quJcQNdYGQoAIPXjQs96RwTAPVaGAoBWktoEOMgEuKwIMpmlAoBG5Pmq4lxA11gZCgAgDQ/21I+vaGpkXADcYmUoAGglqU2Ag0yAy4ogk1kqAGhEnq8qzgV0jZWhAAD/0/TohPpxoaGBngC4w8pQANBKUpsAB5kAlxVBJrNUANCIPF9VnAvoGitDAQD+VeT5quJcANxhZSgAaCWpTYCDTIDLiiCTWSoAaESeryrOBXSNlaEAAP/W/KFTujZzSQDcYGUoAGglqU2Ag0yAy4ogk1kqAGhEnq8qzgV0jZWhAAD/3vKJy5qbnBWA/c/KUADQSlKbAAeZAJcVQSazVADQiDxfVZwL6BorQwEAfl4/LvSsd0QA9jcrQwFAK0ltAhxkAlxWBJnMUgFAI/J8VXEuoGusDAUA+HnDgz314yuaGhkXgP3LylAA0EpSmwAHmQCXFUEms1QA0Ig8X1WcC+gaK0MBAH7Z9OiE+nGhoYGeAOxPVoYCgFaS2gQ4yAS4rAgymaUCgEbk+ariXEDXWBkKAPDXRZ6vKs4FYH+yMhQAtJLUJsBBJsBlRZDJLBUANCLPVxXnArrGylAAgF83f+iUrs1cEoD9x8pQANBKUpsAB5kAlxVBJrNUANCIPF9VnAvoGitDAQAez/KJy5qbnBWA/cXKUADQSlKbAAeZAJcVQSazVADQiDxfVZwL6BorQwEAHl8/LvSsd0QA9g8rQwFAK0ltAhxkAlxWBJnMUgFAI/J8VXEuoGusDAUAeHzDgz314yuaGhkXgP3BylAA0EpSmwAHmQCXFUEms1QA0Ig8X1WcC+gaK0MBAH6bgwee1NqZ6xoa6AnA3mdlKABoJalNgINMgMuKIJNZKgBoRJ6vKs4FdI2VoQAAv9306IRuPn9dAPY+K0MBQCtJbQIcZAJcVgSZzFIBQCPyfFVxLqBrrAwFANic+UOndG3mkgDsbVaGAoBWktoEOMgEuKwIMpmlAoBG5Pmq4lxA11gZCgCweUvHFnXx8BkB2LusDAUArSS1CXCQCXBZEWQySwUAjcjzVcW5gK6xMhQAoJ0bJ19WPPaMAOxNVoYCgFaS2gQ4yAS4rAgymaUCgEbk+ariXEDXWBkKANDO8GBP/fiKpkbGBWDvsTIUALSS1CbAQSbAZUWQySwVADQiz1cV5wK6xspQAID2Dh54UmtnrmtooCcAe4uVoQCglaQ2AQ4yAS4rgkxmqQCgEXm+qjgX0DVWhgIAbI3p0QndfP66AOwtVoYCgFaS2gQ4yAS4rAgymaUCgEbk+ariXEDXWBkKALB15g+d0rWZSwKwd1gZCgBaSWoT4CAT4LIiyGSWCgAakeerinMBXWNlKADA1lo6tqiLh88IwN5gZSgAaCWpTYCDTIDLiiCTWSoAaESeryrOBXSNlaEAAFvvxsmXFY89IwDdZ2UoAGglqU2Ag0yAy4ogk1kqAGhEnq8qzgV0jZWhAABbb3iwp358RVMj4wLQbVaGAoBWktoEOMgEuKwIMpmlAoBG5Pmq4lxA11gZCgCwPQ4eeFJrZ65raKAnAN1lZSgAaCWpTYCDTIDLiiCTWSoAaESeryrOBXSNlaEAANtnenRCN5+/LgDdZWUoAGglqU2Ag0yAy4ogk1kqAGhEnq8qzgV0jZWhAADba/7QKV2buSQA3WRlKABoJalNgINMgMuKIJNZKgBoRJ6vKs4FdI2VoQAA22/p2KIuHj4jAN1jZSgAaCWpTYCDTIDLiiCTWSoAaESeryrOBXSNlaEAADvjxsmXFY89IwDdYmUoAGglqU2Ag0yAy4ogk1kqAGhEnq8qzgV0jZWhAAA7Y3iwp358RVMj4wLQHVaGAoBWktoEOMgEuKwIMpmlAoBG5Pmq4lxA11gZCgCwcw4eeFJrZ65raKAnAN1gZSgAaCWpTYCDTIDLiiCTWSoAaAwP9vTf/tN/FdA1VoYCAOys6dEJ9eNCQwM9AdhdDx5taPjq3woAWklqE+AgE+CyIshklgoAfuSHv/9nAV3y4fpNRSvnBQDYefOHTunazCUB2F0frt9UtHJeANBKUpsAB5kAlxVBJrNUAPAjP/z9Pwvokg/XbypaOS8AwO7Iji4ofXpBAHbPh+s3Fa2cFwC0ktT5mpi2AAAgAElEQVQmwEEmwGVFkMksFQD8SD8u9Kx3REBXrNz9WKff/5MAALtn+cRlzU3OCsDuePXWm1r8ZEkA0EpSmwAHmQCXFUEms1QA8CP9uNCz3hEBXfHCZ1eVfXpVAIDdMzzYUz++oqmRcQHYeS98dlXZp1cFAK0ktQlwkAlwWRFkMksFAD+ydGxRFw+fEdAVf/zkVS3dekMAgN01PNjTvXNva2igJwA76+/e/wfduPuRAKCVpDYBDjIBLiuCTGapAOBHsqMLSp9eENAVMysX1F9fFQBg902PTqgfFxoa6AnAzjny1pzW7t8RALSS1CbAQSbAZUWQySwVAPxI5Pmq4lxAV4y9/jvde/i1AADdMH/olK7NXBKAnWNlKABoLalNgINMgMuKIJNZKgD4kYMHntTdc/8koCusDAUA6Jbs6ILSpxcEYPt9/u2Xmn7z9wKA1pLaBDjIBLisCDKZpQKAn/jh7/9ZQBd8uH5T0cp5AQC6Z/nEZc1NzgrA9rp++z3Nf/CiAKC1pDYBDjIBLiuCTGapAOAn+nGhZ70jAnbbq7fe1OInSwIAdM/wYE/9+IqmRsYFYPv88ZNXtXTrDQFAa0ltAhxkAlxWBJnMUgHATywdW9TFw2cE7LY/VH/W8hfvCgDQTcODPd0797aGBnoCsD2OvDWntft3BACtJbUJcJAJcFkRZDJLBQA/cXrsuN45+ZKA3Tb2+u907+HXAgB01/TohPpxoaGBngBsrQePNjR89W8FAFsiqU2Ag0yAy4ogk1kqAPiJgwee1N1z/yRgNz14tKHhq38rAED3zR86pWszlwRga63c/Vin3/+TAGBLJLUJcJAJcFkRZDJLBQA/4965t/XUgScE7JaVux/r9Pt/EgBgb8iOLih9ekEAts4fP3lVS7feEABsiaQ2AQ4yAS4rgkxmqQDgZyyfuKy5yVkBu+UP1Z+1/MW7AgDsHcsnLmtuclYAtsbY67/TvYdfCwC2RFKbAAeZAJcVQSazVADwM06PHdc7J18SsFvGXv+d7j38WgCAvWN4sKd+fEVTI+MC0M5XD7/RwdefEwBsmaQ2AQ4yAS4rgkxmqQDgZwwP9vTf/tN/FbAbvnr4jQ6+/pwAAHvP8GBP9869raGBngBs3qu33tTiJ0sCgC2T1CbAQSbAZUWQySwVAPyCGydfVjz2jICd9uqtN7X4yZIAAHvT9OiE+nGhoYGeAGzOkbfmtHb/jgBgyyS1CXCQCXBZEWQySwUAv2Dx8Fm9cuyigJ125K05rd2/IwDA3nV67LjeOfmSAPx2Xz38Rgdff04AsKWS2gQ4yAS4rAgymaUCgF9w8MCTunvunwTspK8efqODrz8nAMDet3j4rF45dlEAfps/fvKqlm69IQDYUkltAhxkAlxWBJnMUgHAX3Hj5MuKx54RsFNevfWmFj9ZEgBgf1g+cVlzk7MC8PjGXv+d7j38WgCwpZLaBDjIBLisCDKZpQKAv2L+0Cldm7kkYKcceWtOa/fvCACwf6ydeU1TI+MC8OtW7n6s0+//SQCw5ZLaBDjIBLisCDKZpQKAv2J4sKd7597W0EBPwHb7/NsvNf3m7wUA2F+GB3tae/41PXXgCQH462ZWLqi/vioA2HJJbQIcZAJcVgSZzFIBwK9YPnFZc5OzArbbH6o/a/mLdwUA2H+mRyfUjwsNDfQE4Od99fAbHXz9OQHAtkhqE+AgE+CyIshklgoAfsX06IRuPn9dwHZ68GhDB19/Tt99vyEAwP50euy43jn5kgD8vD9Uf9byF+8KALZFUpsAB5kAlxVBJrNUAPAY+nGhZ70jArbL9dvvaf6DFwUA2N+yowtKn14QgH/rq4ff6ODrzwkAtk1SmwAHmQCXFUEms1QA8BjmD53StZlLArbL2Ou/072HXwsAsP8tn7isuclZAfhXL3x2VdmnVwUA2yapTYCDTIDLiiCTWSoAeEz3zr2tpw48IWCrrdz9WKff/5MAAO5YO/OapkbGBUB68GhDB19/Tt99vyEA2DZJbQIcZAJcVgSZzFIBwGOaP3RK12YuCdhqMysX1F9fFQDAHcODPfXjK5oaGRfguj9Uf9byF+8KALZVUpsAB5kAlxVBJrNUAPAb3Dv3tp468ISArfLh+k1FK+cFAHDP8GBPa8+/pqcOPCHAVV89/EYHX39OALDtktoEOMgEuKwIMpmlAoDfYP7QKV2buSRgq8ysXFB/fVUAADdNj06oHxcaGugJcNHfvf8PunH3IwHAtktqE+AgE+CyIshklgoAfqN7597WUweeENDWh+s3Fa2cFwDAbdOjE+rHhYYGegJc8uH6TUUr5wUAOyKpTYCDTIDLiiCTWSoA+I3mD53StZlLAto68tac1u7fEQAA06MT6seFhgZ6Alwx9vrvdO/h1wKAHZHUJsBBJsBlRZDJLBUAbMLamdc0NTIuYLOu335P8x+8KAAA/mJ6dEL9uNDQQE/AfvfCZ1eVfXpVALBjktoEOMgEuKwIMpmlAoBNiDxfVZwL2IwHjzZ08PXn9N33GwIA4MemRyfUjwsNDfQE7Feff/ulpt/8vQBgRyW1CXCQCXBZEWQySwUAm7R84rLmJmcF/FZ//ORVLd16QwAA/Jzp0Qn140JDAz0B+9GRt+a0dv+OAGBHJbUJcJAJcFkRZDJLBQCbNDzY071zb2tooCfgcX3+7ZeafvP3AgDgr5kendCNky/rqQNPCNhPXvjsqrJPrwoAdlxSmwAHmQCXFUEms1QA0ML8oVO6NnNJwOM68tac1u7fEQAAv2Z4sKd+fEVTI+MC9oMP128qWjkvANgVSW0CHGQCXFYEmcxSAUBL/bjQs94RAb/mhc+uKvv0qgAAeFzDgz314yuaGhkXsJc9eLSh6TfndO/h1wKAXZHUJsBBJsBlRZDJLBUAtDQ82NO9c29raKAn4Jd8/u2Xmn7z9wIAYDOWT1zW3OSsgL1qZuWC+uurAoBdk9QmwEEmwGVFkMksFQBsgdNjx/XOyZcE/JIjb81p7f4dAQCwWdnRBaVPLwjYa1747KqyT68KAHZVUpsAB5kAlxVBJrNUALBFlk9c1tzkrICf+uMnr2rp1hsCAKCt+UOntHTsooYGegL2guu339P8By8KAHZdUpsAB5kAlxVBJrNUALBFhgd76sdXNDUyLuAvVu5+rNPv/0kAAGyV6dEJ3Tj5sp468ISALvv82y8VrST67vsNAcCuS2oT4CAT4LIiyGSWCgC20PTohPpxoaGBnoDPv/1S0Uqi777fEAAAW2l4sKcbJ1/Ws94RAV30+bdfKlpJ9N33GwKATkhqE+AgE+CyIshklgoAttjpseN65+RLgtsePNpQtHJea/fvCACA7ZIdXVD69IKALnnwaEPRynmt3b8jAOiMpDYBDjIBLiuCTGapAGAbLB4+q1eOXRTc9Xfv/4Nu3P1IAABst8jzdeM/vqShgZ6A3fbg0YailfNau39HANApSW0CHGQCXFYEmcxSAcA2WT5xWXOTs4J7/lD9WctfvCsAAHbK8GBPyzP/qHjsGQG75cGjDUUr57V2/44AoHOS2gQ4yAS4rAgymaUCgG3Ujws96x0R3HH99nua/+BFAQCwGxYPn1V2dEFDAz0BO+nBow1FK+e1dv+OAKCTktoEOMgEuKwIMpmlAoBtNDzYUz++oqmRcWH/u377Pc1/8KIAANhNBw88qRv/8WVNjYwL2AkPHm0oWjmvtft3BACdldQmwEEmwGVFkMksFQBss+HBnvrxFU2NjAv71/Xb72n+gxcFAEBXZEcXlD69IGA7PXi0oWjlvNbu3xEAdFpSmwAHmQCXFUEms1QAsAOGB3vqx1c0NTIu7D/Xb7+n+Q9eFAAAXXPwwJNaPnFZz3pHBGy1z7/9UtFKou++3xAAdF5SmwAHmQCXFUEms1QAsEOGB3vqx1c0NTIu7B/Xb7+n+Q9eFAAAXbZ4+KyyowsaGugJ2Aofrt/U6ff/pO++3xAA7AlJbQIcZAJcVgSZzFIBwA4aHuypH1/R1Mi4sPddv/2e5j94UQAA7AXDgz0tHVvU3OSsgDau335P8x+8KADYU5LaBDjIBLisCDKZpQKAHTY82FM/vqKpkXFh77p++z3Nf/CiAADYayLP19L/uaipkXEBv9Ufqj9r+Yt3BQB7TlKbAAeZAJcVQSazVACwS5ZPXNbc5Kyw97zw2VVln14VAAB72fyhU1o6dlFDAz0Bv+arh9/o9Pt/0tr9OwKAPSmpTYCDTIDLiiCTWSoA2EXZ0QWlTy8Ie8cfqj9r+Yt3BQDAfjA82NPi4bNaPHxWQwM9AT9n5e7Hmq/+i777fkMAsGcltQlwkAlwWRFkMksFALts/tApLR27qKGBntBdDx5tKFo5r7X7dwQAwH4zPNjT0rFFzU3OCviLB482lH16VUu33hAA7HlJbQIcZAJcVgSZzFIBQAdMj07oxsmX9dSBJ4Tu+fzbLxWtJPru+w0BALCfHTzwpLKjC5qbnBXc9uH6Tc1/8KLuPfxaALAvJLUJcJAJcFkRZDJLBQAdMTzY0/LMPyoee0bojldvvanFT5YEAIBLDh54UtnRBc1NzgpuefBoQ9mnV7V06w0BwL6S1CbAQSbAZUWQySwVAHTM4uGzyo4uaGigJ+yeB482dPr/+gf111cFAICrDh54UtnRBZ0eO66hgZ6wv63c/ViLnyzp3sOvBQD7TlKbAAeZAJcVQSazVADQQdOjE1o+8Y+aGhkXdt7K3Y81X/0Xfff9hgAAgDQ82NPi4bNaPHxWQwM9YX/56uE3mv/gRfXXVwUA+1ZSmwAHmQCXFUEms1QA0GHZ0QWlTy8IO+PBow3Nf/Cibtz9SAAA4OfNHzqlxcNnNTUyLuxtDx5taOnWG8o+vSoA2PeS2gQ4yAS4rAgymaUCgI47eOBJLZ+4rGe9I8L2uX77PS1+sqTvvt8QAAD4dZHna/7QrOYmZ4W954XPrmrp1hv67vsNAYATktoEOMgEuKwIMpmlAoA94vTYcS0dW9RTB54Qts7n336pxf97Sf31VQEAgN9ueLCn+clTWjx8Vk8deELotuu331P26VXde/i1AMApSW0CHGQCXFYEmcxSAcAeMjzY0+Lhs1o8fFZDAz1h8756+I2yz65q+Yt3BQAAtsb06IQWD5/V6bHjGhroCd3w4NGGlm69oeUv3tO9h18LANzzwwMl/zIswEEmwGVFkMksFQDsQcODPWVP/2ddPHxG+G0ePNrQ0q03tHTrDX33/YYAAMD2mD90SqcPHlc89oywO756+I2Wb7+rpVtv6LvvNwQAzvrhhw91/l8iAQ4yAS678n+clv7XdwQAe9jBA08qO7qg02PHNTTQE37Zg0cbWrr1hpZuvaHvvt8QAADYGcODPZ0ee1anDx5XPPaMsP0+XL+p5dvvafmLdwUA+P/98MOHOv8vkQAHmQCXFUenZf/bTQHAPjA82NPi4bNaPHxWQwM94V999fAbZZ9d1Y27H+q77zcEAAB2z/BgT5Hn6/TYcZ0eO66hgZ6wNb56+I1u3P1IS7fe0L2HXwsA8CM//PCCzv9LJsBBJsB1V/7mBwHAPjN/6JQWD5/V1Mi4XLZy92Mt335XN+5+JAAA0E3ToxM6PXZcp8ee1dTIuPDbPHi0oRt3P9KNux/pxt2PBAD4Jf/975T8PzcEOMgEuK74mxsyxQKAfWh6dELzk6c0f2hWQwM9ueCrh99o+fa7Wv7iPd17+LUAAMDeMTzYU+T5ijxf0X/wNTUyLvx7Xz38Rv31Vd24+5Fu3P1IAIDH8P3/+7/rj2vfCXCQCXBd/jeL+l/0igBgnzs9dlynx47r9NhxDQ30tJ989fAb3bj7kZZvv6u1+3cEAAD2h+HBniLPV+T5mh6d0LPeEbnqw/WbunH3I/XXV7V2/47w/7EHN7ux3/edoD9fEuChAHtIIFp0PAtygHZmqUoACaUV2etZSHdwmK0oQlVXoNIV1F+gqG3z3IF0B2RvVJAAp7SNF00u2umFA5ATA+IhhvxNHOfNtl7OC1/q5XkegJfRvs0Hk15gSVVg2Y3723lS/zMAS6T35i+z93//P9n9P/8mb/3Ff808Ov3N3+WL//k/cvKbX2X6218HAFgOu7/4m/Te/GV6b/4y2z//y+z84q+ziE5/83c5+c2vcvK//i4nv/lVAHgNtxnmw6+6wJKqAMlR/yRVOwFYQptPfpbdX/xNdn/xN+m9+cvs/OKvM2sur3+X6W9/nZPf/Con/+vvcvKbXwUA4N/03vxltn/+l+m9+cv0/uKvsvnkZ9n5xV9nHlxe/y7T3/4609/+OtN//HWmv/37TH/76wBwh563/yvDyVlgSVWA5Ki/l6r/HgD+Re/NX6b35l9l++f/Jbu/+JtsPvl53vqL/5qHcPqbv8vF899l+o9/n+lvf53pb3+ds3/6hwAAvKzNJz9L7y/+Ktv/x19m++f/JZtrP0/vzV/m93pv/jIbaz/LQzj/p/+ds3/6h1w8/12m//j3Ofun/52z//cfMv3Hv8/F898FgHvU8mX2v3o/sMQqwB8cvXuWylYA+EGbT36W3l/8VX5v88nP0nvzl3kd09/+OhfPf5ffO/nNrwIA8Bh6b/4ym2s/z7/pvfnLbD75WV7W9Le/zsXz3+XfnPzmVwHgkd20/5aDyUlgiVWAPzjq76XqvwcAAAAAmH+tnWZ/shtYchXgPxy9e5bKVgAAAACA+XbT/lsOJieBJVcB/sNRfy9V/z0AAAAAwPxq+TL7X70fIBXgjx31T1K1EwAAAABgDrXLPE8vw8lZgFSAPzbub+dJpkltBAAAAACYL7cZ5sOvugD/ogL8uc/eHWQl4wAAAAAA86O10+xPdgP8uwrw/Y7e/SKV9wIAAAAAzIF2medX2xlOLwL8uwrw/ca9zTxZP0nqrQAAAAAAs639f3+d/W+mAf5IBfhh495m1t6YprIVAAAAAGA2tfa32Z8cB/gzFeDHHb3dS62eJLURAAAAAGC2tPa32Z8cB/heFeCnjfvbeZIvknorAAAAAMBsaO1vsz85DvCDKsCLGfc2s/bGcSrvBQAAAAB4RO0y7WY3+99MA/yoCvByPnt3kJU2SmojAAAAAMDDavky19/tZTi9CPCTKsDLG/e3s1ZdKu8FAAAAALh/Lee5bXs5mJwEeGEV4NUd9nezmi6ptwIAAAAA3IN2mdsa5cOvugAvrQK8vqP+XipdUhsBAAAAAO5Ie5bnV4MMpxcBXkkFuBvj3mbW3hil8lEAAAAAgFfX2mlyM8j+N9MAr6UC3K1xfztrOU7VTgAAAACAF9dynroZ5IOvvwhwJyrA/Tjs72aljlPZCgAAAADwI9plWrrsT0YB7lQFuF+fvTvIShsltREAAAAA4E+0Z3meUYaTswB3rgLcv3FvM0/Wu6SeBgAAAABIWjvNbUY5mJwEuDcV4OEcvd1LVrtU7QQAAAAAllK7TMsg+5PjAPeuAjy8z995P221S2UrAAAAALAsWvsk11ddhtOLAA+iAjyOcW8za+uDVAZJbQQAAAAAFlXLl7lugwwnZwEeVAV4XOP+dp5klNTTAAAAAMBCad/mJoMcTE4CPIoKMBsO+7tZyShVOwEAAACAudYuc1ujfPhVF+BRVYDZctTfS6VLaiMAAAAAMG9aPs31d6MMpxcBHl0FmD3j3mbW1gep+jgAAAAAMA9aO8119jKcnAWYGRVgdo3721mrLpX3AgAAAACzqOU8t20vB5OTADOnAsy+w/5uVtMl9VYAAAAAYCa0y7R02Z+MAsysCjA/Pnt3kJU2SmojAAAAAPBo2rM8vxpkOL0IMNMqwHwZ9zaz9sYolY8CAAAAAA+ptdPkZpD9b6YB5kIFmE/j/nbWcpyqnQAAAADAfWo5T90M8sHXXwSYKxVgvh32d7NSx6lsBQAAAADuVLtMS5frqy7D6UWAuVMBFsNRf5TKIKmNAAAAAMBra8/yPKMMJ2cB5lYFWBzj3maerHdJPQ0AAAAAvJL2bW4yyMHkJMDcqwCL5+jtXrLapWonAAAAAPBC2mVaBtmfHAdYGBVgcR3195IapbIVAAAAAPghrX2S66suw+lFgIVSARbbuLeZtfVBKoOkNgIAAAAA/6bly1y3QYaTswALqQIsh3F/O08ySuppAAAAAFhuLee5bXs5mJwEWGgVYLkc9nezmi6ptwIAAADAkmmXua1RPvyqC7AUKsByOurvpdIltREAAAAAFl/Lp7n+bpTh9CLA0qgAy2vc28za+iBVHwcAAACAxdTaaa6zl+HkLMDSqQCM+9tZqy6V9wIAAADAYmg5T90M8sHXXwRYWhWAf3PY381KHaeyFQAAAADmVLtMS5f9ySjA0qsA/KnP3h1kpY2S2ggAAAAAc6Q9y/OrQYbTiwD8swrA9xn3NrP2xiiVjwIAAADAbGvtNLkZZP+baQD+kwrAjzl6u5esdqnaCQAAAACzpeU8aaPsT44D8D0qAC/i83feT1vtUtkKAAAAAI+sXaaly/VVl+H0IgA/oALwMo76o1QGSW0EAAAAgIfX8mWu2yDDyVkAfkIF4GWNe5t5st4l9TQAAAAAPJD2bW4yyMHkJAAvqALwqg77u1nJKFU7AQAAAOCetMu0DLI/OQ7AS6oAvK6j/l5So1S2AgAAAMDdae2TXF91GU4vAvAKKgB3YdzbzNr6IJVBUhsBAAAA4NW1dprr7GU4OQvAa6gA3KVxfztr1aXyXgAAAAB4OS3nuW17OZicBOAOVADuw2F/N6vpknorAAAAAPyEdpnbGuXDr7oA3KEKwH066u+l0iW1EQAAAAD+XMunuf5ulOH0IgB3rAJw38a9zaytD1L1cQAAAAD4g9ZOk5tB9r+ZBuCeVAAeyri/nbUcp2onAAAAAMuq5Tx1M8gHX38RgHtWAXhoh/3drNRxKlsBAAAAWBrtMi1d9iejADyQCsBj+ezdQVbaKKmNAAAAACy09izPrwYZTi8C8IAqAI9p3NvMk/UuqacBAAAAWDStneY2oxxMTgLwCCoAs+Do7V6y2qVqJwAAAADzruU8aaPsT44D8IgqALPk83feT1vtUtkKAAAAwDxq7ZNcX3UZTi8C8MgqALPoqD9KZZDURgAAAADmQcuXuW6DDCdnAZgRFYBZNe5v50lGST0NAAAAwMxq3+YmgxxMTgIwYyoAs+6wv5uVjFK1EwAAAICZ0S7TMsj+5DgAM6oCMC+O+ntJjVLZCgAAAMBjavk019+NMpxeBGCGVQDmybi3mbX1Qao+DgAAAMBDa+0019nLcHIWgDlQAZhH4/521qpL5b0AAAAA3LeW89y2vRxMTgIwRyoA8+ywv5vVdEm9FQAAAIA71y5zW6N8+FUXgDlUAVgER/29VLqkNgIAAABwJ9qzPL8aZDi9CMCcqgAsinFvM2tvjFL5KAAAAACvqrXT5GaQ/W+mAZhzFYBFM+5vZy3HqdoJAAAAwItqOU/dDPLB118EYEFUABbVYX83K3WcylYAAAAAflC7TEuX66suw+lFABZIBWDRHfVHqQyS2ggAAADAH2nP8jyjDCdnAVhAFYBlMO5t5sl6l9TTAAAAALR2mtuMcjA5CcACqwAsk6O3e8lql6qdAAAAAEuoXaZlkP3JcQCWQAVgGX3+zvtpq10qWwEAAACWQ2uf5Pqqy3B6EYAlUQFYVuPeZtbWB6kMktoIAAAAsJhavsx1G2Q4OQvAkqkALLtxfztPMkrqaQAAAIAF0r7NTQY5mJwEYElVAPiDw/5uVjJK1U4AAACAOdYuc1ujfPhVF4AlVwHgjx3191LpktoIAAAAMF9aPs31d6MMpxcBIBUA/ty4t5m19UGqPg4AAAAw+1o7zXX2MpycBYB/VwHgh43721mrLpX3AgAAAMyelvPctr0cTE4CwJ+pAPDTDvu7WU2X1FsBAAAAZkC7TEuX/ckoAPygCgAv7rN3B1lpo6Q2AgAAADyS9izPrwYZTi8CwI+qAPByxr3NrL0xSuWjAAAAAA+ntdPkZpD9b6YB4IVUAHg14/521nKcqp0AAAAA96flPGmj7E+OA8BLqQDwej5/5/201S6VrQAAAAB3qF2mpcv1VZfh9CIAvLQKAHfjqD9KZZDURgAAAIDX1J7leUYZTs4CwCurAHB3xr3NPFnvknoaAAAA4BW0b3OTQQ4mJwHgtVUAuHtHb/eS1S5VOwEAAABeQLtMyyD7k+MAcGcqANyfo/5eUqNUtgIAAAB8v9Y+yfVVl+H0IgDcqQoA92vc28za+iCVQVIbAQAAAP6g5ctct0GGk7MAcC8qADyMcX87TzJK6mkAAABgmbWc57bt5WByEgDuVQWAh3XY381quqTeCgAAACyVdpnbGuXDr7oA8CAqADyOo/5eKl1SGwEAAIBF1/Jprr8bZTi9CAAPpgLA4xn3NrO2PkjVxwEAAIBF1NpprrOX4eQsADy4CgCPb9zfzlqOU7UTAAAAWAQt56mbQT74+osA8GgqAMyOw/5uVuo4la0AAADAXGqXaemyPxkFgEdXAWD2fPbuICttlNRGAAAAYG60Z3l+NchwehEAZkIFgNk07m1m7Y1RKh8FAAAAZllrp7nNKAeTkwAwUyoAzLajt3vJapeqnQAAAMAsaTlP2ij7k+MAMJMqAMyHz995P221S2UrAAAA8KjaZVq6XF91GU4vAsDMqgAwX476o1QGSW0EAAAAHlrLl7lugwwnZwFg5lUAmD/j3maerHdJPQ0AAAA8iPZtbjLIweQkAMyNCgDz67C/m5WMUrUTAAAAuBftMi2D7E+OA8DcqQAw/476e0mNUtkKAAAA3JXWPsn1VZfh9CIAzKUKAIth3NvM2voglUFSGwEAAIBX1dpprrOX4eQsAMy1CgCLZdzfzlp1qbwXAAAAeBkt57ltezmYnASAhVABYDEd9nezmi6ptwIAAAA/ql3mtkb58KsuACyUCgCL7ai/l0qX1EYAAADgT7V8muvvRhlOL+/DFXoAACAASURBVALAwqkAsPjGvc2svTFK5aMAAADA77V2mtwMsv/NNAAsrAoAy2Pc385ajlO1EwAAAJZTy3nqZpAPvv4iACy8CgDL57C/m5U6TmUrAAAALIl2mZYu+5NRAFgaFQCW12fvDrLSRkltBAAAgAXWnuV5RhlOzgLAUqkAsNzGvc08We+SehoAAAAWS2unuc0oB5OTALCUKgDwe0dv95LVLlU7AQAAYL61nCdtlP3JcQBYahUA+M8+f+f9tNUula0AAAAwf1r7JNdXXYbTiwCw9CoA8H2O+qNUBkltBAAAgNnX8mWu2yDDyVkA4F9VAOCHjPvbeZJRUk8DAADAjGrf5iaDHExOAgB/ogIAP+Wwv5uVjFK1EwAAAGZEu0zLIPuT4wDAD6gAwIs66u8lNUplKwAAADyelk9z/d0ow+lFAOBHVADgZYx7m1lbH6Tq4wAAAPCwWjvNdfYynJwFAF5ABQBexbi/nbXqUnkvAAAA3K+W89y2vRxMTgIAL6ECAK/jsL+b1XRJvRUAAADuWLtMS5f9ySgA8AoqAHAXPnt3kJU2SmojAAAA3IH2LM+vBhlOLwIAr6gCAHdl3NvM2hujVD4KAAAAr6a10+RmkP1vpgGA11QBgLs27m9nLcep2gkAAAAvpuU8dTPIB19/EQC4IxUAuC+H/d2s1HEqWwEAAOAHtMu0dLm+6jKcXgQA7lAFAO7bUX+UyiCpjQAAAPCftGd5nlGGk7MAwD2oAMBDGPc282S9S+ppAAAAll1rp7nNKAeTkwDAPaoAwEM6eruXrHap2gkAAMDSaZdpGWR/chwAeAAVAHgMn7/zftpql8pWAAAAlkFrn+T6qstwehEAeCAVAHgs495m1tYHqQyS2ggAAMAiavky122Q4eQsAPDAKgDw2Mb97TzJKKmnAQAAWBjt29xkkIPJSQDgkVQAYFYc9nezklGqdgIAADC32mVua5QPv+oCAI+sAgCz5qi/l0qX1EYAAADmScunuf5ulOH0IgAwAyoAMIvGvc2srQ9S9XEAAABmXWunuc5ehpOzAMAMqQDALBv3t7NWXSrvBQAAYNa0nKduBvng6y8CADOoAgDz4LC/m5U6TmUrAAAAj65dpqXL/mQUAJhhFQCYJ5+9O8hKGyW1EQAAgEfRnuX51SDD6UUAYMZVAGDejHubWXtjlMpHAQAAeCitnSY3g+x/Mw0AzIkKAMyrcX87azlO1U4AAADuS8t50kbZnxwHAOZMBQDm3efvvJ+22qWyFQAAgDvTLtPS5fqqy3B6EQCYQxUAWBRH/VEqg6Q2AgAA8FraszzPKMPJWQBgjlUAYJGMe5t5st4l9TQAAAAvrX2bmwxyMDkJACyACgAsoqO3e8lql6qdAAAA/KR2mZZB9ifHAYAFUgGARXbU30tqlMpWAAAAvk9rn+T6qstwehEAWDAVAFh0495m1tYHqQyS2ggAAMDvtXyZ6zbIcHIWAFhQFQBYFuP+dtaqS+W9AAAAy6vlPLdtLweTkwDAgqsAwLI57O9mNV1SbwUAAFgi7TK3NcqHX3UBgCVRAYBlddTfS6VLaiMAAMBia/k019+NMpxeBACWSAUAltm4t5m19UGqPg4AALB4WjtNbgbZ/2YaAFhCFQAgGfe3s5bjVO0EAACYfy3nqZtBPvj6iwDAEqsAAP/hsL+blTpOZSsAAMAcapdp6bI/GQUASAUA+HOfvTvIShsltREAAGBOtGd5fjXIcHoRAOBfVACA7zfubWbtjVEqHwUAAJhdrZ3mNqMcTE4CAPyRCgDw447e7iWrXap2AgAAzI6W86SNsj85DgDwvSoAwIv5/J3301a7VLYCAAA8onaZli7XV12G04sAAD+oAgC8nKP+KJVBUhsBAAAeVsuXuW6DDCdnAQB+UgUAeHnj3maerHdJPQ0AAPAA2re5ySAHk5MAAC+sAgC8usP+blYyStVOAACAe9Au0zLI/uQ4AMBLqwAAr++ov5fUKJWtAAAAd6O1T3J91WU4vQgA8EoqAMDdGPc2s7Y+SNXHAQAAXl1rp7nOXoaTswAAr6UCANytcX87a9Wl8l4AAIAX13Ke27aXg8lJAIA7UQEA7sdhfzer6ZJ6KwAAwI9ol7mtUT78qgsAcKcqAMD9OurvpdIltREAAOBPtGd5fjXIcHoRAODOVQCA+zfubWbtjVEqHwUAAEhaO01uBtn/ZhoA4N5UAICHM+5vZy3HqdoJAAAso5bz1M0gH3z9RQCAe1cBAB7eYX83K3WcylYAAGAptMu0dNmfjAIAPJgKAPB4Pnt3kJU2SmojAACwsNqzPM8ow8lZAIAHVQEAHte4t5kn611STwMAAIuktdPcZpSDyUkAgEdRAQBmw9HbvWS1S9VOAABgnrWcJ22U/clxAIBHVQEAZsvn77yfttqlshUAAJg3rX2S66suw+lFAIBHVwEAZtNRf5TKIKmNAADArGv5MtdtkOHkLADAzKgAALNr3N/Ok4ySehoAAJhJ7dvcZJCDyUkAgJlTAQBm32F/NysZpWonAAAwE9plbmuUD7/qAgDMrAoAMD+O+nupdEltBAAAHkvLp7n+bpTh9CIAwEyrAADzZdzbzNr6IFUfBwAAHlJrp7nOXoaTswAAc6ECAMyncX87a9Wl8l4AAOA+tZzntu3lYHISAGCuVACA+XbY381quqTeCgAA3Kl2mZYu+5NRAIC5VAEAFsNn7w6y0kZJbQQAAF5be5bnV4MMpxcBAOZWBQBYHOPeZtbeGKXyUQAA4FW0dprcDLL/zTQAwNyrAACLZ9zfzlqOU7UTAAB4ES3nqZtBPvj6iwAAC6MCACyuw/5uVuo4la0AAMD3apdp6XJ91WU4vQgAsFAqAMDiO+qPUhkktREAAPh37VmeZ5Th5CwAwEKqAADLYdzbzJP1LqmnAQBgubV2mtuMcjA5CQCw0CoAwHI5eruXrHap2gkAAEumXaZlkP3JcQCApVABAJbT5++8n7bapbIVAAAWX2uf5Pqqy3B6EQBgaVQAgOU17m1mbX2QyiCpjQAAsHhavsx1G2Q4OQsAsHQqAADj/naeZJTU0wAAsBhaznPb9nIwOQkAsLQqAAD/5rC/m9V0Sb0VAADmVLvMbY3y4VddAIClVwEA+FNH/b1UuqQ2AgDA/Gj5NNffjTKcXgQA4J9VAAC+z7i3mbX1Qao+DgAAs62101xnL8PJWQAA/pMKAMCPGfe3s1ZdKu8FAIDZ0nKeuhnkg6+/CADA96gAALyIw/5uVuo4la0AAPDI2mVauuxPRgEA+BEVAICX8dm7g6y0UVIbAQDgEbRneX41yHB6EQCAn1ABAHhZ495m1t4YpfJRAAB4GK2dJjeD7H8zDQDAC6oAALyqcX87azlO1U4AALgfLedJG2V/chwAgJdUAQB4XZ+/837aapfKVgAAuCPtMi1drq+6DKcXAQB4BRUAgLty1B+lMkhqIwAAvIb2LM8zynByFgCA11ABALhL495mnqx3ST0NAAAvqX2bmwxyMDkJAMAdqAAA3IfD/m5WMkrVTgAA+AntMi2D7E+OAwBwhyoAAPfpqL+X1CiVrQAA8Oda+yTXV12G04sAANyxCgDAfRv3NrO2PkhlkNRGAABIWjvNdfYynJwFAOCeVAAAHsq4v5216lJ5LwAAy6rlPLdtLweTkwAA3LMKAMBDO+zvZjVdUm8FAGBptMvc1igfftUFAOCBVAAAHstRfy+VLqmNAAAsspZPc/3dKMPpRQAAHlAFAOAxjXubWVsfpOrjAAAsmtZOk5tB9r+ZBgDgEVQAAGbBuL+dtRynaicAAPOu5Tx1M8gHX38RAIBHVAEAmCWH/d2s1HEqWwEAmDvtMi1d9iejAADMgAoAwCz67N1BVtooqY0AAMyF9izPrwYZTi8CADAjKgAAs2rc28zaG6NUPgoAwKxq7TS3GeVgchIAgBlTAQCYdUdv95LVLlU7AQCYFS3nSRtlf3IcAIAZVQEAmBefv/N+2mqXylYAAB5Nu0xLl+urLsPpRQAAZlgFAGDeHPVHqQyS2ggAwENq+TLXbZDh5CwAAHOgAgAwj8b97TzJKKmnAQC4d+3b3GSQg8lJAADmSAUAYJ4d9nezklGqdgIAcOfaZVoG2Z8cBwBgDlUAABbBUX8vqVEqWwEAuAstn+b6u1GG04sAAMypCgDAohj3NrO2PkjVxwEAeFWtneY6exlOzgIAMOcqAACLZtzfzlp1qbwXAIAX1XKe27aXg8lJAAAWRAUAYFEd9nezmi6ptwIA8IPaZW5rlA+/6gIAsGAqAACL7qi/l0qX1EYAAP5Ie5bnV4MMpxcBAFhAFQCAZTDubWbtjVEqHwUAoLXT5GaQ/W+mAQBYYBUAgGUy7m9nLcep2gkAsHxazlM3g3zw9RcBAFgCFQCAZXTY381KHaeyFQBgCbTLtHTZn4wCALBEKgAAy+yzdwdZaaOkNgIALKj2LM8zynByFgCAJVMBAFh2495mnqx3ST0NALA4WjvNbUY5mJwEAGBJVQAA+IOjt3vJapeqnQAAc6xdpmWQ/clxAACWXAUAgD/2+Tvvp612qWwFAJgvrX2S66suw+lFAABIBQCAPzfubWZtfZDKIKmNAACzreXLXLdBhpOzAADw7yoAAPywcX87TzJK6mkAgBnUvs1NBjmYnAQAgD9TAQDgpx32d7OSUap2AgDMgHaZ2xrlw6+6AADwgyoAALy4o/5eKl1SGwEAHkfLp7n+bpTh9CIAAPyoCgAAL2fc28za+iBVHwcAeDitneY6exlOzgIAwAupAADwasb97axVl8p7AQDuT8t5btteDiYnAQDgpVQAAHg9h/3drKZL6q0AAHeoXaaly/5kFAAAXkkFAIC78dm7g6y0UVIbAQBeU3uW51eDDKcXAQDglVUAALg7495m1t4YpfJRAICX19ppcjPI/jfTAADw2ioAANy9cX87azlO1U4AgJ/Wcp66GeSDr78IAAB3pgIAwP057O9mpY5T2QoA8D3aZVq6XF91GU4vAgDAnaoAAHD/jvqjVAZJbQQA+FftWZ5nlOHkLAAA3IsKAAAPY9zbzJP1LqmnAYCl1r7NTQY5mJwEAIB7VQEA4GEdvd1LVrtU7QQAlkq7TMsg+5PjAADwICoAADyOo/5eUqNUtgIAi661T3J91WU4vQgAAA+mAgDA4xn3NrO2PkhlkNRGAGDRtHyZ6zbIcHIWAAAeXAUAgMc37m/nSUZJPQ0ALIKW89y2vRxMTgIAwKOpAAAwOw77u1lNl9RbAYC51C5zW6N8+FUXAAAeXQUAgNlz1N9LpUtqIwAwL1o+zfV3owynFwEAYCZUAACYTePeZtbWB6n6OAAwy1o7zXX2MpycBQCAmVIBAGC2jfvbWasulfcCALOk5Tx1M8gHX38RAABmUgUAgPlw2N/NSh2nshUAeFTtMi1d9iejAAAw0yoAAMyXz94dZKWNktoIADy49izPrwYZTi8CAMDMqwAAMH/Gvc2svTFK5aMAwENo7TS5GWT/m2kAAJgbFQAA5tfR271ktUvVTgDgPrScJ22U/clxAACYOxUAAObf5++8n7bapbIVALgT7TItXa6vugynFwEAYC5VAABYHEf9USqDpDYCAK+q5ctct0GGk7MAADDXKgAALJZxbzNP1rukngYAXkr7NjcZ5GByEgAAFkIFAIDFdNjfzUpGqdoJAPyodpmWQfYnxwEAYKFUAABYbEf9vaRGqWwFAP5Ua5/k+qrLcHoRAAAWTgUAgMU37m1mbX2QyiCpjQBAa6e5zl6Gk7MAALCwKgAALI9xfztr1aXyXgBYTi3nuW17OZicBACAhVcBAGD5HPZ3s5ouqbcCwJJol7mtUT78qgsAAEujAgDA8jrq76XSJbURABZXy6e5/m6U4fQiAAAslQoAAMtt3NvM2vogVR8HgMXS2mlyM8j+N9MAALCUKgAA8Hvj/nbWcpyqnQAw31rOUzeDfPD1FwEAYKlVAADgPzvs72aljlPZCgBzpl2mpcv+ZBQAAPhnFQAA+D6fvTvIShsltREA5kB7lucZZTg5CwAA/KsKAAD8kHFvM0/Wu6SeBoDZ1NppbjPKweQkAADwJyoAAPBTjt7uJatdqnYCwGxoOU/aKPuT4wAAwA+oAADAi/r8nffTVrtUtgLA42ntk1xfdRlOLwIAAD+iAgAAL+uoP0plkNRGAHg4LV/mug0ynJwFAABeQAUAAF7FuL+dJxkl9TQA3LP2bW4yyMHkJAAA8BIqAADwOg77u1nJKFU7AeCOtcu0DLI/OQ4AALyCCgAA3IWj/l5So1S2AsDra/k019+NMpxeBAAAXlEFAADuyri3mbX1Qao+DgCvprXTXGcvw8lZAADgNVUAAOCujfvbWasulfcCwItpOc9t28vB5CQAAHBHKgAAcF8O+7tZTZfUWwHgB7TL3NYoH37VBQAA7lgFAADu21F/L5UuqY0A8J+0Z3l+NchwehEAALgHFQAAeAjj3mbW3hil8lEAll1rp8nNIPvfTAMAAPeoAgAAD2nc385ajlO1E4Bl03Keuhnkg6+/CAAAPIAKAAA8hsP+blbqOJWtACy8dpmWLtdXXYbTiwAAwAOpAADAYzrqj1IZJLURgIXUnuV5RhlOzgIAAA+sAgAAj23c28yT9S6ppwFYFK2d5jajHExOAgAAj6QCAACz4ujtXrLapWonAHOrXaZlkP3JcQAA4JFVAABg1nz+zvtpq10qWwGYJ619kuurLsPpRQAAYAZUAABgFo17m1lbH6QySGojALOs5ctct0GGk7MAAMAMqQAAwCwb97fzJKOkngZg5rRvc5NBDiYnAQCAGVQBAIB5cNjfzUpGqdoJwKNrl7mtUT78qgsAAMywCgAAzJOj/l4qXVIbAXgMLZ/m+rtRhtOLAADAjKsAAMC8Gfc2s7Y+SNXHAXgorZ3mOnsZTs4CAABzogIAAPNq3N/OWnWpvBeA+9Jyntu2l4PJSQAAYM5UAABg3h32d7OaLqm3AnBn2mVauuxPRgEAgDlVAQCARfHZu4OstFFSGwF4Le1Znl8NMpxeBAAA5lgFAAAWybi3mbU3Rql8FICX1dppcjPI/jfTAADAAqgAAMAiGve3s5bjVO0E4Ke0nCdtlP3JcQAAYIFUAABgkX3+zvtpq10qWwH4M+0yLV2ur7oMpxcB+P/bg5+kuMt9D8CfL1QRHMEOYAcy0WpHsAPdQRiLlL9ege0Kui3EMdlB3AEZ2aUT3AHsAEYS7iXvPXWq7p/jtXJMAqT77ed5AKAzFQAAWAWno0kqQ1JbAfin9iKvM8l4fhkAAOhUBQAAVsV0bzvPNmdJPQ+wwtrvuc+Q4/l5AACgcxUAAFg1p5/tJeuzVO0HWCHtJi1DjuZnAQCAFVEBAIBVdTo6TGqSyk6AvrX2fe5uZxlfXAcAAFZIBQAAVtl0bzsbm0MqQ1JbAfrS8nPu2pDx/DIAALCCKgAAQDId7eZZJkk9D7D8Wq7yph3meH4eAABYYRUAAOB/nYwOsp5ZUp8GWELtJm9qkm9+mQUAAEgFAAD4/05Hh6nMktoKsBxafsjdH5OML64DAAD8UwUAAPhr073tbGwOqfouwOJq7VXucpjx/DIAAMC/qAAAAG83He1mI2ep2g+wOFquUvdDvv71ZQAAgL9UAQAA/p6T0UHW6iyVnQAfUbtJyyxH80kAAIC3qgAAAO/mxy+GrLVJUlsBnlh7kde3Q8YX1wEAAP6tCgAA8O6me9vZ+GSSyrcBHl9rr/ImkxzPzwMAAPxtFQAA4P2dfraXrM9StR/g4bVcJW2So/lZAACAd1YBAAA+3E+ff5W2PktlJ8ADaDdpmeXudpbxxXUAAID3UgEAAB7O6WiSypDUVoD30/Jz7tqQ8fwyAADAB6kAAAAPa7q3nWebs6SeB3gH7ffcZ8jx/DwAAMCDqAAAAI/jZHSQtUxStR/gLdpNWoYczc8CAAA8qAoAAPC4TkeHSU1S2Qnwr1r7Pne3s4wvrgMAADy4CgAA8Pime9vZ2BxSGZLaCqy61l7lLocZzy8DAAA8mgoAAPB0pqPdbNQslS8Dq6jlKm/aYY7n5wEAAB5dBQAAeHono4OsZ5bUp4GV0G7ypib55pdZAACAJ1MBAAA+ntPRYSqzpLYC3Wov8vp2yPjiOgAAwJOqAAAAH9d0bzsbn0xS+TbQk9ZeJfdDjn67CAAA8FFUAACAxTAd7WYjZ6naDyyzlqvU/ZCvf30ZAADgo6oAAACL5WR0kLU6S2UnsFTaTVpmOZpPAgAALIQKAACwmH78YshamyS1FVh47UVeZ5Lx/DIAAMDCqAAAAItruredZ5uzpJ4HFlFrr/ImkxzPzwMAACycCgAAsPhOP9tL1mep2g8sgparpE1yND8LAACwsCoAAMDy+Onzr9LWZ6nsBD6W1r7P3e0s44vrAAAAC60CAAAsn9PRJJUhqa3AU2n5OXdtyHh+GQAAYClUAACA5TQd7eZZJkk9Dzyq9nvuM+R4fh4AAGCpVAAAgOV2MjrIWiap2g88qHaTliFH87MAAABLqQIAAPThdHSY1CSVncCHavkhd39MMr64DgAAsLQqAABAP6Z729nYHFL1XeB9tPYqdznMeH4ZAABg6VUAAID+TEe72ahZKl8G/o6Wq7xphzmenwcAAOhGBQAA6NfJ6CDrmSX1aeAvtZu0zHI0nwQAAOhOBQAA6N+PXwxZa5OktgL/o73I69sh44vrAAAAXaoAAACrYbq3nY1PJql8G1Zba6+S+yFHv10EAADoWgUAAFgt09FuNnKWqv2wWlquUvdDvv71ZQAAgJVQAQAAVtPJ6CBrdZbKTuhcu0nLLHe3s4wvrgMAAKyMCgAAsNpOR5NUhqS2Qofai7zOJOP5ZQAAgJVTAQAAmO5t59nmLKnnoQ+tvcqbTHI8Pw8AALCyKgAAAP/t9LO9ZH2Wqv2wpNpNWoYczc8CAACsvAoAAMCf/fT5V2nrs1R2wvJo7fvc3c4yvrgOAADAP1QAAAD+ynRvOxubQypDUlthcbX8nLs2ZDy/DAAAwP9RAQAAeJvpaDfPMknqeVgw7ffcZ8jx/DwAAAB/oQIAAPB3nIwOspZJqvbDR9Zu8qYm+eaXWQAAAN6iAgAA8C5OR4epzJLaCk+v5Yfc/THJ+OI6AAAA/0YFAADgXU33trOxOaTqu/A0WnuVuxxmPL8MAADA31QBAAB4X9PRbjZqlsqX4XG0XKXuh3z968sAAAC8owoAAMCHOhkdZK3OUtkJD6TdpGWWo/kkAAAA76kCAADwUH78YshamyS1FT5Ae5HXt0PGF9cBAAD4ABUAAICHNN3bzsYnk1S+De+mtVfJ/ZCj3y4CAADwACoAAACPYTrazUbOUrUf3q7lKmmTHM3PAgAA8IAqAAAAj+mnz79KW5+lshP+pN2kZZa721nGF9cBAAB4YBUAAICncDqapDIktRX+ob3I60wynl8GAADgkVQAAACeynRvO882Z0k9z8pqv+c+Q47n5wEAAHhkFQAAgKd2+tlesj5L1X5WRrtJy5Cj+VkAAACeSAUAAOBjOR0dJjVJZSc9a+373N3OMr64DgAAwBOqAAAAfEzTve1sbA6pDEltpSctP+euDRnPLwMAAPARVAAAABbBdLSbjZql8mWWXctV3rTDHM/PAwAA8BFVAAAAFsnJ6CDrmSX1aZZOu8mbmuSbX2YBAABYABUAAIBFdDo6TGWW1FaWQcsPuftjkvHFdQAAABZEBQAAYFFN97azsTmk6rssqtZeJfdDjn67CAAAwIKpAAAALLrpaDcbOUvVfhZFy1XqfsjXv74MAADAgqoAAAAsi5PRQdbqLJWdfDTtJi2zHM0nAQAAWHAVAACAZfPjF0PW2iSprTyp9iKvb4eML64DAACwBCoAAADLaLq3nY3NIZUhqa08qvYirzPJeH4ZAACAJVIBAABYdqejw6S+SuXLPJj2e97UWf6jvcx4fhkAAIAlVAEAAOjJyeggazlIcpDUbio7+bfaTVoukrpI2kXucp7x/DIAAABLrgIAALAKTkYH+bP/zGXG88sAAAB0qgIAAAAAAECXKgAAAAAAAHSpAgAAAAAAQJcqAAAAAAAAdKkCAAAAAABAlyoAAAAAAAB0qQIAAAAAAECXKgAAAAAAAHSpAgAAAAAAQJcqAAAAAAAAdKkCAAAAAABAlyoAAAAAAAB0qQIAAAAAAECXKgAAAAAAAHSpAgAAAAAAQJcqAAAAAAAAdKkCAAAAAABAlyoAAAAAAAB0qQIAAAAAAECXKgAAAAAAAHSpAgAAAAAAQJcqAAAAAAAAdKkCAAAAAABAlyoAAAAAAAB0qQIAAAAAAECXKgAAAAAAAHSpAgAAAAAAQJcqAAAAAAAAdKkCAAAAAABAlyoAAAAAAAB0qQIAAAAAAECXKgAAAAAAAHSpAgAAAAAAQJcqAAAAAAAAdKkCAAAAAABAlyoAAAAAAAB0qQIAAAAAAECXKgAAAAAAAHSpAgAAAAAAQJcqAAAAAAAAdKkCAAAAAABAlyoAAAAAAAB0qQIAAAAAAECXKgAAAAAAAHSpAgAAAAAAQJcqAAAAAAAAdKkCAAAAAABAlyoAAAAAAAB0qQIAAAAAAECXKgAAAAAAAHSpAgAAAAAAQJcqAAAAAAAAdKkCAAAAAABAlyoAAAAAAAB0qQIAAAAAAECXKgAAAAAAAHSpAgAAAAAAQJcqAAAAAAAAdKkCAAAAAABAlyoAAAAAAAB0qQIAAAAAAECXKgAAAAAAAHSpAgAAAAAAQJcqAAAAAAAAdKkCAAAAAABAlyoAAAAAAAB0qQIAAAAAAECXKgAAAAAAAHSpAgAAAAAAQJcqAAAAAAAAdKkCAAAAAABAlyoAAAAAAAB0qQIAAAAAAECXKgAAAAAAAHSpAgAAAAAAQJcqAAAAAAAAdKkCAAAAAABAlyoAAAAAAAB0qQIAAAAAAECXKgAAAAAAgQdBEwAAAJFJREFUAHSpAgAAAAAAQJcqAAAAAAAAdKkCAAAAAABAlyoAAAAAAAB0qQIAAAAAAECXKgAAAAAAAHSpAgAAAAAAQJcqAAAAAAAAdKkCAAAAAABAlyoAAAAAAAB0qQIAAAAAAECXKgAAAAAAAHSpAgAAAAAAQJcqAAAAAAAAdKkCAAAAAABAlyoAAAAAAAB06b8Apleyjm56Q0AAAAAASUVORK5CYIIgICAgICAgICAgICAgICAgICAgICAgICAgICAgICAgICAgICAgICAgICAgICAgICAgICAgICAgICAgICAgICAgICAgICAgICAgICAgICAgICAgICAgICAgICAgICAgICAgICAgICAgICAgICAgICAgICAgICAgICAgICAgICAgICAgICAgICAgICAgICAgICAgICAgICAgICAgICAgICAgICAgICAgICAgICAgICAgICAgICAgICAgICAgICAgICAgICAgICAgICAgICAgICAgICAgICAgICAgICAgICAgICAgICAgICAgICAgICAgICAgICAgICAgICAgICAgICAgICAgICAgICAgICAgICAgICAgICAgICAgICAgICAgICAgICAgICAgICAgICAgICAgICAgICAgICAgICAgICAgICAgICAgICAgICAgICAgICAgICAgICAgICAgICAgICAgICAgICAgICAgICAgICAgICAgICAgICAgICAgICAgICAgICAgICAgICAgICAgICAgICAgICAgICAgICAgICAgICAgICAgICAgICAgICAgICAgICAgICAgICAgICAgICAgICAgICAgICAgICAgICAgICAgICAgICAgICAgICAgICAgICAgICAgICAgICAgICAgICAgICAgICAgICAgICAgICAgICAgICAgICAgICAgICAgICAgICAgICAgICAgICAgICAgICAgICAgICAgICAgICAgICAgICAgICAgICAgICAgICAgICAgICAgICAgICAgICAgICAgICAgICAgICAgICAgICAgICAgICAgICAgICAgICAgICAgICAgICAgICAgICAgICAgICAgICAgICAgICAgICAgICAgICAgICAgICAgICAgICAgICAgICAgICAgICAgICAgICAgICAgICAgICAgICAgICAgICAgICAgICAgICAgICAgICAgICAgICAgICAgICAgICAgICAgICAgICAgICAgICAgICAgICAgICAgICAgICAgICAgICAgICAgICAgICAgICAgICAgICAgICAgICAgICAgICAgICAgICAgICAgICAgICAgICAgICAgICAgICAgICAgICAgICAgICAgICAgICAgICAgICAgICAgICAgICAgICAgICAgICAgICAgICAgICAgICAgICAgICAgICAgICAgICAgICAgICAgICAgICAgICAgICAgICAgICAgICAgICAgICAgICAgICAgICAgICAgICAgICAgICAgICAgICAgICAgICAgICAgICAgICAgICAgICAgICAgICAgICAgICAgICAgICAgICAgICAgICAgICAgICAgICAgICAgICAgICAgICAgICAgICAgICAgICAgICAgICAgICAgICAgICAgICAgICAgICAgICAgICAgICAgICAgICAgICAgICAgICAgICAgICAgICAgICAgICAgICAgICAgICAgICAgICAgICAgICAgICAgICAgICAgICAgICAgICAgICAgICAgICAgICAgICAgICAgICAgICAgICAgICAgICAgICAgICAgICAgICAgICAgICAgICAgICAgICAgICAgICAgICAgICAgICAgICAgICAgICAgICAgICAgICAgICAgICAgICAgICAgICAgICAgICAgICAgICAgICAgICAgICAgICAgICAgICAgICAgICAgICAgICAgICAgICAgICAgICAgICAgICAgICAgICAgICAgICAgICAgICAgICAgICAgICAgICAgICAgICAgICAgICAgICAgICAgICAgICAgICAgICAgICAgICAgICAgICAgICAgICAgICAgICAgICAgICAgICAgICAgICAgICAgICAgICAgICAgICAgICAgICAgICAgICAgICAgICAgICAgICAgICAgICAgICAgICAgICAgICAgICAgICAgICAgICAgICAgICAgICAgICAgICAgICAgICAgICAgICAgICAgICAgICAgICAgICAgICAgICAgICAgICAgICAgICAgICAgICAgICAgICAgICAgICAgICAgICAgICAgICAgICAgICAgICAgICAgICAgICAgICAgICAgICAgICAgICAgICAgICAgICAgICAgICAgICAgICAgICAgICAgICAgICAgICAgICAgICAgICAgICAgICAgICAgICAgICAgICAgICAgICAgICAgICAgICAgICAgICAgICAgICAgICAgICAgICAgICAgICAgICAgICAgICAgICAgICAgICAgICAgICAgICAgICAgICAgICAgICAgICAgICAgICAgICAgICAgICAgICAgICAgICAgICAgICAgICAgICAgICAgICAgICAgICAgICAgICAgICAgICAgICAgICAgICAgICAgICAgICAgICAgICAgICAgICAgICAgICAgICAgICAgICAgICAgICAgICAgICAgICAgICAgICAgICAgICAgICAgICAgICAgICAgICAgICAgICAgICAgICAgICAgICAgICAgICAgICAgICAgICAgICAgICAgICAgICAgICAgICAgICAgICAgICAgICAgICAgICAgICAgICAgICAgICAgICAgICAgICAgICAgICAgICAgICAgICAgICAgICAgICAgICAgICAgICAgICAgICAgICAgICAgICAgICAgICAgICAgICAgICAgICAgICAgICAgICAgICAgICAgICAgICAgICAgICAgICAgICAgICAgICAgICAgICAgICAgICAgICAgICAgICAgICAgICAgICAgICAgICAgICAgICAgICAgICAgICAgICAgICAgICAgICAgICAgICAgICAgICAgICAgICAgICAgICAgICAgICAgICAgICAgICAgICAgICAgICAgICAgICAgICAgICAgICAgICAgICAgICAgICAgICAgICAgICAgICAgICAgICAgICAgICAgICAgICAgICAgICAgICAgICAgICAgICAgICAgICAgICAgICAgICAgICAgICAgICAgICAgICAgICAgICAgICAgICAgICAgICAgICAgICAgICAgICAgICAgICAgICAgICAgICAgICAgICAgICAgICAgICAgICAgICAgICAgICAgICAgICAgICAgICAgICAgICAgICAgICAgICAgICAgICAgICAgICAgICAgICAgICAgICAgICAgICAgICAgICAgICAgICAgICAgICAgICAgICAgICAgICAgICAgICAgICAgICAgICAgICAgICAgICAgICAgICAgICAgICAgICAgICAgICAgICAgICAgICAgICAgICAgICAgICAgICAgICAgICAgICAgICAgICAgICAgICAgICAgICAgICAgICAgICAgICAgICAgICAgICAgICAgICAgICAgICAgICAgICAgICAgICAgICAgICAgICAgICAgICAgICAgICAgICAgICAgICAgICAgICAgICAgICAgICAgICAgICAgICAgICAgICAgICAgICAgICAgICAgICAgICAgICAgICAgICAgICAgICAgICAgICAgICAgICAgICAgICAgICAgICAgICAgICAgICAgICAgICAgICAgICAgICAgICAgICAgICAgICAgICAgICAgICAgICAgICAgICAgICAgICAgICAgICAgICAgICAgICAgICAgICAgICAgICAgICAgICAgICAgICAgICAgICAgICAgICAgICAgICAgICAgICAgICAgICAgICAgICAgICAgICAgICAgICAgICAgICAgICAgICAgICAgICAgICAgICAgICAgICAgICAgICAgICAgICAgICAgICAgICAgICAgICAgICAgICAgICAgICAgICAgICAgICAgICAgICAgICAgICAgICAgICAgICAgICAgICAgICAgICAgICAgICAgICAgICAgICAgICAgICAgICAgICAgICAgICAgICAgICAgICAgICAgICAgICAgICAgICAgICAgICAgICAgICAgICAgICAgICAgICAgICAgICAgICAgICAgICAgICAgICAgICAgICAgICAgICAgICAgICAgICAgICAgICAgICAgICAgICAgICAgICAgICAgICAgICAgICAgICAgICAgICAgICAgICAgICAgICAgICAgICAgICAgICAgICAgICAgICAgICAgICAgICAgICAgICAgICAgICAgICAgICAgICAgICAgICAgICAgICAgICAgICAgICAgICAgICAgICAgICAgICAgICAgICAgICAgICAgICAgICAgICAgICAgICAgICAgICAgICAgICAgICAgICAgICAgICAgICAgICAgICAgICAgICAgICAgICAgICAgICAgICAgICAgICAgICAgICAgICAgICAgICAgICAgICAgICAgICAgICAgICAgICAgICAgICAgICAgICAgICAgICAgICAgICAgICAgICAgICAgICAgICAgICAgICAgICAgICAgICAgICAgICAgICAgICAgICAgICAgICAgICAgICAgICAgICAgICAgICAgICAgICAgICAgICAgICAgICAgICAgICAgICAgICAgICAgICAgICAgICAgICAgICAgICAgICAgICAgICAgICAgICAgICAgICAgICAgICAgICAgICAgICAgICAgICAgICAgICAgICAgICAgICAgICAgICAgICAgICAgICAgICAgICAgICAgICAgICAgICAgICAgICAgICAgICAgICAgICAgICAgICAgICAgICAgICAgICAgICAgICAgICAgICAgICAgICAgICAgICAgICAgICAgICAgICAgICAgICAgICAgICAgICAgICAgICAgICAgICAgICAgICAgICAgICAgICAgICAgICAgICAgICAgICAgICAgICAgICAgICAgICAgICAgICAgICAgICAgICAgICAgICAgICAgICAgICAgICAgICAgICAgICAgICAgICAgICAgICAgICAgICAgICAgICAgICAgICAgICAgICAgICAgICAgICAgICAgICAgICAgICAgICAgICAgICAgICAgICAgICAgICAgICAgICAgICAgICAgICAgICAgICAgICAgICAgICAgICAgICAgICAgICAgICAgICAgICAgICAgICAgICAgICAgICAgICAgICAgICAgICAgICAgICAgICAgICAgICAgICAgICAgICAgICAgICAgICAgICAgICAgICAgICAgICAgICAgICAgICAgICAgICAgICAgICAgICAgICAgICAgICAgICAgICAgICAgICAgICAgICAgICAgICAgICAgICAgICAgICAgICAgICAgICAgICAgICAgICAgICAgICAgICAgICAgICAgICAgICAgICAgICAgICAgICAgICAgICAgICAgICAgICAgICAgICAgICAgICAgICAgICAgICAgICAgICAgICAgICAgICAgICAgICAgICAgICAgICAgICAgICAgICAgICAgICAgICAgICAgICAgICAgICAgICAgICAgICAgICAgICAgICAgICAgICAgICAgICAgICAgICAgICAgICAgICAgICAgICAgICAgICAgICAgICAgICAgICAgICAgICAgICAgICAgICAgICAgICAgICAgICAgICAgICAgICAgICAgICAgICAgICAgICAgICAgICAgICAgICAgICAgICAgICAgICAgICAgICAgICAgICAgICAgICAgICAgICAgICAgICAgICAgICAgICAgICAgICAgICAgICAgICAgICAgICAgICAgICAgICAgICAgICAgICAgICAgICAgICAgICAgICAgICAgICAgICAgICAgICAgICAgICAgICAgICAgICAgICAgICAgICAgICAgICAgICAgICAgICAgICAgICAgICAgICAgICAgICAgICAgICAgICAgICAgICAgICAgICAgICAgICAgICAgICAgICAgICAgICAgICAgICAgICAgICAgICAgICAgICAgICAgICAgICAgICAgICAgICAgICAgICAgICAgICAgICAgICAgICAgICAgICAgICAgICAgICAgICAgICAgICAgICAgICAgICAgICAgICAgICAgICAgICAgICAgICAgICAgICAgICAgICAgICAgICAgICAgICAgICAgICAgICAgICAgICAgICAgICAgICAgICAgICAgICAgICAgICAgICAgICAgICAgICAgICAgICAgICAgICAgICAgICAgICAgICAgICAgICAgICAgICAgICAgICAgICAgICAgICAgICAgICAgICAgICAgICAgICAgICAgICAgICAgICAgICAgICAgICAgICAgICAgICAgICAgICAgICAgICAgICAgICAgICAgICAgICAgICAgICAgICAgICAgICAgICAgICAgICAgICAgICAgICAgICAgICAgICAgICAgICAgICAgICAgICAgICAgICAgICAgICAgICAgICAgICAgICAgICAgICAgICAgICAgICAgICAgICAgICAgICAgICAgICAgICAgICAgICAgICAgICAgICAgICAgICAgICAgICAgICAgICAgICAgICAgICAgICAgICAgICAgICAgICAgICAgICAgICAgICAgICAgICAgICAgICAgICAgICAgICAgICAgICAgICAgICAgICAgICAgICAgICAgICAgICAgICAgICAgICAgICAgICAgICAgICAgICAgICAgICAgICAgICAgICAgICAgICAgICAgICAgICAgICAgICAgICAgICAgICAgICAgICAgICAgICAgICAgICAgICAgICAgICAgICAgICAgICAgICAgICAgICAgICAgICAgICAgICAgICAgICAgICAgICAgICAgICAgICAgICAgICAgICAgICAgICAgICAgICAgICAgICAgICAgICAgICAgICAgICAgICAgICAgICAgICAgICAgICAgICAgICAgICAgICAgICAgICAgICAgICAgICAgICAgICAgICAgICAgICAgICAgICAgICAgICAgICAgICAgICAgICAgICAgICAgICAgICAgICAgICAgICAgICAgICAgICAgICAgICAgICAgICAgICAgICAgICAgICAgICAgICAgICAgICAgICAgICAgICAgICAgICAgICAgICAgICAgICAgICAgICAgICAgICAgICAgICAgICAgICAgICAgICAgICAgICAgICAgICAgICAgICAgICAgICAgICAgICAgICAgICAgICAgICAgICAgICAgICAgICAgICAgICAgICAgICAgICAgICAgICAgICAgICAgICAgICAgICAgICAgICAgICAgICAgICAgICAgICAgICAgICAgICAgICAgICAgICAgICAgICAgICAgICAgICAgICAgICAgICAgICAgICAgICAgICAgICAgICAgICAgICAgICAgICAgICAgICAgICAgICAgICAgICAgICAgICAgICAgICAgICAgICAgICAgICAgICAgICAgICAgICAgICAgICAgICAgICAgICAgICAgICAgICAgICAgICAgICAgICAgICAgICAgICAgICAgICAgICAgICAgICAgICAgICAgICAgICAgICAgICAgICAgICAgICAgICAgICAgICAgICAgICAgICAgICAgICAgICAgICAgICAgICAgICAgICAgICAgICAgICAgICAgICAgICAgICAgICAgICAgICAgICAgICAgICAgICAgICAgICAgICAgICAgICAgICAgICAgICAgICAgICAgICAgICAgICAgICAgICAgICAgICAgICAgICAgICAgICAgICAgICAgICAgICAgICAgICAgICAgICAgICAgICAgICAgICAgICAgICAgICAgICAgICAgICAgICAgICAgICAgICAgICAgICAgICAgICAgICAgICAgICAgICAgICAgICAgICAgICAgICAgICAgICAgICAgICAgICAgICAgICAgICAgICAgICAgICAgICAgICAgICAgICAgICAgICAgICAgICAgICAgICAgICAgICAgICAgICAgICAgICAgICAgICAgICAgICAgICAgICAgICAgICAgICAgICAgICAgICAgICAgICAgICAgICAgICAgICAgICAgICAgICAgICAgICAgICAgICAgICAgICAgICAgICAgICAgICAgICAgICAgICAgICAgICAgICAgICAgICAgICAgICAgICAgICAgICAgICAgICAgICAgICAgICAgICAgICAgICAgICAgICAgICAgICAgICAgICAgICAgICAgICAgICAgICAgICAgICAgICAgICAgICAgICAgICAgICAgICAgICAgICAgICAgICAgICAgICAgICAgICAgICAgICAgICAgICAgICAgICAgICAgICAgICAgICAgICAgICAgICAgICAgICAgICAgICAgICAgICAgICAgICAgICAgICAgICAgICAgICAgICAgICAgICAgICAgICAgICAgICAgICAgICAgICAgICAgICAgICAgICAgICAgICAgICAgICAgICAgICAgICAgICAgICAgICAgICAgICAgICAgICAgICAgICAgICAgICAgICAgICAgICAgICAgICAgICAgICAgICAgICAgICAgICAgICAgICAgICAgICAgICAgICAgICAgICAgICAgICAgICAgICAgICAgICAgICAgICAgICAgICAgICAgICAgICAgICAgICAgICAgICAgICAgICAgICAgICAgICAgICAgICAgICAgICAgICAgICAgICAgICAgICAgICAgICAgICAgICAgICAgICAgICAgICAgICAgICAgICAgICAgICAgICAgICAgICAgICAgICAgICAgICAgICAgICAgICAgICAgICAgICAgICAgICAgICAgICAgICAgICAgICAgICAgICAgICAgICAgICAgICAgICAgICAgICAgICAgICAgICAgICAgICAgICAgICAgICAgICAgICAgICAgICAgICAgICAgICAgICAgICAgICAgICAgICAgICAgICAgICAgICAgICAgICAgICAgICAgICAgICAgICAgICAgICAgICAgICAgICAgICAgICAgICAgICAgICAgICAgICAgICAgICAgICAgICAgICAgICAgICAgICAgICAgICAgICAgICAgICAgICAgICAgICAgICAgICAgICAgICAgICAgICAgICAgICAgICAgICAgICAgICAgICAgICAgICAgICAgICAgICAgICAgICAgICAgICAgICAgICAgICAgICAgICAgICAgICAgICAgICAgICAgICAgICAgICAgICAgICAgICAgICAgICAgICAgICAgICAgICAgICAgICAgICAgICAgICAgICAgICAgICAgICAgICAgICAgICAgICAgICAgICAgICAgICAgICAgICAgICAgICAgICAgICAgICAgICAgICAgICAgICAgICAgICAgICAgICAgICAgICAgICAgICAgICAgICAgICAgICAgICAgICAgICAgICAgICAgICAgICAgICAgICAgICAgICAgICAgICAgICAgICAgICAgICAgICAgICAgICAgICAgICAgICAgICAgICAgICAgICAgICAgICAgICAgICAgICAgICAgICAgICAgICAgICAgICAgICAgICAgICAgICAgICAgICAgICAgICAgICAgICAgICAgICAgICAgICAgICAgICAgICAgICAgICAgICAgICAgICAgICAgICAgICAgICAgICAgICAgICAgICAgICAgICAgICAgICAgICAgICAgICAgICAgICAgICAgICAgICAgICAgICAgICAgICAgICAgICAgICAgICAgICAgICAgICAgICAgICAgICAgICAgICAgICAgICAgICAgICAgICAgICAgICAgICAgICAgICAgICAgICAgICAgICAgICAgICAgICAgICAgICAgICAgICAgICAgICAgICAgICAgICAgICAgICAgICAgICAgICAgICAgICAgICAgICAgICAgICAgICAgICAgICAgICAgICAgICAgICAgICAgICAgICAgICAgICAgICAgICAgICAgICAgICAgICAgICAgICAgICAgICAgICAgICAgICAgICAgICAgICAgICAgICAgICAgICAgICAgICAgICAgICAgICAgICAgICAgICAgICAgICAgICAgICAgICAgICAgICAgICAgICAgICAgICAgICAgICAgICAgICAgICAgICAgICAgICAgICAgICAgICAgICAgICAgICAgICAgICAgICAgICAgICAgICAgICAgICAgICAgICAgICAgICAgICAgICAgICAgICAgICAgICAgICAgICAgICAgICAgICAgICAgICAgICAgICAgICAgICAgICAgICAgICAgICAgICAgICAgICAgICAgICAgICAgICAgICAgICAgICAgICAgICAgICAgICAgICAgICAgICAgICAgICAgICAgICAgICAgICAgICAgICAgICAgICAgICAgICAgICAgICAgICAgICAgICAgICAgICAgICAgICAgICAgICAgICAgICAgICAgICAgICAgICAgICAgICAgICAgICAgICAgICAgICAgICAgICAgICAgICAgICAgICAgICAgICAgICAgICAgICAgICAgICAgICAgICAgICAgICAgICAgICAgICAgICAgICAgICAgICAgICAgICAgICAgICAgICAgICAgICAgICAgICAgICAgICAgICAgICAgICAgICAgICAgICAgICAgICAgICAgICAgICAgICAgICAgICAgICAgICAgICAgICAgICAgICAgICAgICAgICAgICAgICAgICAgICAgICAgICAgICAgICAgICAgICAgICAgICAgICAgICAgICAgICAgICAgICAgICAgICAgICAgICAgICAgICAgICAgICAgICAgICAgICAgICAgICAgICAgICAgICAgICAgICAgICAgICAgICAgICAgICAgICAgICAgICAgICAgICAgICAgICAgICAgICAgICAgICAgICAgICAgICAgICAgICAgICAgICAgICAgICAgICAgICAgICAgICAgICAgICAgICAgICAgICAgICAgICAgICAgICAgICAgICAgICAgICAgICAgICAgICAgICAgICAgICAgICAgICAgICAgICAgICAgICAgICAgICAgICAgICAgICAgICAgICAgICAgICAgICAgICAgICAgICAgICAgICAgICAgICAgICAgICAgICAgICAgICAgICAgICAgICAgICAgICAgICAgICAgICAgICAgICAgICAgICAgICAgICAgICAgICAgICAgICAgICAgICAgICAgICAgICAgICAgICAgICAgICAgICAgICAgICAgICAgICAgICAgICAgICAgICAgICAgICAgICAgICAgICAgICAgICAgICAgICAgICAgICAgICAgICAgICAgICAgICAgICAgICAgICAgICAgICAgICAgICAgICAgICAgICAgICAgICAgICAgICAgICAgICAgICAgICAgICAgICAgICAgICAgICAgICAgICAgICAgICAgICAgICAgICAgICAgICAgICAgICAgICAgICAgICAgICAgICAgICAgICAgICAgICAgICAgICAgICAgICAgICAgICAgICAgICAgICAgICAgICAgICAgICAgICAgICAgICAgICAgICAgICAgICAgICAgICAgICAgICAgICAgICAgICAgICAgICAgICAgICAgICAgICAgICAgICAgICAgICAgICAgICAgICAgICAgICAgICAgICAgICAgICAgICAgICAgICAgICAgICAgICAgICAgICAgICAgICAgICAgICAgICAgICAgICAgICAgICAgICAgICAgICAgICAgICAgICAgICAgICAgICAgICAgICAgICAgICAgICAgICAgICAgICAgICAgICAgICAgICAgICAgICAgICAgICAgICAgICAgICAgICAgICAgICAgICAgICAgICAgICAgICAgICAgICAgICAgICAgICAgICAgICAgICAgICAgICAgICAgICAgICAgICAgICAgICAgICAgICAgICAgICAgICAgICAgICAgICAgICAgICAgICAgICAgICAgICAgICAgICAgICAgICAgICAgICAgICAgICAgICAgICAgICAgICAgICAgICAgICAgICAgICAgICAgICAgICAgICAgICAgICAgICAgICAgICAgICAgICAgICAgICAgICAgICAgICAgICAgICAgICAgICAgICAgICAgICAgICAgICAgICAgICAgICAgICAgICAgICAgICAgICAgICAgICAgICAgICAgICAgICAgICAgICAgICAgICAgICAgICAgICAgICAgICAgICAgICAgICAgICAgICAgICAgICAgICAgICAgICAgICAgICAgICAgICAgICAgICAgICAgICAgICAgICAgICAgICAgICAgICAgICAgICAgICAgICAgICAgICAgICAgICAgICAgICAgICAgICAgICAgICAgICAgICAgICAgICAgICAgICAgICAgICAgICAgICAgICAgICAgICAgICAgICAgICAgICAgICAgICAgICAgICAgICAgICAgICAgICAgICAgICAgICAgICAgICAgICAgICAgICAgICAgICAgICAgICAgICAgICAgICAgICAgICAgICAgICAgICAgICAgICAgICAgICAgICAgICAgICAgICAgICAgICAgICAgICAgICAgICAgICAgICAgICAgICAgICAgICAgICAgICAgICAgICAgICAgICAgICAgICAgICAgICAgICAgICAgICAgICAgICAgICAgICAgICAgICAgICAgICAgICAgICAgICAgICAgICAgICAgICAgICAgICAgICAgICAgICAgICAgICAgICAgICAgICAgICAgICAgICAgICAgICAgICAgICAgICAgICAgICAgICAgICAgICAgICAgICAgICAgICAgICAgICAgICAgICAgICAgICAgICAgICAgICAgICAgICAgICAgICAgICAgICAgICAgICAgICAgICAgICAgICAgICAgICAgICAgICAgICAgICAgICAgICAgICAgICAgICAgICAgICAgICAgICAgICAgICAgICAgICAgICAgICAgICAgICAgICAgICAgICAgICAgICAgICAgICAgICAgICAgICAgICAgICAgICAgICAgICAgICAgICAgICAgICAgICAgICAgICAgICAgICAgICAgICAgICAgICAgICAgICAgICAgICAgICAgICAgICAgICAgICAgICAgICAgICAgICAgICAgICAgICAgICAgICAgICAgICAgICAgICAgICAgICAgICAgICAgICAgICAgICAgICAgICAgICAgICAgICAgICAgICAgICAgICAgICAgICAgICAgICAgICAgICAgICAgICAgICAgICAgICAgICAgICAgICAgICAgICAgICAgICAgICAgICAgICAgICAgICAgICAgICAgICAgICAgICAgICAgICAgICAgICAgICAgICAgICAgICAgICAgICAgICAgICAgICAgICAgICAgICAgICAgICAgICAgICAgICAgICAgICAgICAgICAgICAgICAgICAgICAgICAgICAgICAgICAgICAgICAgICAgICAgICAgICAgICAgICAgICAgICAgICAgICAgICAgICAgICAgICAgICAgICAgICAgICAgICAgICAgICAgICAgICAgICAgICAgICAgICAgICAgICAgICAgICAgICAgICAgICAgICAgICAgICAgICAgICAgICAgICAgICAgICAgICAgICAgICAgICAgICAgICAgICAgICAgICAgICAgICAgICAgICAgICAgICAgICAgICAgICAgICAgICAgICAgICAgICAgICAgICAgICAgICAgICAgICAgICAgICAgICAgICAgICAgICAgICAgICAgICAgICAgICAgICAgICAgICAgICAgICAgICAgICAgICAgICAgICAgICAgICAgICAgICAgICAgICAgICAgICAgICAgICAgICAgICAgICAgICAgICAgICAgICAgICAgICAgICAgICAgICAgICAgICAgICAgICAgICAgICAgICAgICAgICAgICAgICAgICAgICAgICAgICAgICAgICAgICAgICAgICAgICAgICAgICAgICAgICAgICAgICAgICAgICAgICAgICAgICAgICAgICAgICAgICAgICAgICAgICAgICAgICAgICAgICAgICAgICAgICAgICAgICAgICAgICAgICAgICAgICAgICAgICAgICAgICAgICAgICAgICAgICAgICAgICAgICAgICAgICAgICAgICAgICAgICAgICAgICAgICAgICAgICAgICAgICAgICAgICAgICAgICAgICAgICAgICAgICAgICAgICAgICAgICAgICAgICAgICAgICAgICAgICAgICAgICAgICAgICAgICAgICAgICAgICAgICAgICAgICAgICAgICAgICAgICAgICAgICAgICAgICAgICAgICAgICAgICAgICAgICAgICAgICAgICAgICAgICAgICAgICAgICAgICAgICAgICAgICAgICAgICAgICAgICAgICAgICAgICAgICAgICAgICAgICAgICAgICAgICAgICAgICAgICAgICAgICAgICAgICAgICAgICAgICAgICAgICAgICAgICAgICAgICAgICAgICAgICAgICAgICAgICAgICAgICAgICAgICAgICAgICAgICAgICAgICAgICAgICAgICAgICAgICAgICAgICAgICAgICAgICAgICAgICAgICAgICAgICAgICAgICAgICAgICAgICAgICAgICAgICAgICAgICAgICAgICAgICAgICAgICAgICAgICAgICAgICAgICAgICAgICAgICAgICAgICAgICAgICAgICAgICAgICAgICAgICAgICAgICAgICAgICAgICAgICAgICAgICAgICAgICAgICAgICAgICAgICAgICAgICAgICAgICAgICAgICAgICAgICAgICAgICAgICAgICAgICAgICAgICAgICAgICAgICAgICAgICAgICAgICAgICAgICAgICAgICAgICAgICAgICAgICAgICAgICAgICAgICAgICAgICAgICAgICAgICAgICAgICAgICAgICAgICAgICAgICAgICAgICAgICAgICAgICAgICAgICAgICAgICAgICAgICAgICAgICAgICAgICAgICAgICAgICAgICAgICAgICAgICAgICAgICAgICAgICAgICAgICAgICAgICAgICAgICAgICAgICAgICAgICAgICAgICAgICAgICAgICAgICAgICAgICAgICAgICAgICAgICAgICAgICAgICAgICAgICAgICAgICAgICAgICAgICAgICAgICAgICAgICAgICAgICAgICAgICAgICAgICAgICAgICAgICAgICAgICAgICAgICAgICAgICAgICAgICAgICAgICAgICAgICAgICAgICAgICAgICAgICAgICAgICAgICAgICAgICAgICAgICAgICAgICAgICAgICAgICAgICAgICAgICAgICAgICAgICAgICAgICAgICAgICAgICAgICAgICAgICAgICAgICAgICAgICAgICAgICAgICAgICAgICAgICAgICAgICAgICAgICAgICAgICAgICAgICAgICAgICAgICAgICAgICAgICAgICAgICAgICAgICAgICAgICAgICAgICAgICAgICAgICAgICAgICAgICAgICAgICAgICAgICAgICAgICAgICAgICAgICAgICAgICAgICAgICAgICAgICAgICAgICAgICAgICAgICAgICAgICAgICAgICAgICAgICAgICAgICAgICAgICAgICAgICAgICAgICAgICAgICAgICAgICAgICAgICAgICAgICAgICAgICAgICAgICAgICAgICAgICAgICAgICAgICAgICAgICAgICAgICAgICAgICAgICAgICAgICAgICAgICAgICAgICAgICAgICAgICAgICAgICAgICAgICAgICAgICAgICAgICAgICAgICAgICAgICAgICAgICAgICAgICAgICAgICAgICAgICAgICAgICAgICAgICAgICAgICAgICAgICAgICAgICAgICAgICAgICAgICAgICAgICAgICAgICAgICAgICAgICAgICAgICAgICAgICAgICAgICAgICAgICAgICAgICAgICAgICAgICAgICAgICAgICAgICAgICAgICAgICAgICAgICAgICAgICAgICAgICAgICAgICAgICAgICAgICAgICAgICAgICAgICAgICAgICAgICAgICAgICAgICAgICAgICAgICAgICAgICAgICAgICAgICAgICAgICAgICAgICAgICAgICAgICAgICAgICAgICAgICAgICAgICAgICAgICAgICAgICAgICAgICAgICAgICAgICAgICAgICAgICAgICAgICAgICAgICAgICAgICAgICAgICAgICAgICAgICAgICAgICAgICAgICAgICAgICAgICAgICAgICAgICAgICAgICAgICAgICAgICAgICAgICAgICAgICAgICAgICAgICAgICAgICAgICAgICAgICAgICAgICAgICAgICAgICAgICAgICAgICAgICAgICAgICAgICAgICAgICAgICAgICAgICAgICAgICAgICAgICAgICAgICAgICAgICAgICAgICAgICAgICAgICAgICAgICAgICAgICAgICAgICAgICAgICAgICAgICAgICAgICAgICAgICAgICAgICAgICAgICAgICAgICAgICAgICAgICAgICAgICAgICAgICAgICAgICAgICAgICAgICAgICAgICAgICAgICAgICAgICAgICAgICAgICAgICAgICAgICAgICAgICAgICAgICAgICAgICAgICAgICAgICAgICAgICAgICAgICAgICAgICAgICAgICAgICAgICAgICAgICAgICAgICAgICAgICAgICAgICAgICAgICAgICAgICAgICAgICAgICAgICAgICAgICAgICAgICAgICAgICAgICAgICAgICAgICAgICAgICAgICAgICAgICAgICAgICAgICAgICAgICAgICAgICAgICAgICAgICAgICAgICAgICAgICAgICAgICAgICAgICAgICAgICAgICAgICAgICAgICAgICAgICAgICAgICAgICAgICAgICAgICAgICAgICAgICAgICAgICAgICAgICAgICAgICAgICAgICAgICAgICAgICAgICAgICAgICAgICAgICAgICAgICAgICAgICAgICAgICAgICAgICAgICAgICAgICAgICAgICAgICAgICAgICAgICAgICAgICAgICAgICAgICAgICAgICAgICAgICAgICAgICAgICAgICAgICAgICAgICAgICAgICAgICAgICAgICAgICAgICAgICAgICAgICAgICAgICAgICAgICAgICAgICAgICAgICAgICAgICAgICAgICAgICAgICAgICAgICAgICAgICAgICAgICAgICAgICAgICAgICAgICAgICAgICAgICAgICAgICAgICAgICAgICAgICAgICAgICAgICAgICAgICAgICAgICAgICAgICAgICAgICAgICAgICAgICAgICAgICAgICAgICAgICAgICAgICAgICAgICAgICAgICAgICAgICAgICAgICAgICAgICAgICAgICAgICAgICAgICAgICAgICAgICAgICAgICAgICAgICAgICAgICAgICAgICAgICAgICAgICAgICAgICAgICAgICAgICAgICAgICAgICAgICAgICAgICAgICAgICAgICAgICAgICAgICAgICAgICAgICAgICAgICAgICAgICAgICAgICAgICAgICAgICAgICAgICAgICAgICAgICAgICAgICAgICAgICAgICAgICAgICAgICAgICAgICAgICAgICAgICAgICAgICAgICAgICAgICAgICAgICAgICAgICAgICAgICAgICAgICAgICAgICAgICAgICAgICAgICAgICAgICAgICAgICAgICAgICAgICAgICAgICAgICAgICAgICAgICAgICAgICAgICAgICAgICAgICAgICAgICAgICAgICAgICAgICAgICAgICAgICAgICAgICAgICAgICAgICAgICAgICAgICAgICAgICAgICAgICAgICAgICAgICAgICAgICAgICAgICAgICAgICAgICAgICAgICAgICAgICAgICAgICAgICAgICAgICAgICAgICAgICAgICAgICAgICAgICAgICAgICAgICAgICAgICAgICAgICAgICAgICAgICAgICAgICAgICAgICAgICAgICAgICAgICAgICAgICAgICAgICAgICAgICAgICAgICAgICAgICAgICAgICAgICAgICAgICAgICAgICAgICAgICAgICAgICAgICAgICAgICAgICAgICAgICAgICAgICAgICAgICAgICAgICAgICAgICAgICAgICAgICAgICAgICAgICAgICAgICAgICAgICAgICAgICAgICAgICAgICAgICAgICAgICAgICAgICAgICAgICAgICAgICAgICAgICAgICAgICAgICAgICAgICAgICAgICAgICAgICAgICAgICAgICAgICAgICAgICAgICAgICAgICAgICAgICAgICAgICAgICAgICAgICAgICAgICAgICAgICAgICAgICAgICAgICAgICAgICAgICAgICAgICAgICAgICAgICAgICAgICAgICAgICAgICAgICAgICAgICAgICAgICAgICAgICAgICAgICAgICAgICAgICAgICAgICAgICAgICAgICAgICAgICAgICAgICAgICAgICAgICAgICAgICAgICAgICAgICAgICAgICAgICAgICAgICAgICAgICAgICAgICAgICAgICAgICAgICAgICAgICAgICAgICAgICAgICAgICAgICAgICAgICAgICAgICAgICAgICAgICAgICAgICAgICAgICAgICAgICAgICAgICAgICAgICAgICAgICAgICAgICAgICAgICAgICAgICAgICAgICAgICAgICAgICAgICAgICAgICAgICAgICAgICAgICAgICAgICAgICAgICAgICAgICAgICAgICAgICAgICAgICAgICAgICAgICAgICAgICAgICAgICAgICAgICAgICAgICAgICAgICAgICAgICAgICAgICAgICAgICAgICAgICAgICAgICAgICAgICAgICAgICAgICAgICAgICAgICAgICAgICAgICAgICAgICAgICAgICAgICAgICAgICAgICAgICAgICAgICAgICAgICAgICAgICAgICAgICAgICAgICAgICAgICAgICAgICAgICAgICAgICAgICAgICAgICAgICAgICAgICAgICAgICAgICAgICAgICAgICAgICAgICAgICAgICAgICAgICAgICAgICAgICAgICAgICAgICAgICAgICAgICAgICAgICAgICAgICAgICAgICAgICAgICAgICAgICAgICAgICAgICAgICAgICAgICAgICAgICAgICAgICAgICAgICAgICAgICAgICAgICAgICAgICAgICAgICAgICAgICAgICAgICAgICAgICAgICAgICAgICAgICAgICAgICAgICAgICAgICAgICAgICAgICAgICAgICAgICAgICAgICAgICAgICAgICAgICAgICAgICAgICAgICAgICAgICAgICAgICAgICAgICAgICAgICAgICAgICAgICAgICAgICAgICAgICAgICAgICAgICAgICAgICAgICAgICAgICAgICAgICAgICAgICAgICAgICAgICAgICAgICAgICAgICAgICAgICAgICAgICAgICAgICAgICAgICAgICAgICAgICAgICAgICAgICAgICAgICAgICAgICAgICAgICAgICAgICAgICAgICAgICAgICAgICAgICAgICAgICAgICAgICAgICAgICAgICAgICAgICAgICAgICAgICAgICAgICAgICAgICAgICAgICAgICAgICAgICAgICAgICAgICAgICAgICAgICAgICAgICAgICAgICAgICAgICAgICAgICAgICAgICAgICAgICAgICAgICAgICAgICAgICAgICAgICAgICAgICAgICAgICAgICAgICAgICAgICAgICAgICAgICAgICAgICAgICAgICAgICAgICAgICAgICAgICAgICAgICAgICAgICAgICAgICAgICAgICAgICAgICAgICAgICAgICAgICAgICAgICAgICAgICAgICAgICAgICAgICAgICAgICAgICAgICAgICAgICAgICAgICAgICAgICAgICAgICAgICAgICAgICAgICAgICAgICAgICAgICAgICAgICAgICAgICAgICAgICAgICAgICAgICAgICAgICAgICAgICAgICAgICAgICAgICAgICAgICAgICAgICAgICAgICAgICAgICAgICAgICAgICAgICAgICAgICAgICAgICAgICAgICAgICAgICAgICAgICAgICAgICAgICAgICAgICAgICAgICAgICAgICAgICAgICAgICAgICAgICAgICAgICAgICAgICAgICAgICAgICAgICAgICAgICAgICAgICAgICAgICAgICAgICAgICAgICAgICAgICAgICAgICAgICAgICAgICAgICAgICAgICAgICAgICAgICAgICAgICAgICAgICAgICAgICAgICAgICAgICAgICAgICAgICAgICAgICAgICAgICAgICAgICAgICAgICAgICAgICAgICAgICAgICAgICAgICAgICAgICAgICAgICAgICAgICAgICAgICAgICAgICAgICAgICAgICAgICAgICAgICAgICAgICAgICAgICAgICAgICAgICAgICAgICAgICAgICAgICAgICAgICAgICAgICAgICAgICAgICAgICAgICAgICAgICAgICAgICAgICAgICAgICAgICAgICAgICAgICAgICAgICAgICAgICAgICAgICAgICAgICAgICAgICAgICAgICAgICAgICAgICAgICAgICAgICAgICAgICAgICAgICAgICAgICAgICAgICAgICAgICAgICAgICAgICAgICAgICAgICAgICAgICAgICAgICAgICAgICAgICAgICAgICAgICAgICAgICAgICAgICAgICAgICAgICAgICAgICAgICAgICAgICAgICAgICAgICAgICAgICAgICAgICAgICAgICAgICAgICAgICAgICAgICAgICAgICAgICAgICAgICAgICAgICAgICAgICAgICAgICAgICAgICAgICAgICAgICAgICAgICAgICAgICAgICAgICAgICAgICAgICAgICAgICAgICAgICAgICAgICAgICAgICAgICAgICAgICAgICAgICAgICAgICAgICAgICAgICAgICAgICAgICAgICAgICAgICAgICAgICAgICAgICAgICAgICAgICAgICAgICAgICAgICAgICAgICAgICAgICAgICAgICAgICAgICAgICAgICAgICAgICAgICAgICAgICAgICAgICAgICAgICAgICAgICAgICAgICAgICAgICAgICAgICAgICAgICAgICAgICAgICAgICAgICAgICAgICAgICAgICAgICAgICAgICAgICAgICAgICAgICAgICAgICAgICAgICAgICAgICAgICAgICAgICAgICAgICAgICAgICAgICAgICAgICAgICAgICAgICAgICAgICAgICAgICAgICAgICAgICAgICAgICAgICAgICAgICAgICAgICAgICAgICAgICAgICAgICAgICAgICAgICAgICAgICAgICAgICAgICAgICAgICAgICAgICAgICAgICAgICAgICAgICAgICAgICAgICAgICAgICAgICAgICAgICAgICAgICAgICAgICAgICAgICAgICAgICAgICAgICAgICAgICAgICAgICAgICAgICAgICAgICAgICAgICAgICAgICAgICAgICAgICAgICAgICAgICAgICAgICAgICAgICAgICAgICAgICAgICAgICAgICAgICAgICAgICAgICAgICAgICAgICAgICAgICAgICAgICAgICAgICAgICAgICAgICAgICAgICAgICAgICAgICAgICAgICAgICAgICAgICAgICAgICAgICAgICAgICAgICAgICAgICAgICAgICAgICAgICAgICAgICAgICAgICAgICAgICAgICAgICAgICAgICAgICAgICAgICAgICAgICAgICAgICAgICAgICAgICAgICAgICAgICAgICAgICAgICAgICAgICAgICAgICAgICAgICAgICAgICAgICAgICAgICAgICAgICAgICAgICAgICAgICAgICAgICAgICAgICAgICAgICAgICAgICAgICAgICAgICAgICAgICAgICAgICAgICAgICAgICAgICAgICAgICAgICAgICAgICAgICAgICAgICAgICAgICAgICAgICAgICAgICAgICAgICAgICAgICAgICAgICAgICAgICAgICAgICAgICAgICAgICAgICAgICAgICAgICAgICAgICAgICAgICAgICAgICAgICAgICAgICAgICAgICAgICAgICAgICAgICAgICAgICAgICAgICAgICAgICAgICAgICAgICAgICAgICAgICAgICAgICAgICAgICAgICAgICAgICAgICAgICAgICAgICAgICAgICAgICAgICAgICAgICAgICAgICAgICAgICAgICAgICAgICAgICAgICAgICAgICAgICAgICAgICAgICAgICAgICAgICAgICAgICAgICAgICAgICAgICAgICAgICAgICAgICAgICAgICAgICAgICAgICAgICAgICAgICAgICAgICAgICAgICAgICAgICAgICAgICAgICAgICAgICAgICAgICAgICAgICAgICAgICAgICAgICAgICAgICAgICAgICAgICAgICAgICAgICAgICAgICAgICAgICAgICAgICAgICAgICAgICAgICAgICAgICAgICAgICAgICAgICAgICAgICAgICAgICAgICAgICAgICAgICAgICAgICAgICAgICAgICAgICAgICAgICAgICAgICAgICAgICAgICAgICAgICAgICAgICAgICAgICAgICAgICAgICAgICAgICAgICAgICAgICAgICAgICAgICAgICAgICAgICAgICAgICAgICAgICAgICAgICAgICAgICAgICAgICAgICAgICAgICAgICAgICAgICAgICAgICAgICAgICAgICAgICAgICAgICAgICAgICAgICAgICAgICAgICAgICAgICAgICAgICAgICAgICAgICAgICAgICAgICAgICAgICAgICAgICAgICAgICAgICAgICAgICAgICAgICAgICAgICAgICAgICAgICAgICAgICAgICAgICAgICAgICAgICAgICAgICAgICAgICAgICAgICAgICAgICAgICAgICAgICAgICAgICAgICAgICAgICAgICAgICAgICAgICAgICAgICAgICAgICAgICAgICAgICAgICAgICAgICAgICAgICAgICAgICAgICAgICAgICAgICAgICAgICAgICAgICAgICAgICAgICAgICAgICAgICAgICAgICAgICAgICAgICAgICAgICAgICAgICAgICAgICAgICAgICAgICAgICAgICAgICAgICAgICAgICAgICAgICAgICAgICAgICAgICAgICAgICAgICAgICAgICAgICAgICAgICAgICAgICAgICAgICAgICAgICAgICAgICAgICAgICAgICAgICAgICAgICAgICAgICAgICAgICAgICAgICAgICAgICAgICAgICAgICAgICAgICAgICAgICAgICAgICAgICAgICAgICAgICAgICAgICAgICAgICAgICAgICAgICAgICAgICAgICAgICAgICAgICAgICAgICAgICAgICAgICAgICAgICAgICAgICAgICAgICAgICAgICAgICAgICAgICAgICAgICAgICAgICAgICAgICAgICAgICAgICAgICAgICAgICAgICAgICAgICAgICAgICAgICAgICAgICAgICAgICAgICAgICAgICAgICAgICAgICAgICAgICAgICAgICAgICAgICAgICAgICAgICAgICAgICAgICAgICAgICAgICAgICAgICAgICAgICAgICAgICAgICAgICAgICAgICAgICAgICAgICAgICAgICAgICAgICAgICAgICAgICAgICAgICAgICAgICAgICAgICAgICAgICAgICAgICAgICAgICAgICAgICAgICAgICAgICAgICAgICAgICAgICAgICAgICAgICAgICAgICAgICAgICAgICAgICAgICAgICAgICAgICAgICAgICAgICAgICAgICAgICAgICAgICAgICAgICAgICAgICAgICAgICAgICAgICAgICAgICAgICAgICAgICAgICAgICAgICAgICAgICAgICAgICAgICAgICAgICAgICAgICAgICAgICAgICAgICAgICAgICAgICAgICAgICAgICAgICAgICAgICAgICAgICAgICAgICAgICAgICAgICAgICAgICAgICAgICAgICAgICAgICAgICAgICAgICAgICAgICAgICAgICAgICAgICAgICAgICAgICAgICAgICAgICAgICAgICAgICAgICAgICAgICAgICAgICAgICAgICAgICAgICAgICAgICAgICAgICAgICAgICAgICAgICAgICAgICAgICAgICAgICAgICAgICAgICAgICAgICAgICAgICAgICAgICAgICAgICAgICAgICAgICAgICAgICAgICAgICAgICAgICAgICAgICAgICAgICAgICAgICAgICAgICAgICAgICAgICAgICAgICAgICAgICAgICAgICAgICAgICAgICAgICAgICAgICAgICAgICAgICAgICAgICAgICAgICAgICAgICAgICAgICAgICAgICAgICAgICAgICAgICAgICAgICAgICAgICAgICAgICAgICAgICAgICAgICAgICAgICAgICAgICAgICAgICAgICAgICAgICAgICAgICAgICAgICAgICAgICAgICAgICAgICAgICAgICAgICAgICAgICAgICAgICAgICAgICAgICAgICAgICAgICAgICAgICAgICAgICAgICAgICAgICAgICAgICAgICAgICAgICAgICAgICAgICAgICAgICAgICAgICAgICAgICAgICAgICAgICAgICAgICAgICAgICAgICAgICAgICAgICAgICAgICAgICAgICAgICAgICAgICAgICAgICAgICAgICAgICAgICAgICAgICAgICAgICAgICAgICAgICAgICAgICAgICAgICAgICAgICAgICAgICAgICAgICAgICAgICAgICAgICAgICAgICAgICAgICAgICAgICAgICAgICAgICAgICAgICAgICAgICAgICAgICAgICAgICAgICAgICAgICAgICAgICAgICAgICAgICAgICAgICAgICAgICAgICAgICAgICAgICAgICAgICAgICAgICAgICAgICAgICAgICAgICAgICAgICAgICAgICAgICAgICAgICAgICAgICAgICAgICAgICAgICAgICAgICAgICAgICAgICAgICAgICAgICAgICAgICAgICAgICAgICAgICAgICAgICAgICAgICAgICAgICAgICAgICAgICAgICAgICAgICAgICAgICAgICAgICAgICAgICAgICAgICAgICAgICAgICAgICAgICAgICAgICAgICAgICAgICAgICAgICAgICAgICAgICAgICAgICAgICAgICAgICAgICAgICAgICAgICAgICAgICAgICAgICAgICAgICAgICAgICAgICAgICAgICAgICAgICAgICAgICAgICAgICAgICAgICAgICAgICAgICAgICAgICAgICAgICAgICAgICAgICAgICAgICAgICAgICAgICAgICAgICAgICAgICAgICAgICAgICAgICAgICAgICAgICAgICAgICAgICAgICAgICAgICAgICAgICAgICAgICAgICAgICAgICAgICAgICAgICAgICAgICAgICAgICAgICAgICAgICAgICAgICAgICAgICAgICAgICAgICAgICAgICAgICAgICAgICAgICAgICAgICAgICAgICAgICAgICAgICAgICAgICAgICAgICAgICAgICAgICAgICAgICAgICAgICAgICAgICAgICAgICAgICAgICAgICAgICAgICAgICAgICAgICAgICAgICAgICAgICAgICAgICAgICAgICAgICAgICAgICAgICAgICAgICAgICAgICAgICAgICAgICAgICAgICAgICAgICAgICAgICAgICAgICAgICAgICAgICAgICAgICAgICAgICAgICAgICAgICAgICAgICAgICAgICAgICAgICAgICAgICAgICAgICAgICAgICAgICAgICAgICAgICAgICAgICAgICAgICAgICAgICAgICAgICAgICAgICAgICAgICAgICAgICAgICAgICAgICAgICAgICAgICAgICAgICAgICAgICAgICAgICAg;" vertex="1" parent="1">
                    <mxGeometry x="222" y="420.5" width="36" height="36" as="geometry"/>
                </mxCell>
                <mxCell id="12" style="edgeStyle=none;html=1;exitX=1.012;exitY=0.372;exitDx=0;exitDy=0;exitPerimeter=0;entryX=0;entryY=0.5;entryDx=0;entryDy=0;" edge="1" parent="1" source="14" target="17">
                    <mxGeometry relative="1" as="geometry"/>
                </mxCell>
                <mxCell id="13" style="edgeStyle=none;html=1;entryX=0;entryY=0.5;entryDx=0;entryDy=0;exitX=1.02;exitY=0.633;exitDx=0;exitDy=0;exitPerimeter=0;" edge="1" parent="1" source="14" target="20">
                    <mxGeometry relative="1" as="geometry"/>
                </mxCell>
                <mxCell id="14" value="" style="rounded=0;whiteSpace=wrap;html=1;" vertex="1" parent="1">
                    <mxGeometry x="360" y="400" width="80" height="79" as="geometry"/>
                </mxCell>
                <mxCell id="15" value="" style="sketch=0;aspect=fixed;html=1;points=[];align=center;image;fontSize=12;image=img/lib/mscae/Docker.svg;" vertex="1" parent="1">
                    <mxGeometry x="410" y="390" width="37.2" height="30.5" as="geometry"/>
                </mxCell>
                <mxCell id="16" value="" style="shape=image;verticalLabelPosition=bottom;labelBackgroundColor=default;verticalAlign=top;aspect=fixed;imageAspect=0;image=data:image/png,iVBORw0KGgoAAAANSUhEUgAAAggAAAEECAYAAABN1syFAAAAAXNSR0IArs4c6QAAIABJREFUeF7tnQmYHFW1+H+3emYyWVgTVkHZQrp7wiLwlAcCBpAlAiGZ7mZ9IiICKsgTXPEvUQQRVBRFDY9FEQV6uicgGBGQILIIRjCSme5JEFD2JexZZuk6/69mwp6ku6erqms59/vyJTD3nuV37vScqbr3HIMOJaAElIASUAJKQAm8i4BRIkpACSgBJaAElIASeDcBTRB0TygBJaAElIASUALvIaAJgm4KJaAElIASUAJKQBME3QNKQAkoASWgBJRAdQL6BKE6I52hBJSAElACSiB2BDRBiF3I1WEloASUgBJQAtUJaIJQnZHOUAJKQAkoASUQOwKaIMQu5OqwElACSkAJKIHqBDRBqM5IZygBJaAElIASiB0BTRBiF3J1WAkoASWgBJRAdQKaIFRnpDOUgBJQAkpACcSOgCYIsQu5OqwElIASUAJKoDoBTRCqM9IZSkAJKAEloARiR0AThNiFXB1WAkpACSgBJVCdgCYI1RnpDCWgBJSAElACsSOgCULsQq4OKwEloASUgBKoTkAThOqMdIYSUAJKQAkogdgR0AQhdiFXh5WAElACSkAJVCegCUJ1RjpDCSgBJaAElEDsCGiCELuQq8NKQAkoASWgBKoT0AShOiOdoQSUgBJQAkogdgQ0QYhdyNVhJaAElIASUALVCWiCUJ2RzlACSkAJKAElEDsCmiDELuTqsBJQAkpACSiB6gQ0QajOSGcoASWgBJSAEogdAU0QYhdydVgJKAEloASUQHUCmiBUZ6QzlIASUAJKQAnEjoAmCLELuTqsBJSAElACSqA6AU0QqjPSGUpACSgBJaAEYkdAE4TYhVwdVgJKQAkoASVQnYAmCNUZ6QwloASUgBJQArEjoAlC7EKuDisBJaAElIASqE5AE4TqjHSGElACSkAJKIHYEdAEIXYhV4dDSSDf0wZsitW6Gfbg+Dd9sKxNELMz2B1Y1mTE3gqMM7eWsQJ4GEwJkYVgPYgM9Y8stCrQ+iQT5HGmT171/2oRqXOUgBKICgFNEKISSfUjWgTyPe/Hso5GZHeMSYC0A+8DsyUwwXNnDUMI/wEeAVYCgkiBFYNFPrHTMs/1qwIloASaTkAThKaHQA2ILYEF0sojizfGqozDsA5inQ7yPyHgUQGuxzZn0To4xLJlz3Ps7q+GwG41MegE5i0ZQ//rYxlsaydhxlCRVixT38+phBnEln6ssSt4fGgFp+kTsNGGvT7wo9Wi65SAEhgh8Jt/b0D7yqNAOhBZH8zeIFuEFo/IIMa6E0MfIvez6LpfM3u2HVp/1HDvCcyebZE+4oNY8iEwaYyxhpWKbWGsiWBvhpiNEdkIY9Zz3nfVadRrCM9jeBrMExiWDq93dqWxn0ISdyJLF5Dbw3nFpmMtBDRB0O2hBDwjIIY5f29h881bWfHyiVjmR56pCpbgW1i6bCYwyEm7DQbLNLXGewJimE+CFQ8nhnUtsz+CZf8vwse9112vBvMktn0uE1qvGF55/xMVZk8bqldKVOdrghDVyKpfzSPw275JtNlHImyGkSPAbNs8Y5qqeZHzzAThr2SSf8YYaao1qtw7AjeU12GgchjG2hJhXeBjGHbzTqEnkp39ecfwH5F+DN1k0ks80RQSoZoghCRQamYICHT3TkWseYiMR1gfU/ej0RA4ORoTZTlYr1Oxj+GI9G2jkaBrAkjgmoe2pK3lAsTsC5JAZF2MaQ2gpaM16RUw/WBfw5j1v86hmy8fraCwrtMEIayRU7uDQaCrbz+MdID9HTDrBMOoQFvRh5GzaancwYwdng20pWrcWwS6SxMZMtOGD9NaMhPh0NjhEZy9+2Ok8i9e7J8fh9dnmiDEbperw64QKJROxJgTEaaAOI9UddROwDku5jy6/TOLkqcw2+ihxtrZ+Tdztlik+2ZhyVdAxoOZDLT4Z0BgNb0+vH9FriOb/l5grXTBME0QXICoImJAQMTQVd6FhOyFWOeBjI2B1z64KC9jmEFLex8zttEnCj4QX6MKJyGY+tD2mJYtEHMKMKuZ5oRE9wCYL0DlPpauWBS1pwqaIIRkF6qZTSRw7UPbkmg5HzgAM3wAS4e7BJzDYQ8i5odkk79xV7RKq0rASX67S6dgmwOxzAcRcYpx6aiHgOElxNxLRS7miNQf61ka5LmaIAQ5Ompb8wjMn9/C0s23w9i/QNineYbETvMtJFo+y8zJ/4qd5346/EbpbmN9CsPZfqqOga47sdv+h2XWcxy/tVOFNLRDE4TQhk4N94xAd99HsOV4cP6g3yOegV6j4GUYzmPMuJ9zyAde8l99hDXmF6yHNd55fbAjmJmrSnhH2OEmueYUEMPcgPBDcql7m2RFw2r1w69hhCogMgSc36osqwfYLjI+hduRfhY9M0EL17gQRKd64dSjzgX7qy5IUxF1ETBXMy7x6TA2PdMEoa5A6+RIEij0TkacA1nm63rGIHARdhpDzcF+6Mvkck4PCB21EzAUy3sg7AFyFuCULdbRFAJOLRBzOomVXcz84MtNMWEUSjVBGAU0XRIhAtf3TWfI/jWwYYS8iqIr/0E4imzqnig657pPVy0cz/i2B4areYLW53Ad8CgEOh1SbVlKe2Iqh055YRQSfF+iCYLvyFVhIAgUe3dHzPeBPQNhjxpRC4EhjDmZCetfy4Gbasvp1RHrKjlPC/bDmG9qzYJatlQT5ojTPl2+z4vLv8tJuwW6OqMmCE3YH6qyiQTmLGhlw/FXYnEgwqQmWqKqR03A/AHbnEhuypOjFhHFhcXy1YgcrE/DQhPcvyJ8jWzK6f8QyKEJQiDDoka5TsApArPD4l0R+0qgw3X5KtBvAv1YshszUz2xbgJ141PjGHj5aMRcBEzwOwiqzwUCtjmY1jF/ZebWgTuboAmCC/FVEQEn4Dw1mDThHGz5IoYoNZMJOHiPzTO8AOYUOpMFjzUFU3yxnMGWEzEcEEwD1aqaCRhzO/2DR3N0sPqTaIJQcwR1YugIDJdHfngS1uBTYLSGfOgCWKPBYn+LSePOZ1q4i9LU6C3kezYE67tYfKbmNToxHASGZAc2ebbMtGlDQTBYE4QgREFt8IZAV+nrWDgNlbbyRoFKDQiBIQzX0Zk6NiD2eGdGV++nMebLgNM4SUfkCJiXwf4VmfTpQXBNE4QgREFtcJeA8+Sg0DcPIwe5K1ilBZqAMU/Smdwi0DaO1rjh0t+b/gVjPoyzv3VEnID5B51Tdmn2+RrdaBHfZrFzr6tnL4z1JYhhv/rYBXt1Dps/sLw/yyd2is41yELpODBfBNlRQxwrAjdh218h19HbLK81QWgWedXrPoFi30ywL0fYwH3hKjEkBARMmUwyHRJ7125msXQ2glMFUQ/XRiKgdTvxNMinyaTn1b3ShQWaILgAUUU0mcBwZzrzcSzT3WRLVH1QCBh+T6XtGHLbvhIUk+qyo7t3KrZxruTuVtc6nRxFAq9iJY5n1va+f75pghDF7RQnn5wrjBMnnIvIGRisOLmuvq6FgFPWVsxVZJInhI5TvrQDlpkHEs3zFKELSCAMHkL4KtnUD/y0RhMEP2mrLncJ3FDenEG5AjjQXcEqLToErDNY9NTFoegIOWfBODYcfwKGi6PDXz1xlYCYHNlkl6sy15pn+6VJ9SgBNwnk+95Hwnb6re/qpliVFTUC8jK2dJLruD3wnhV654JxSiWPCbytamDzCIh8lWz6e34YoE8Q/KCsOtwlMPfR9amsfBZoc1ewSossAdueSK7jxUD65zw5mDje6VK5UyDtU6MCSMAcQSaZ99owTRC8Jqzy3SVQ6Eti7D9o8SN3sUZemvAURj5KJr0kUL7mezbFsn6pr8kCFZXgG2OMgHyBztRPvDRWEwQv6aps9wkUSgN65ct9rLGQKHIB2fRXAuNrd2l7KtyN0a6igYlJuAwZBI4jk7rGK7M1QfCKrMp1l8C1vVNpsf4EsrG7glVarAiInEg2fVnTfe4u7YPNJdpZtOmRCLkB8iIV+zCOmHq3F45oguAFVZXpPoFC+VlNDtzHGjuJgo3wEXKpe5vme753JtZwjYP1mmaDKo4SgWewB/Ygt9OjbjulCYLbRFWeuwScMwfY/9TXCu5ijbU0kZtoX34Eh+623HcOhZJzJddJDjbzXbcqjDKBbmz7KHIdzitY14YmCK6hVEGuE5j74PpUxv4dZBvXZavAeBMQvkQ29X1fIXT1ZDHWz4GJvupVZXEhcBuZ1MfcdFYTBDdpqiz3CBR7NwOrF5H13ROqkpTA2wiYMVvRuc2/fWFSLO+JcB3I+3zRp0riSUDkm/SkzmW2sd0AoAmCGxRVhrsE8ks2whpy7vh+1F3BKk0JvIPALSwfmOV550endHKCAsL2yl8JeEpAeBIxe5FLunIeQRMET6OlwusmkM8nMDtchOHUutfqAiVQLwHhQLKpW+pdVvN8p+KnZd8J6GuymqHpxMYImH7GJdZj+uT+xuSAJgiNEtT17hGYPdtihyPPRMSXMqLuGa6SQkzg32SSW4NTeMblIWJRKP8BwwEuS1ZxSmDtBIz5GQ9NObXRVw2aIOhGCw6BQulQMHNBEsExSi2JPgG5gUz6cNf9LJQeB7Qjo+tgVWANBCpY5hBmJW+uYe4ap2iC0Ag9Xesega7SAZjhFreaHLhHVSXVRuAJrMQBzNq+VNv0KrPmz29h6SZXgznCFXkqRAmMhoDwED3JnRt5iqAJwmjA6xp3CVz7UIpEy60Y9IS3u2RVWq0EbL5GLnV+rdPXOq9YPh+RMwFNdl0BqkJGTcCY39GZnDHa9ZogjJacrnOPQKF8Fcj/uCdQJSmBURBoH7chh3zgpVGsfGOJodg7HTE3NSBDlyoBNwm8CInpZLa/bzRCNUEYDTVd4x6Brt7rMWbUGa57hqik2BMQbiWbGv2BwmLvB7DNPRg2jz1LBRAgAmYemeTHR2OQJgijoaZrGicgYiiWTsZYl+D8W4cSaD6BV7FkT2alF9VtSndpIjaPARPqXqsLlIDXBOyBJLmd+upVox/M9RLT+e4Q+FVpIuP5K7CdOwJVihJwgYDhPDqT36jr2mP+nrFYEy8H+ygXLFARSsB9AoaXqNib1turQRME90OhEqsRmLOglYnjXwfaqk3Vr7+NgGEIMYMglRq5ON/frav+6Pd6bdCGGNcyoa4iM4Xew0eu5+pQAgEmIPIdsun/V4+F4fzQGP4BM24rLBNO++uJULPnJsa8woxtnnXNjNnzW+jY5EKMOd01mZEVZFaCOFX4nCctIPZirNZ76dz+kZpczv9rPRjclQS7ITIe2BTo1GZBVegZzqQz9YOaGBd7P46YG9GiczXhWs2kIaCM8Hcwj2Okeg8BoRVjdgLZHdhwtIrjt07uw5b9yXU4v5zVNML3A7bQezkwC0xLTR7qpEYJ2AzJnhw5iveyq9Nc7PsvxL5b2zevNSx3Y9sZWgdWMmbCirp+m12b2LwkmPDweFYub0favoxwRqObI5rrTYVMsvrny419k+i37wEmR5ODR14Jj2KsL9Le/mcGbeG1VwfZ8sV+pk1zkoVahmHekjZef6WdwTaL9gnrYvefj8GpOxG+n2m1eOzWHJsdyaUeqlVcuGAW+85F7K/X6pzOc4OA+QetbQe58hTBOchVoYxhkhuWRUaG835w+Gqc3E8m9VNf/cr3HIRlsmDtCTLFV91BVjYku3Jk+oG1mlgs/x8inw6yG821zekoKL3AAgxPQ+Kymp9+jdZw5yaJmNMQtsRwCDB2tKIiuq6fRclxtRZPCk+C0N37CWzzS80Qfd62tv1Bch3/cEVrsdSFkHFFVlSEiH0mkriJ7JTFGA/6AdTKqbhkC+ifDImbEMbVuiyy88Q+nGzHDWv0r6t8PIbLQKzIMhitY8IyDN8EcxvGfp7O9NOjFTXqdc5r6A3Wm4wZmoFz8FTHWwTqeIUWjgTB+fCSofl64t3nXS7MIZs62RWt+dLRWDgJnnNoLu5jIcI8Xm//NsdvvTJQMJwrp3MXn45tO70JdgbWDZR9/hjTy1Mtu3DaGrrhFXong7UQRH87fSMeIv8BU8Yy36Yz6bxCDM6Ys2AcE8d/F9gH2Ck4hjXNkht5rT1Xy2dPOBKEQu+NYJzHRTr8ImD4PWNbOl17/10oLY79u1rDcoSvYLdcR27y836FclR65ksLz/fujpXIgHxhVDJCt8g8itjnIYk/kJvy5GrNn7dkDMsr3SDTQ+eeNwY/hy1nYlcWcOQO7vSy8MZOuGrhxowbMwvk516pCIncZTC0B5kd/lnN3uAnCN09B2Fbf6jmiH7dTQIyhFhHk012NSx1tlhMLTtPf/ZuWFZ4BawArieTOjqULhTKu4FcuuqJQvA/M6pDdlo7v7jqzysMcRZHpm6pvgzo6tkLYzk3S+I7BBuDk/CfTib1x9CByPe0YUweM/xLZzz7ZRjOojNV9dVLsL/Zu0v7YMs8MPpO1M/vQsPX6Uw5j+QaH4Xe6WCcRCOeMRTmgv2rtb7PbpyyPxKKpbOBLyBs4I9CV7U4SYHzG9NliD1IRR7gyKl/q0tDvmdnLMs5uBjsz826nKpzsjH3I3IZdvIKcqbWehx1KvFhuvMqrdD3SYx8GUj6oDFoKipkUlVv6gR3o+fzCRI7XIcM39vW4R+BMplUyhV1I+WU/wxmL1fkhUuIU9DoR2TSzgdQdIZzHsgefARjAn6WRIZg+AfYo8NtlzPJqo9T1xokZy939/0KiW1TsUFs+zByHTdHZzMDThVMs/49GOOct4nXMJxGZ+ona3M6uAlCV/kbGDknXhFrsrfGOAnZeQ1/mL7hRqH0eWCtG7DJHnukfri40afJpJd4pKC5YvM978ey5gEdzTXkPdoXAHcgDGBJkVmpB127GdLd+zHEzEOo+ltXwJg0ao5TuOgCrMRVzNo+2GcMGvG00PtzMJ+I15NO8xc6p+yztu+RACcIvd0YM7ORmK9xrUGwnd8wGMRYA4gMDv8bGcSYN/57AGMGMQwgDA7/sZx/D/+/wVVrBobXOeuNDGI5a80g9tvmOo8zjT0IiYHhdbY98vWEGRj+G0b0OH9b1iCVoUHa2gYYGnTmDDLYP8hQYoh223lE6u1oH/eKa4cS5z64PkPtSzHE7BqYOYHl/dfxiZ2WeRusJkuft2Rdlg+90mQrnIf9f8YMnQL2UoZalpNNL3MtKXi7c4XSq8A6TffXTwOEFxD7CHIdt/uptim65s9v4cVNj0W4sin6m6P0GWiZTmbyg2tSH9wEoTnAVKsbBJxvthc2vRTD8W6IC4UMw7PYfJps6qZQ2OuGkVc+uD7rjr0HEXdeSa3dJidB/juwBDHPkpCfMyvlHJTzfnSXf4Qdl5scwzidX4puZ1LyUKaZWqsbeh8HPzQ4T4ps63KQLf1Q13Qdziv8bKpbE4SmRyJGBhQXboHd1oOJyx16+RO29TlyybrbqYZ+V1zbtxMttnPYz5szCcLvsRI/wqq8hLQ+zqxtn6+r02KjgOf2fYiK7bxOmdioqNCstzmelQNdkX8KtrqAzJ5tkT5iLyzuCE28GjP0t2RSx2iC0BhEXV0Pga7SjavKnNazKqRz5WpWtn6OYyc7j6DjOQqlQ4FCg905+0EeBuO8lipRMd8jl3y06UC7es7DWF9ruh3+GPA01tB+zAp4PQM/WHSVPopFd0hv7NRHKJNa45sEfcVQH0qdXY1AnFrfOtdBN3zmwjqazFSjF96vF0o/Bk6r04EBkLnYXAfi1Ir4B7mOZ+qU4d30fHkKlpS9UxAoya9g2x91rax6oFwbhTHDN7DKXwGcg/LRPphqWx8mN+X+1VHSBGEUe0eXrIHAAmnlsb7rY1Jl7hIyKeeWhg6HwMXzxrD51s5jWacF7+qG8y7bqR7pPCm4HXvlV8ntEtxqkiMt5Utgto1BgMvYL+1Cbg8nSdPxdgJdvXdiIn9N+wEyqV01QdCt7y2BfN+HsCrzI1/YSsw3ySb1Cu67d9Nv+yYxxr4A4ZOrigk9h+F6RHqxrFcR++amNO4Zza4feW1ybQyuvT2EbR9JrsPpuqhjdQQK5QJIdOvxGB6jM7nN6s726BME/ZZwj4BTFEmiXlLZXEgmGa3iR+7tgOhIKpavReSI6Di02t8PHyGTjMMTksbCOPyLjzjt2DdqTFBAV4u8hAx9jNyOzi2hdwxNEAIas9CZVez7L8Re7Xus0PmyJoMNP2VW8jRP7tlHBlIEHLl+SZqhoZ4IeLIWF8zjMHhILQ17os2hRu8KpS8CP6hxdtimCUY+T2f6Z5oghC10YbG3UL4TJMollX/JouQJzDZOZTkdUSbQ1fsMxmwSZRexWzYOfEfRIAUg8mXj5XQyaeegsT5BCNK+i4QthZ4PI9ZNGCZFwp/3OvEk2AeS6Yj4b5URjV49bhUX749UnH4DUe3y9/yqvbzG6nn14IrV3O6+nbDtP0WzJobkyaTf80pNXzHEaod75Gyx93TEXOSR9OaLtdmRXOqh5huiFnhKwCmSMzX3QzBf8FRPM4U7V3MrD11ALhfeTozN4udUiF266VzAaRMdsSHLyaTH6xOEiIU1EO4USv0NFskJhBurMWIA2z6GXIdTBEhH1AnkH9gIa+zjwJhoumr+Qia5dzR988mrG/smMWA/h0Sw5fdqCiat/QlCvmdDDB9GEt6UUfUppqpmFYEES+lM3u0qj3zvKVjmPYdbXNXRPGELsNv2J7dt85sSNY9BfDQXymeBfCeiDv+V9nHTOeQDL0XUP//c6iqdi/MkJmrDtGxJ5+Qn3u7W6hOE/ONjSSy7CJGTosZA/ZH7yKTXVMymPjx5SWCVnwaieP1nBROfWVerJNa3JUI7e7gw0ninO2tEh3yeTPqSiDrnr1sj7c6dRmHRetJk+C6dqXckPqtPEIqlsxHz/0CielDH3w0VJG2GF+hMufMDPd9zGJZ1HdAeJBfdscWcQib5C3dkqZTAEyiWTkW4OPB2jspA+TmZ9GdHtVQXvZdAvqeNhHUFwhqbHIUSm/As2dSmVZ4giKFQdg6w6AHGUEa5mtEu/uAr9H0V7O9W0xjCr9/ExPYs07ZeGULb1eTRECiWr0YkWh/4wxzM64xLTGL6ZOeckA63CBTKXwD5kVviAiLHJpN6x0OBdyYBc0tbUcFpThKtRycBoR8IM9bSuasu+0YeyS4Ctq9rXRgmixxFNu2U2dURBwKFviTYd0buVZnB6X/xOTpTl8YhjL76OF9aWFoe9FWn98rWkiA4hSAKpfMxRsvIeh+I5mgQ+TvZ9G6uKHfOqVivL3dFVqCEmMVkklMCZZIa4y2Broc+immZ762SJkgXXuDFZR/gpN0i+H3aBJ7vVlkoFYFZAbDELRNsbHssuY43z+K89QQhTm163cIZPjmfIZP6P1fMzvfeimX2d0VWcIT0Y6/YMtBdBoPDKjqWdPUuwZjtouPQKk+MfIzO9G2R8ysoDs1bMoblQ1F6DSnQsgOZyW8WhBtJEOYt2YjlQ0uA9YLCXu1wnYCTFR5NJuVkvY0O52lTFEsO/5KJyROZZpxHs8Ed+Z4JGOtXEa5c6Tf7CNYGMNeTSc70G2Ss9A0X1jriuQhVVhSwZpGZcv0bcTTc+NQ4+l9xqkMdEKvgxs/ZxbSP292Ve9CF0nHAL6OF0OmxICe79oTFCzjzH23nhf7vYuR0L8SrzMgQGADriLd/0EfGs6A5Uij9BPh80MwatT3CmWRTbzalMhR7ZyImD7SMWqguDD4BY26nM7mfK4YWy5cgErVrU/1MTE4I9NODrtINWBwaySpurmxMFbKKwCJWtuzJsZNfVSIeE+jqORNjXeixFv/Ei1xANv2Vt54gFMq7gfxebzX6FwPfNRn5GZ2pb7mi9+ol69I+5DyCmuaKvKAIsTmeXCqYT0WGO8mV5wAnBgWX2hFgAjZnkEv9MMAWRse0Qs+nwMwBE5FfsM33ySS/9FaCEJ1QqSd+EJi7ZFsqQyUgOuW3hZVkU2P9wDcqHfmeNFbiZpAtR7VeF8WIwOqb7sQIgL+u5stbY8nfonMOQRMEfzdQ1LQN/7CyItb2WC4kkw7u9d5C71lgotojIGrfIc31x5KjmKU1PHwNQqHk9C94n686PVOmCYJnaGMhuFC6FYjS9UZ7uOdINn1ZION37UPb0tLycCBtU6OCRUB4FWFfcqm/B8uwiFtTKPVFp2CcJggR360euzdyvTFKZbifwbb3ItcRzB/ChfKdIHt5HFUVHwkCZh5LXz+ck3aLWoW/YEenq3xRdG4WaYIQ7M0WZOu6F26M3fZskE0chW1LyKSCWS463/cREvbvEDYYhV+6JG4EhJ+QTZ0WN7eb7m+xd3/EOE9WIzA0QYhAEJvkQqHk3IT4ZpO0e6X2p2RSp3olvCG50bxO2hASXbwWAmOsjTh0ygvKyGcCvypNZDwR4a4Jgs+7J0LqCqUbgUMi5BGsMzCBA3daFjif5j64PpX2lwJnlxoUVAJLyaQmBdW4yNtVKEk0fNQEIRpx9NuL2WLRUboJYw72W7Wn+tzqbum2kYXSzcCBbotVeRElIOZwsskbIupd8N3SBCH4MVILPSRwzUNb0pK4GWPSHmrxV7SRu+hMB+8A4A3lKQzIPzC0+wtEtYWUgDDINhyVeiyk9offbE0Qwh9D9aABAl2lPTDmNpDgFhSq2z3rM2SmuNPdsm7da1gw3Ha9fCGGM9wSqXKiTkAexJb9yXW8GHVPA+ufJgiBDY0a5geBfM++WNaf/FDlmw7hULKpm3zTV4uikbMHzwBjapmuc5QAenuhuZtgpOFh8M4xjYqKnkEYFbbYLyou3h+pROQqDyDYYB1CdsofAhXbrt6vYMz5gbJJjQk2AWMuoDP5ZoOdYBsbQevy5X2xJCK/PGmCEMEd6oNLxdIZCN/3QZNfKp4nwcHMDFDVuQULWnl0/EoMll8QVE8ECOgBxeYGsav3HIz5RnONcEu7JgirJ5nvaaNibU57S8It1E2VMzjwOLnxyLcpAAAef0lEQVSOAddsKJZuQfiYa/KaLsj8k9a2A5ixTXAKPxX7LkbsYNZkaHq81IA1Emg16zIj+ZoSahKBYvk+RD7UJO0uq9UE4b1A8z2bYiV+C7I5EI0EQfgDKwa+xidcuuNfKDnv2Ma5vBubJ074M/LQfuRyleYZ8TbNxd7NEG4BMzUQ9qgR4SEQ1Ku64SHYmKXarKkxfoFe3b04hV1ZGKn2xSPAbezWKeS2c6fHQGRO6a7ajcbcTmdyv8Dsze7yvthReY8ZGKrxMEQThObGOVoJwrlkkm++LolS0536N4nzWsGyrgSOrn9x0FeYJ7DN7uSmPOmKpZoguIJxjUIKpSXAdt4qUekRJPA0mZTz5FNHMwjkl2yENbQI2LgZ6l3VaYwgfJpM8oo35MY7QXCK/7S2/MdVyEERJtxOf8tMjp38qismaYLgCsbVCunqmYGxrvdOgUqOLAGRbrLpzsj6F3TH8uXDsLg2IvVhBNvem1zHXZogOAQKJSfz6wj6HhydfXIF9qLPuPKOfc6CcUwcH5F7vqtoBuUVw5WPtrPOytuAPUcXZ10VawLGnENnMmoN1MIT0kjd7jI2/QOTOGbHN3vAxPcJQqHvW2BH9xvLmJ/RmfycK99phZ4OsJxkKkJDbiOTbv6tjELpQJCbwLRECK664hcBw8l0pub4pU71vItAV8+ZGOvCiHCxyaTecUg/nglC/oGNsMY6nQk/HJHAvtcNVxOE3ulgfh8pVoa5dKZmNd2nQvnHIKc13Q41IJwELDmOWemrwml8yK12yqIXS7eCCc5h58aQaoIwzK+rJ4uVuA4nwJEd5stkku5ktoXyp0AujxYquY5M+sim+jT8AdM3CBKNq7VNhRlT5YaT6ExdGlPvm+u20+F2anllZG7AiSwjm57wdqgR/gG5lr1TKD0FbLaWGTaIDca5I28DleHSvNaqv4f/v/N1Rv42ZuTrsurfq13rzLFXyVwl2xhHhvtD5GEyqZNcE9xVOhODO8mGa0Y1KEgokE1lG5TS2PJi6SaEjzcmRFfHnMDZZFLfjjmD5rif73k/lvXv5ij3QKvhJ3Sm3vE0M54JQnffTlTsLVeL2EoIlthUbBsjFbAqYK/6OzHyb+drb/4/52uJCpYzf6gCLRUYrEBrBdM28u8VgzYytoK9vEJl3QoDSys8vWuF2R4lCG7vnWLpbITZbottrjzzRzLJg5pmw7W9U2lxml9J+K9HNQ2iKsZwLZ2po5REEwgUSg8AH2yCZm9UDrL1u1uGxzNB8AZvdKUWy+cgEpFa46vC1OxbDIXSF4EfRHfTqGc+Efg3mdRWPulSNW8QGKmh0x8pIKspuKUJQqQi7JEzhdK3gGjd+Gh2gtDVuwRjtDCSR1s2VmK1kqL/4c6XPomFU2QvKmOQTKrt3c5oghCV8HrpR1ff1zD2eV6q8F12MxOEfGkfLO7w3WdVGE0CmiD4H9eu0sUYotNYzSmsl0295zaGJgj+b63waezq/SzGXBI+w9dmsfkLdmV/Vzte1gqoUFoBtNc6XecpgbUSGLPeeA7dfLlS8olA98KNscfcA7KtTxq9VyOcRTb1nl8CNUHwHn34NVzbk6XFyoffkXd4sAQzeBCdOz7iq1/dpf/G5k5ACyP5Cj7CyoQDyaZuibCHwXItX56CJeVgGdWoNXI6mfSP3y1FE4RGucZhfbF3d8TcGy1XzUqkcgjZjj/56ldX6etYfAdBv/d8BR9hZUa+R2f6qxH2MFiuFUqPA1sEy6iGrFkGkiOTnqcJQkMcY7p4pGPZc5HzXjiUbOomX/0qls5D+JqvOlVZxAmYH5NJnh5xJ4PhXqHvcLDnBsMY16z4D6+1T+H4rZ2iT+8Y+luMa4wjLihq3RydcNmVM8hN/aGvkSuUnN/0nHd9+r3nK/hIK7uDVnMYM5KvRdrLZjs3b8kYlg/dABzYbFPc1W/KZJKp1cnUDyl3SUdXWhQTBJFnyaY39TVo+b73YdnOuYf3XCny1Q5VFiUCA9j2ZHId0WxdH5RIFcq7gdwOrBMUk9yxwzqVzJSfaoLgDs14SoligjD8FOGlceT2cG4V+De6eq/BWFntweAf8shrstmDXCpi54QCFrWolkZfyzVZfYIQsD0YWHOimiDAT8mk/L/P7PS3sPg6wgaBjbkaFiIC8i8yaS285VXECiWnnPVvvRLfRLl9ZFLJNenXBKGJkQmV6kJpMTA5VDbXZuwSMqnta5vqwax8PoG102TE3tAD6f6JtJiFcIZ/ClXTewjY9jrkOl5XMi4TWLCglcfG3xepvgtvILLlSHLp6zRBcHnPxE5csXwJIp+NoN+vY5kss5I3R9A3f1wq9E2Hyg1gtLaDP8TXpOX/yKQ+01wTIqjduZpsODeCnjm9JGaQSf1RE4QIRtdXlwq9h4OJ2vWeEYSGM+lMaeOk0Wyoax7ekpbBRRjWHc1yXeMiAcPf6R/6OEfv8KyLUuMtSsRQLDtPZcZFEMQCbHva2p466SuGCEbdE5fyPftiOe2JIzhElpFNT4igZ966dOX8diZseh2Gw7xVpNJrJtCM2h41GxeyifkHNiIxdiHCZiGzvDZzhblkU7PWNlkThNpQ6qwoJwgj0b2UTOokDXQdBArl60Fm1LFCp3pP4BEyqej0CPCe15o1FEtnYHMBBquZZnimu9WezIyOhzVB8IxwjAQP3wG2bwWzfkS9HqDVbM2M5FMR9c89t4Yfu/YdD3K5e0JVkmsE9ClC4yi7SntguLtxQYGV8ByZ1CbVrNMnCNUI6ddHCHSXJiJmHiIfijCS8+lMfh1jJMI+Nu5avmc7LGt+xOrRN84lOBLK2C17k5v8fHBMCpEl+fK+WOL0JRgTIqvrNNUcQSZZtQGfJgh1Yo319ELpRuCQCDMQEmzDzNRjEfaxMdeuWjie8W2Pa/2GxjB6vlo4mWxqjud6oqbA+UXIlrlg9oqaa2/5Y16BxJ5kJvdU81EThGqE9OtvESiWb0Ak2gfSRO4im47wh0MDG3rOglY2HPczjPl0A1J0qT8EnmNcy/uZPtm5yqajFgIXzxvD5lv/BuisZXpo5xjTRWXKUeRMpZoPmiBUI6Rff4tAV8+pGOviGCDR++SrC3I0O9lFeTs/TSa1eZQddM232WKxQ/l3CB93TWZQBRkzg87k72oxTxOEWijpnBECN/1zA1a2vhh5HIanqHAQudRDkfe1VgeLpaOx+XVkT3TXyiFc8wYxfJ7O1KXhMttna53kYGrpp2BO8VlzM9Q9QSa1Za2KNUGolZTOGyEQ3Z4M74xwMzo9BnWPFXpyYP0SGBtUE9WuNRJ4BdvemFzHgDJaDYH50sLS8u+BA+LBx55KpqPq2YM3WGiCEI9d4Z6XxdI1CEe6JzDIkuRB7NYDY30avKt0AM47S0QrJQZ5q67VNlmObU0ll3w0tC54YfiNfZPoty8EPumF+ADKXEir2YsZyddqtU0ThFpJ6bwRAsXeXRDz91jgEGyQPNm008ktfqOr7NQ6+BmG9vg5HzmPi6yzwXEcuOmyyHk2GofmPrwrlcFfALuNZnko1xi+RWdqdj22a4JQDy2dC8XF2yAV5xFVjH5omF/wCl/mhNoz79Bvla6egzGWc601EXpf1IERApZ8leeX/5CTdhuMNZJieU9s+0aMiVOr9eXY9gb1vmrSBCHW3ymjcP7GBePoH38tcOgoVod1iXPY6wo6UyeH1YGa7Z4/v4UXNj4dYzmPXqM+nB+UrVF38h3+GTmHF5afE8skId/ThrFOxeDs7Xj97LM5hlzqt/Xu9XhBqpeOzl89gULpJ8DnY4dH5H5WDO7LJ3aK5mPaq5esy5ih72A4NQaxtYHDAedDM2aNuswpTHz6MqZNG4pBnEdcnPvo+tgrbkPMrrHx+S1H67q58HY+miDEcLc07HKx9+OIualhOWEUYMxdrBw4jGN2fCmM5q/R5rmLd6ZSuQrYIVJ+rckZkXNoX34+K8fNx5golw9fPQFj/YB+zufoKS9EPt7OWRpLvomwVeR9fa+Dgxg5gc70r0fjuyYIo6EW9zUjPdKd38DiOgYw8t90ph+IBIBC+WSwfwKmJRL+VHfiaYzsSmf6aQrlm0EOrL4kcjOcfiP3k0ntHjnP3nBo/qPtLF35NyDtnMCIrJ9rd+xhFiWnMNuM6vNaE4SY7pqG3S6Ufw4S/XfyawRlVmDkIla0fI9jJ7/aMM9mCMj3fQTLPh1jZuEkfXEZYp9JtuMHw+4WeieDWRwX19/rpyxFzGFkU/cC0WhS1r1wYyptMwHnddmk+MbWSYvMfsxK3j5aBvH5UBgtIV23egI3lNdhUML5g9HdmPZhcxK51J/dFeuhNOewlmUuAOs4kKi2714zwDHrjefQzZe/OaGr9AqG+NZ5MLyEMIdM6mse7jp/ROd7dsYyvwOzRewOIr6bsC3nkkt/oxHwmiA0Qi/Oa2fPb2HqprcA0+KM4U3fDVdBy4/pnBzc1w75JRuRqOyD2NfE6HXC27fnILa9HbmO/7xjzxZ7ZyKmW/cxt2HxTWYNP00Iz8jnE5idDsDIGSD7hcdwDy11KsEaOZhMx4ONaNEEoRF6cV/b1fN1jHVu3DG85b95DsMiKpUzyHX8IzBcnKc9/fZFWMYpCrNjjH+z+imZ1HtvaBT+mURa78SwUWBi1ixDRF4Cq4hUvkKuI/h9V4q9e2ObszHsDcTlDE313WHLN8ilG/5s1gShOmqdsSYCI+9vnUNA6ymkdxEQ7iVhncLQ0LPkOp7xnc/cB9enMvb9iHwGw+d81x88hUuxzZ7kkn2rNa1YvhqRY4JndhMtqpChZeA+Ond6oolWvFe1UyJ55VAKY10NvD9QtgXBGJGHyaYnu2GKJghuUIyzjELP7WDpa4Y174F/Ag9g5C4605d7vlWK5Qy2TAe2wbBXjE9vvxO1MVk6k4U18s/3ZLCsLs/jEzYFgpNQ3YNlfk1n8o6mHmS8/uEtGRr8yqryyB8OG0pf7BVeQOx9yHX0uqFPEwQ3KMZdRqHkXKHRvVTLPjA8i219m4H+a4anT2gbojUxwMHbDWJquIokYvHLO9rYZIs2XlqRoHWoBWt8DqmcE7PSsbXQXjVHriCTPqHqgkJpRbxKiFcl8t4JYn+J5daVbLrBSg7YZDnGeHfzIX/PWFo3G8Pgiv/COK3GzSajsDheS4z5GZ1J154Y6od6vLaPN94WS3mErDfCoy7VPInIQ1gsQVh78SVjDFLZAGNNQdgZ9J159d0h/4HEgWSmlKvO7S4dgo3Tf0JHdQJlhN9jeBXhASYlb2aaaawy45wFrWww9sMkrL0Qp9eLmQayh/YDqR6MVTMeYKvk7uxmXOu1oQlCzex14hoJFEpOt8Pf6FME3SOBI2Dbe5HruKsmu5xS0+1D9wAdNc3XSW8QcH4g9b/xuGZV4vA7TMtfmLXdk6t9ypDv2RCRPbFaDsLIYcD6w7U4jHF6Yzh/9GdTPfvL6TzbNrQ5M3Z4tp5l1eZqEKoR0q9XJzBvyRiWD94L5oPVJ+sMJeAXAfNzMsnP1qWtUP4SyPf0B1Rd1HRycwlUgBPIpH7lthmaILhNNK7y8n0fwrLvi6v76nfACAi30L7ezHcURKrFxPy/1sMaeA5oq2W6zlECASCwANves95WzrXYrQlCLZR0Tm0ECiWnwEp0a7vXRkFnNZ/A8yT4EDNTj43KlK5ep/z0RaNaq4uUgJ8ERHrJpj17JaYJgp/BjLquYnlPhNtA2qPuqvoXWAIVTOIgOre/rSELC6W7AeeAnA4lEFQCz2HbB3pZlE0ThKCGPqx2dZWuxqAFZ8Iav7DbLfJVsmnnDEFjo9BzLFhXrDow15gsXa0E3CfgXC0/i0zqfPdFvyVREwQv6cZRdqGnA6xFcXRdfW4yAcO1VOzjXHkXO9IqeIHeaGhyTFX96gkI3yeb+pLXeDRB8JpwHOV3lbMYycfRdfW5SQSER8imtnVV+2yx2KHcj2iNf1e5qrBGCdzEouQMZtdQWK1BTZogNAhQl6+GgHMS3AzMw+g7XN0ffhCQl0EOItPh/i2artJsDGf74YXqUAJVCTgl21cOHcYxO669qFpVQbVN0AShNk46q14Cc0sHUOGP9S7T+UqgbgJGNqcz/XTd62pZ8MdnxvPaS86BR72dUwsvneMhAfM4dmVfch0Pe6jkHaI1QfCLdBz1FHovA1O9Bn4c2ajPbhB4DcucwKykt02WukqzMBTdMFhlKIFREnDKWB9JJuXrPtQEYZTR0mU1EHBKpxb7bgY5oIbZOkUJ1EdA7J8gnOnKocRqmos9n0SsK6tN068rAW8I2Lt78gqtirGaIHgTTZX6BoFC6VDgOmCsQlECLhGwEbmRbPpwl+RVF+P0DrAS14M4LbR1KAGfCMgQJvEpOqf82ieF71CjCUIzqMdNZ3c5i623GuIWds/8FW5lfEuG6ZNf9UzH6gTn/7kDVus/fdWpyuJO4DAyqaZ1GNUEIe7bzy//i6UrED6pTXD8Ah5VPeZfZJLbNc27/JI01pBTH0GfiDUtCLFQPDB8fiuTvLqZ3mqC0Ez6cdJd7P0AYpzT4M37cI8T72j6+kfsCTPJbbmiae7Nnt/C1E2+D+Y0TXabFoXoKxZOZtIzlzNtmnM4sWlDE4SmoY+hYhGLYnmllq+NYewbd/lVMqn1GhfjkoRCyen4uJFL0lSMEniDgFNC+VgyqWuCgEQThCBEIU42FBZ/GCpzgc3i5Lb62hCBP5JJHQxIQ1LcXlzovRXM/m6LVXkxJmBzKhslf8E009QnB29EQBOEGO/Fprg+Ur72f3FqietQAlUJmEewx09t6muFNdlYXLgF0nYX8IGqbugEJVCNgNj7k0nfjjGBSYQ1QagWNP26NwS6Sj/G8FnQOvfeAA69VEGYTza1X6A9yZd2xRouoqRJQqADFXTj7BPIdDjdQwM1NEEIVDhiZMycBa1MmvAzRD4dI6/V1VoJOFcZZVmW3G6v1LqkafMKpQMxXI0wqWk2qOKwEhjEZh9yqXuD6IAmCEGMSpxsKpRuxZj9cKou6lACsBxhLtnUsaGCUSidCPwAWCdUdquxzSNgzOOIfK6ZdQ6qOa8fytUI6de9J1AoXQo4H7A64k7A5iQ2ar+KaVs7t13CNUbanP8C2DBchqu1vhMQbsKYs8gkA114SxME33eGKlwtgUJpPrCP3i2P6/4wL2Ot/DCzdl4cagKF0nGIXIIx40PthxrvDQGDIHIz41pnMn1yvzdK3JOqCYJ7LFVSowQKpZ8CJwOJRkXp+lAReAYjM+lM/zVUVq/J2ELfdIx9EcL2kfBHnXCHgMgyjPyETMfX3BHovRRNELxnrBrqIeC0iDbWp/RMQj3QQjzXmJvpTDo1DqI1Cn1JsO/XMwnRCuvovTE2duW/yXU4eyI0QxOE0IQqRoYWyqeBOFn2pjHyOl6uCjaGs7Bf+jG5PZpXOtlL6vklG2GGfoPhY16qUdmBJzAfu+UIcpOfD7yl7zJQE4SwRSwO9jolmbt6d8SyHoyDu/Hz0TyHsY+hM+305oj2uGrheMaOuQsjO0fbUfVutQSETsS+hVzH62EkpAlCGKMWF5u7n5iI/dqfgY64uBxpPw1DiNyKZf6HWamlkfb13c51lS/BcDTI+rHyO77OOudpZpNJ/THMCDRBCHP04mB7cckWyNCVgNa8D3u8xXyKSWOuCeUVxkbZL5BWHuvdBaxoHMRslEdU1w+/OrPOwl52ObldQvdK4d1h0QQhqhs1an519Z6Osc4DGRs11yLtz8hZgwewX9o7smcN6glgsXczxNwA/Fc9y3RuwAmM7PNFCKeQTd0TcGtrNk8ThJpR6cSmE+jqORiT+CFIsum2qAG1EHgd4ThaVt7OzA++XMuCWMxxDi9aQ9Mx5kq9rROZiH+G/sECx+z4UmQ80qI0UQplTHzJ3zMWs8G1GJkOpiUmXofMTbMSsRcwMHRY1D4wXQ1EV+kALOYgbOWqXBXmF4EhhNtoMzlmJF/zS6mfevQJgp+0VZd7BIqlzyCcpgcY3UPqkqQHgPPIpJwOhzqqEcg/Phbr9QtAPgVmXLXp+vWgEDB/wFCkM3l5UCzywg5NELygqjL9IeA0eCqU7sKYPfxRqFrWSsAy+zFzyvwg9bMPTcSc65Dj2pzOlVpFNOhBE/Ykk7w3DvtcE4Sgb0a1b+0EhpOEvsPA/l+McXo56PCXwL8RfodY3yM35Ul/VUdM29VL1qV98CSwzgTZOGLehd2dhWC6sCs/J9fxYtidqdV+TRBqJaXzgk3g6r+uS/t6RwAXA+3BNjYq1smFDFR+wNE7PBsVjwLhR77vfViVb4P5VCDsibsRIici0h2nxOCNkGuCEPfNHzX/50grk/p+AzINYVLU3AuAPw+D3Inh23Sm/x0Ae6JrQr68NUbmYIa7nLZF19FAenY3cAu2fT65joFAWuiDUZog+ABZVfhMwCnVfF3PDiRaZ2Lss33WHlF1xkbs47Fa7qJz+0ci6mTw3HIOMba8vjO2+TLI4cEzMGIWiTwM5nMMDP5Nb+CAJggR29/qzrsIOJUY7aHrsdgCYRPlUxeBV4HFiH0ZmfSlcTiUVRcdvydfu3B3Wtp+BmZbkHX9Vh9ZfcKTGErY9hfIdfRG1s9ROKYJwiig6ZKwERBDvrwLlr0TDBdaWi9sHvhs7ysgZ2FZJWYlb/dZt6pbG4E5C1rZcJ29obIrxnxLz9s0sF2EMpZ1HjL0AJmOngYkRXapJgiRDa06tkYChdLngW8CTqKg73ZHQDlX7JYjHE02dYfunpAQ6Cp9H4vjEDbQK5JVY2YDL2PMs1RaDyK37X+qroj5BE0QYr4BYut+vqcNi8MRMxVjjgPeH0MWzgfmZQiPUaHIkanFMWQQfpeHW0q3HYthewzHr0oWwu+Xex44nUOvRPgP0nItucmhb6LkHpq1S9IEwS/Sqie4BJxOe/f1jmETy2nNGoeiS3+jtfVoWuVx7v/NILNnO4mCjrATcGqCdPW20tK+FfbA74Htwu5Sg/bfhxk7k8qypWTTg3qGpn6amiDUz0xXRJ1AofwpDLsi9vZgfQQkpHUVjPODfxHIXxEZxLKuYdaUe/SDMuobeJV/Vz7azoQVp2FZH0Bk71VlySP6mW9WYrgFkceBu1mUvI7Zw/tfRwMEIrpZGiCiS5XAGwRuKK/DkLURlcp4LM4AnFcRwR6C80F5KchPaW0T+uUVstu9oElBsMPmuXXdCzcmMX5dBgdTYC4B2dJznb4okKtBfohpfYW2V5/h0N2W+6I2Jko0QYhJoNVNlwjMWzKG5YMHY6wMMnwbohXk/WCcMwzjXdKyZjGG18A8gdhPglkJpgL8Dew8mfQSz/WrgmgQcF5HFHs/BJbT8My5MjkBSAMbBa7Lr8HpmugcKHT29yBG7qe/cqlW8PR+K2qC4D1j1RBlArPnt5DeeHMSbZtTGRjpxpdotZDB7RCzE4Y0YrbFsGmNp8ydtrGP4RRsMfQishDBOWQ1MiyW0db+NI/1Pctp0/ujjFZ985GAc9CxLbEdrS0bYjDYkkbIYOS/wfh408c4BwjvxuYOqDy0atNXoPVJeh9/jNnThnykEntVmiDEfgsoACWgBJRADQQKfUmksi8m8RGw0++tsydOJ8o2hFYM/WDelcDKMqAHpASmF9PSQ+fkJ2rQrFOaREAThCaBV7VKQAkogUgRcK4Os+4EWD6WMfIqM5LO0zAdISagCUKIg6emKwEloASUgBLwioAmCF6RVblKQAkoASWgBEJMQBOEEAdPTVcCSkAJKAEl4BUBTRC8IqtylYASUAJKQAmEmIAmCCEOnpquBJSAElACSsArApogeEVW5SoBJaAElIASCDEBTRBCHDw1XQkoASWgBJSAVwQ0QfCKrMpVAkpACSgBJRBiApoghDh4aroSUAJKQAkoAa8IaILgFVmVqwSUgBJQAkogxAQ0QQhx8NR0JaAElIASUAJeEdAEwSuyKlcJKAEloASUQIgJaIIQ4uCp6UpACSgBJaAEvCKgCYJXZFWuElACSkAJKIEQE9AEIcTBU9OVgBJQAkpACXhFQBMEr8iqXCWgBJSAElACISagCUKIg6emKwEloASUgBLwioAmCF6RVblKQAkoASWgBEJMQBOEEAdPTVcCSkAJKAEl4BUBTRC8IqtylYASUAJKQAmEmIAmCCEOnpquBJSAElACSsArApogeEVW5SoBJaAElIASCDEBTRBCHDw1XQkoASWgBJSAVwQ0QfCKrMpVAkpACSgBJRBiApoghDh4aroSUAJKQAkoAa8IaILgFVmVqwSUgBJQAkogxAQ0QQhx8NR0JaAElIASUAJeEdAEwSuyKlcJKAEloASUQIgJaIIQ4uCp6UpACSgBJaAEvCKgCYJXZFWuElACSkAJKIEQE9AEIcTBU9OVgBJQAkpACXhFQBMEr8iqXCWgBJSAElACISbw/wHYgUv1F2+asgAAAABJRU5ErkJggg==;" vertex="1" parent="1">
                    <mxGeometry x="368.25" y="424.75" width="63.5" height="31.75" as="geometry"/>
                </mxCell>
                <mxCell id="17" value="" style="rounded=0;whiteSpace=wrap;html=1;" vertex="1" parent="1">
                    <mxGeometry x="520" y="320" width="80" height="79" as="geometry"/>
                </mxCell>
                <mxCell id="18" value="" style="sketch=0;aspect=fixed;html=1;points=[];align=center;image;fontSize=12;image=img/lib/mscae/Docker.svg;" vertex="1" parent="1">
                    <mxGeometry x="570" y="310" width="37.2" height="30.5" as="geometry"/>
                </mxCell>
                <mxCell id="19" value="" style="sketch=0;aspect=fixed;html=1;points=[];align=center;image;fontSize=12;image=img/lib/mscae/Cache_Redis_Product.svg;" vertex="1" parent="1">
                    <mxGeometry x="538.13" y="344.75" width="43.75" height="36.75" as="geometry"/>
                </mxCell>
                <mxCell id="20" value="" style="rounded=0;whiteSpace=wrap;html=1;" vertex="1" parent="1">
                    <mxGeometry x="520" y="480" width="80" height="79" as="geometry"/>
                </mxCell>
                <mxCell id="21" value="" style="sketch=0;aspect=fixed;html=1;points=[];align=center;image;fontSize=12;image=img/lib/mscae/Docker.svg;" vertex="1" parent="1">
                    <mxGeometry x="570" y="470" width="37.2" height="30.5" as="geometry"/>
                </mxCell>
                <mxCell id="22" value="" style="shape=image;verticalLabelPosition=bottom;labelBackgroundColor=default;verticalAlign=top;aspect=fixed;imageAspect=0;image=data:image/png,iVBORw0KGgoAAAANSUhEUgAAAu4AAALuCAMAAADGw2P4AAABpFBMVEVHcExSOStSOSsUEgwWFAwdFw+UeFyTeV10Y08XEQxQNyqUeV2UeV1ALCGgiXA4Jx2TeFyUeV6UeV0ZFw48Kh88KR+TeFuTeFs5Jx5TOSwUEwuTeFuUeV2TeFyTeVyUeV2Sd1qUeV0XFw5ROCo9KiBPNylTOSuTeFuTeFwsHxczJBuUeV1NNSg+KyCTeF2TeFw/LCGReV2UeV1HrTjRz7iUeVyUeV3k3tdONimUeV2UeFybf2EgPRs2gipHpThKsDtEoTZAiDNBmjNDoDU/ZTcwbCZowFYtZyQydicuayQ2ditBlDTp59c1fCpxtGYvcSVvumVcsUzl48/e2dH6+Oq2tJ6ioo+Yg2ibf2HNzLF+gGXb2cZONilDnDVEnjVCmDRQq0FFoDZSOStIpzpAlDNBljNHpjlTrENCmTRDmjRHozdFpTdNqT9BlTNWrkdEpTdDpDZKqDxLqDxMqT5Yr0hUrUVGoTdbsEs/kjFhs1BPNylBozRCpDVROCpMqD1dsUxltVNasEpfsk6urY25uJvFw6qUeV2Vpnc5oCx2o15WPC1XmEVI44+VAAAAXHRSTlMA5/kHGz3cIQQv0ffsogxhFV38Jb9/0Ihw8g56cLuvyE7yFOGL2P6hZkhW5cWvNESXK5H+/pn6G7lVPP0xsuby24zNvUBY+kuYY3Ch+npgf5bC1j38v4me6tdv/tYdk8AAAEdMSURBVHhe7MBBAQAABAQwCa6O/s1QwmurAwAAAAAAAAAAAAAAAAAAAAAAAAAAAAAAAAAAAAAAAAAAAAAAAAAAAAAAAAAAAAAAAAAAAAAAAAAAAAAAAAAAAAAAAAAAAAAAAAAAAAAAAAAAAAAAAAAAAAAAAAAAAAAAAAAAAAAAAAAAAAAAAAAAAAAAAAAAAAAAAAAAAAAAAAAAAAAAAAAAAADplfrGsHcuO3L6TMNvA5YAyR8LGslmyUkCgcTum4uZVV2GJd9ArvrNzCRx0m7wodzpyf+Z2o1GbaD8c7lOmLy+WKWti+9Sd8EXSd8HKLL28gRps7p4l/pvXD+ft+pyJvXcbNeRENKP121YivyvqOCHArrLE6TLig+pu/S5sGfVSorz2VmG60iS7yL6dePUgxg9QEmSNyHjyjj9eyrPaDVsa9mL5F0EGddtr2j2uCvWfAUlDi+Q02YVACBfPwQARDnQRxJfz5ytI/mpgPLK+Fz8JerSeub7tRzJjwkgfXllzVK0T2G9nRkBCc3FMjvq9YdIABh3n9kp+McAUo8A/Vb9BeLrZV8JAID8uLi+PpB1X+pHXLLaxBvJwI/WQqlJ//2WSt49SgelXl1aAUm5cWfk2zQMLsq394tPfzzx++VHX7OJl27ex3eQYbv4zM6rgnVxAz7ja6IH0KKgH4qHrmM6rOL3ezcJI1sVl/ii2sibPg81Spk4uiMJPY8+/QU/0YECGPfZ5ZpZOYcsfDYCqGP9Wy8fe256UK8nk5PPZ7OzOqigGMgxcErs9aN2ULqPJ6hrjYttTmOZjmFN9OzC1VTn8gLq7H5gXCI7VQlImwbG3aqBYpwabwd5E6BebaJgHOrHo57puXmXid0xj9V6esNyGizbL92S8ycG0jzCg6ybtz3LSaTCeRF60+7/XF6TYUDmF4f1t8fyaNplEyDdNDCe7rMpFxKYl7GZGXGeAEgYfSzqzZXcmD4YjFuuSqu2oDxTE32ZlP1hV5RH4+cwPMSL6Cjf7mzasN9YSA27VaV4yfSCd9LAtHJtZI1V+vqqrh4K4aW+touo6YU+KOE4D1dizo0ZWC2ly+xIcbj7FtvkxJwiS9QnXPSW5DHd5RKozubam+o0DUg3JNLxXsSM3920C+muAnHlNDMekK8fI5Wp80Lr9bXdgWd1ZNIzylkpDmIHqG4Ms+stJ/z+Qw/CFTqph8DL8mN2/IH31HdbzM1mqPPIgFQ9uN9L4r70cLo3I9d+ZU01U1oUBaXLGy9v6vTAPWuIeg0RFc+trenSbCWBk9gNZj9TpGXi97w9n4eWE4p3c5WG8U4qV8NBm20dE0OdhwakZn7OFYr3NhQ4naIESJIE4PcHlE64t7wPvza8RHHjqlXoOz8SoJ6mSMu0GNSt4PekcXjP9km+IgSYU5hIVwAHfOGXWirie1tJuD8zl2ASnJC+7IlOvvsLuPjuSwkY/UtS4X2Y3ekRk8LbFGljRC9WN9W+ZNDCibprrERPSE8mAFTkrU270MO4GJCO+TMgRaChS4fbFa+StZmLrEu7rKYVK6cw4mG3W5t74CiAibxNgACwxVRSwoB1aJZvbvakCDZFr4rUFy3zGLLEBWIjO6JKgliHhdbZd6mL+d0TVRb7MluvMzrqZ/rAnQapQ45dkNf6AreVjZsUY140YwjwYDW8cw8m6/3G5yJ7k3eH2loKgRdkHnZ30zbJNDTeol5+Lcp28HUotG+IEToqM9vC64MC/6Eoq9tMtYJcDAgXMtCxCnFkiLq1yfW9ckrACkws5ihvEmnocptv4G1pY8lRqjXDee5u1r3PtCnyF2h+whDsvcGAekohzQLl3QVUW/JkCY+Ie8uCndlvlb8SboiTZDmKZn3dTbmed4yYDyqBFfedQXaaN1Ilivd8SFw2L9JpU2QE6spx8edBtkwPESzDZMQTQ3tcBTkNxadzztJVvbrul7UlZLfNiJ/wGyWo8Vijs2cGBc6NQG0oBcZjt7DYE/kw3i+FS/cINGnH4DagH9eNMbZdR2EZQZa59oSM9eK0ZORLaAdsalxXjfTU/26EDE57Z46ZfZEVHkzht7vqhnbZ1xZA3UX2p2vPfFCjF8IjdafKDtsvNVhLyqrs1U2UN/9qSW7reT8fYRpaOqp7ZYuBVxVv2LW3hilL4P5l0n4S8NidLinouTarVbgQXwppLv2E9KQniUtKUHhZuSXxC/5bH96h8qPdWjjMGyEtoSBK0pm5l9qU2UGRX9L5tCsARiH/ZJ1sfxSlu6JZJ2XxD4Ns++2gitnV1Z6E8Kqvra2tLy7E3+hj3Sv6kaYoaMVKm5OpfMx7IXxTKdko3ePm3I/2xTO3YGY98VI7NjMoopNXoeUjJbYqu+dXna05mINsuzImJ3X5HU8Q5iXPa58eLAXjPt/qQ6cE8d57V96MpDb3FWLv0kzRtJvSvagHlx07TsAOe5NdjhZz2iRuHYZNfZ+SS8FOrOoWEqWCkcpKXbd/lN/8vt1ZgNcZubuBc3tehgQenm4WtYO3D4erU/4+mdX5JqECbztlylKGQUvWCGmF/UwWu0mAnp+NUREZMTnDJ8Mm1q77wjHv0qWKn18u1KHrU4n9+LHaUx/W1bvLZwhyhF7kfdZ2VhL4ELHyzpKoCvVE8pwpSxkGL8VJiCKn3coKFbbZbSx7cF0qS/reXWiCCXhPeB9b56Y0W6dlcT4fpULnZttRWoy7jzuj1vf22Zk3DZ9rn21Faw5n3zUKeEn1mjZzpS6WJEH20ebaa8Ou6ayXmGpkzgGt7rw6W/+qX2y/b5nCejMN3P7Q0S00Lm3sj97+0DR76L9dlaVrCC8ZOYqHuzDlalGkcgus1GGfiZag6RJ1pBYLrW7Efgesw9g4dXWc0NAtrhC4jHAhkPFXTeRhuuASSfa76hWuD5kfbg8TyzyeEr+FVRCWvNOSlhIfN3N1WIzInW7icLcjTvpslOfvtGzq7m27am+V2BjT8BWMbQItC1hacAMzWGrAPqVc/UwDpjSjnwW709QC6RBlvUSkZrvef1fQKGBWOjfNDcNl1swyDF7odK+E79OGo9BdHjscmDOUK6P86xMNoJsa0hI7X3OCSIhWEL5Jtj0ihKqJ5dUHF2lLaamyY6VILGVim2T3zZmPae56ia000QRhkc0NGTHYKrHTxVSw856bV4cZd2GSOf8Wb5Fp8mDzXiTIlHe+K0sfkedGaNqloGmWpb+CcpqgW86vcKAOrE+lxjZkNpMC6di6/D4vEkRhzFg1PrYPjzvJfN0h5JJpe4kLEBewLBa0ukWNwV1dETfhoVIOmMmsRTBnm7JoDHELBgxPxT0vJXo1NmBxG/2NuwEHLlqFBoP7tCMMiLtK801ZlOifmgLu4YTg3Y8BYW8QuGNZhQpPGanD+DALenjzLscUgTs0iIyoO3gdweW3NgiMkJmKVQrNLPbm+bjTCX93q0TEh/k9bTOkPsybweBeRUjIwR4wE3BFGq6JhbkgQANfuLNU2Z+Oezvi25QbQDhEtUACZnqhPlYuPu70Pu6bPQ2Jw32BsCC9AStEeHdyKp6Nu97KkNY1v79D8PDEDhS4upuHdxQf94yE1d12JO50CrJbaSntN4u3N/zhuCNw2/ATDINroIp/BrOj0EyMoHDHR//2oxm3Q9wR22QTtkrYJba9WT8J7jO84tR8ye8WIycW+ghm1h1fyQaOwt1LtqDkfb5K3DxkJAj3AWLa4rY/wD1GbqYmeNyLJBh3TYkK2SHwm4spxYTI/EbCfYCQXFxaItd9N1q49chfzoiuxcdVmrIej3tG8Liz8B1iU35+kH32EM57HNwbCHGnut7qAfmvF1j8rB3+pKB5QiQLrKjicW9HPO4DhNYiOxI5rhkA4bzHwb2y4O4RAPUZEnfqe7MmQ3icNA7Pxz0t8bg3EJpqpeDWkoW3LgsKd3y4BjQA96TATaT99wyctkJ8j9zYPRd37Xijl2IFoRsxh8h+Xtdj6nqbBXdM4n0OwB1mFO723SEdpX3q8Czolfd83MFimRG4h/Gle60Rmd+g8Jc9EHcasE4njsJdlnlQY9k1crZQr9zn474BenkvobjnpYxtCBo4OvsSgzt+woHaaEWWt7s+YI3TCY+7fb/QAdnzcWd43Gko7hmJvu/NgPiswFNxl7jqTEb8Ecvv7ssTAndtPo2V+4V7kTjijm+6FvWzcQ8Jk0mGuexEgxJZwDBQcrB4k8/FfcDjPgfhrn9ofwR85j0p/hbuGQnCnSGj9hkCXsPanHBHwKDl+jlwb/C4F4kFd78wvs8esZnSv4Z7H3T9BnAuQAX+peT8qhxxx2+vZf4/j3vjWm/HF5pg+dzWPV/AUg32vneovLM5ut0peqFp/H//87gPrgVIfOIXqk/uzFBAnaKQr9Ifha7Hudn2Qo6W/v//z+POHoA7fQrudoZo0CpRe7APAcwTIHwiUivRFPI5cOeAqKp+QtyL5Mm4p2VY7LBKTNy+QMDGUIsH4D58StzxL43hcd/ARgZeKXjcm7+D+wCY8gxTAacJFMkDjkHiX7g755rx9eZ2/EdxnyfLt/L8PChYgndC3IvUy38d91rExb3CKCUv/zncNbHBl6/ANNHBuPcdKnj6r+Oe9ZYGZ0/cOTIz8DlxD+2dFXXI2eUJDdmW7VcMX0P/Ou74N6IYoN58wXtIz8fd3quvXnL/F6xhQJCJzRV45d2/cN8ekAgD+mzcg/sfJu79LTJZtpiwfkbhLnyqql+4y/UBuE/Fs3EPzmm8Jjb8lsnlg0j4LBZm0Ovlv417eIp2bOPjLurPj3t39PEPUvh9NGRaAk4v0AJDfNxh+8K9uY97UuNwD842XB+JO+LNN9kXPp+EmhrErWo0o+Iudzzu/T+O+wKOviMe9zJ9Nu6YL5BIMrt/8G8asP0tZRrfujdf1n2GB7zoxULf0Hk+7nmRHOAupyZ1ph3dLS3q6LhPS4RD8z4z7oj+li067rA/HXfkt26hnJ0+nj7xCN3Sc3zrTr9wz4jj5wfw1p3/G7jnL+qIdwkv861e6kHIm5zMEqG/ZWqiJyJJ9oW7JgO5mdqZpZ8ed/ND5Cbw40AzzXq1CXV7ehGN8aad2nBUoo67/Py49xbcvU+FWSI3EUiS/SO4X4pevZ4AD2TdhobzgZUClPEeUocjSL9EFRl3YJfPgXvzmBYxuGJ8xz1yi5gs8+fjjuRdI/8h0viH4Jc8zqFrE43cIgb838cdf2h2BVjrgv/8TnzccdFfXpdnvJ+49gViK7Q+M/ILr/QLd/1LXJOSPfyF5em4Vx42l4E37UB4jn31yN4+HGzC+u4Ld22KI5axiyQ89r2qT4H7JW2E9INdNBnCFEdNFgxwEPt+4X7ZVOwvE1KwGCtvUIfouNuFruAMvAQy1JhTYeL62gwcnh4/s8/HHf+xGryvly/ga6Dxx67Ex/2ScuLm0SgYmwwR2Eu7N4MPB0T9X8edoc5HVkPMI4CTAgNqLNw9JWt6kFbWybag+kf32Oext2PUxaMlj4I7exTuuE9Dkg51wLup7efj7i0dX0GdoA79VmGLlTNEjp5qcVDTRsvnxh1nXTQeeNiAX/4x3LVF28X9vLsoN047PEMdebXZG/z6EdkX7lo7MZ3HWli0/Tzcw4QrrROYRF+WVzZUtE4vcYTZPnSNdyYVu8SQ5R/H3fRm8I0EC0LbWf9Q3LHWEkpe1NmHp65tQVyI8H16m4pbY9JSxcB9Q+GO/9D4gDPv9uFkQhEVqifjntc/UyeKcEf+EH0E+DvuestMPhn3Kx73GRCQ6K3BYt5DD8KVL5d/F/eFyJ/Gtrg8Rgb1GrGTg04eE4nHvX8C7hSBu3FohFFqwrru04z7EMF0ReCO60LpfgXykiAy1+5vUOG73gc48IrwwqNYd/Us3E3nEU8IB9O457gSIzwN96X/9TQqIHDE2ptXUuO+FYQ37viKSvyvZucI3LWGTFGijuDLJBQRcj8T95qB9LNi6GAY36ROJ4Tn/kTc8dY92CczDTMCWLVf/kncU04U4qQphI1AGeZBWcwNQob/Bu7pUS5Seud+d4Vx7orp0+A+r4B/9w3tTkpSY7uvYb/EEhYB967HT/CCwl2bd1ME9dO2QCVEZkCEzDH7KrN9ktH6xb3ODzaPY8WFTrLvno47/rVqO67AYuymcsx8pm1Q5l3gTyaPgzsL9GPsL0PhhWovDtU60xH5wPveAN85W4sH4o5Xt3pJEUc+SL+07BIF93bE4U7XsI79yH2R+GNr7K4MvrN4mvENAOqKT4gCi6NuYGnwniwTP2VU6BNa8cWqdkjkXexQ4Njv+bDVOFnCM/hqtUweetcE6ps5wtuzAY17O0o07+aqA47IdIVEu/jsfaZNO+5QDXy0qnkPyCjHr43lmYiQO1oAH5xt8Irtgpu/HWlbTqx1GyLBpo0Z8sREnd8J3THTVR1iBz3PHhetHu+vMqnCtmiZzA8vD8CAs2h6gpGJxL5F3YcWCWvtQhk5cPvRCVGYYxjKvvN1LU1FkI3T+jFGvtOm2ZCpyUP2+Mm6TPCdynLN8SWGqcLH9brsjT0c8VURO3CUyFva20j5iWmI0XIF3DvYNkUBiLG8bmxoqoXSIutSp+nGXVo6OFL5MAUEufj7mxb8FMsyxb8goD+YEn44oibOwu4iLLRjetW8Nqq2PxolC8rqmCLhpySkL8vrtjd8oUXd4eLCZTq+JPQWqloGj6U9O9h9VF97zM3BIMDcZ5hPR/NL/UK8/oR3GM/03WrTYtKOd6dgDy/salFj1Xm+HGEX+Qv+SfTldRv4TOs2jCh+wrsEdoYVLdVjaZ/HY7U6Y1asynKauFW64djpFrs28PjDQF/m/MgulUZOxt+TeYETH4K5PkjB1Mkj9DtNrblQhMC7kPHK+Bzwdt8wnflRYjgCvjNPgUqqmC3K1QvI4xtL2OwQz2SUCXkyN6v91d+0GHo4U9G08iJF867vKLtzD4upCxh85rotqr2c5NmlVbJxmtlWPuXrpGyHwuxLkVp6OpAipQIAUbKqQPFuAs/mO7deNz0cBFt46YqKlQlIyyoft2YpDmnNimq/9mA9abY/meS8XvZyAmnzM6eSVTRD8q5TE9UfT5XRYQR55yRcN0lrWg1bmYAe4+yYi5U1Cy0yQ61tXcycrb0e5lSrSbk1C63zI5cKLfpKq2fuspmsq3Wu8z8g2IRpbcrigpd2foN0ApBu4czUr4zfrsf0x8SActwdybpXNL8ZhPKtFADSUe1AStbMDv5FvSobddN4ZU31Js19wsDZmcuZ0IpwjRET0t9MZvsijAOorWsHCLd8bDJA8OfpVULaVCDKbXifAD68QWCqD/Y2Snv7NwDlu8C/3cw9/wYgvQe5UVkRNMjssqQZOCYmDgiT4F59rJMghqAy6h8BAleXtD1eFGl86Jt7hZsARapoLTL+AotRAbWIvTMht00wolqTc4ExbzBalI3m1Gxd50HDyDJ1Kk7iZfLyLbIXxPV1Bgct7RjBFKWljEBqhVsz9o7AQFGi6Xx27ji4D2HDlKnbV4HxIoWG4KEGR8I6x+tae8Vb97QMGoRG4CQp3E83D5pwEJ7nPvM4uLO4uF/a+Lx7FYbz+gVkEOxllV6ejDuNgHtS+OGObSys2aTiBmUxsyBQobwPe89Yi/EnojRCLKU38ArWqr3Ek3ZEkIrDnWSIcCrodUu6eQGvYHROueGdmRm3auz9mukwydj2vfGDrfICXkKyzfklqqwSQSoi3jXbzihgp9cuxU4cFS5BbEuKaPJ+wl5naxlb+ugB63LxBP5lUs7GZigusYV9Ay0wJYkg79KXb0LeRSTJBL9LeRv3f4P7on9oyLfmFkU9SPJdSE/0nbzJx99Jkvw+iGd+Kr9kfBWgrKoWKw9MBtDpYMhfIl3OCp3Bnq7zfsuyG4SKnJCsvYv3wwj2OiL0bG4v8YVe2XdpmqaqZkqLoqizd+nSN8nepS6KgtK5qnjTDIyxKzcG2d5G2ZvvwqvvMtMPefuhluW9jtB8DGLkltqBvd3F8vGzIssyfSf6Xj5uZXkbhjG2ZRd/qflG4BB5BUA2XiPONv991ZL+x3K9all/rN5e6KX7bTDOP/jdaIgfw6y3o5A/RoGxtW5vAmRM3r1P7ckv7byf1ZwVTOM+x2vA/5I8m5utTLSV1Aa4vw5zhhp8ebcdy0zpj0WbvsnlN/m5emu9dBvjmtUP2/E+Tp1l3ekodKnefkAdFnsTtcQKVWCD1kcZ/nezI39+UaFIL/n/sXdGr4ljURyexgaSgAjEgPFRNZCgEPBFYKbdbjuZ3ZZh13eBcoUUMkuhpazkQsaYv3yjma6mxzjWZPDAPd9L3/r0eXPuub97LklaMW3VbvTqzdcqaZV0NZyCIA56lNyfg283lYf3j16Hz1Wn5Q6bryVzX2u6IHNZMYRS6/yomT4IgmFNS1D5S+219vma6kt1gtCH7M3eV8qw2CtRidwCIgjCOdsuls1Bz5HVjKwbYRir+qK7L44JhxBhhCDa7sZhzrSiBlSto8uOMdRAA6vgFiI+CEJRNbaxtNuo/Wzzey63hqBLXvD+DC4IYjuVyNwDOypt2QC3B8GBMDIIolNnx16XkF0z2tt6xwVByNqW7e++96n3TL5nfjUSCALeFwUDMg9BLwwQs+EHRBBEbTs+b7m140p/qTjbigGCgFdFraNrD9tEf9BEEHI/qqZNLu/2HYXuBAEnu7J6icpDcSzUuhNESyoXYIRXaEl3rAFlomeVfX8XziOj2v3mnMzCb3vklv5WsILxB2JxdUtqobedm6UXpc4Z9d1TribYyxmyfRr1qnnNiE5VP3k3ZBc2GnnbuSRX83okZWYm8SfSCxmqCad7lAbedLXES0S2vfDyIwmGCfjgN6tXM3cODtkSjY9efH9FhqHCKXjwuyQDTo2ZWy/+fkm9SEwoAw4HN1dAk4EfkWgokzi+H30lxxABp/cxuRrdhb/MdOPF8UNwgWjSGeGyX6W78GeqkziOX4InBMs7AZ5UqbqYiUSvZT57qe6PgY9neSd0s8qBX8XD/E1duNsDXpyyCHw8yzshM6i7W/17L1FdvH3qWvd54M8ukDRnCMX5RVkumYGDWrG4WtvuhYHvj7D03okGK3h1pdJIJB8L2HJfk6S6+5eIKznS3Sq/V1WGEVjcRdumZvh+4D8jSc4QNtC9kkJbN4Wu3P/04pzuoy9kGgYU1ZoCyrVR4IuA/Eysj3ktq9sznr/5vj/7HcGpAwE6KBUF3ttdLm7PvT3x4g1Pa91Hf5FqWCIzAG6qFW5U+UCopU2fxNt8/+avwBEEJnobMyszVM99MkxVqKBMnBIC3Z+uFXINAbZV9mF3SC5BzxqCtWTCMN7iPtU9SBlhuKVNtLvTXViNikoZ5orVbg/Dle8b4/8JMmYoyhnCjaa7kI5uvttS7gFhkQr3r164It7iIfiB/xuCLAEhS9OqfIcTIiPtXKjgQJgBV/eUp+s22XYSYKUN4VKr9PzfqKsKZ3t+efceg43vd2i2q7RZhTC3XWLUpGi2K3dxEq7IF+8PG91nozs0lR2NIoBY2juzLh2XiWp77e84SRK4vD8GGzBkIwlVmhbApd57am+nC2wXhrswSfm/dA+B7pnvf5BueI6aIOys1Tl0jzpmPLdL1UWq2+Mkya3ur8Ivgxyn951oa3xaCOsaB3hbs8dW7p+wcUco2xdJzne4umc8o0rP0Nw8CGfmsLHX+Jrc6zP+ZptbE8v2vO6bHME8yOMjO16lqagQxsxBz9Z3GdxRHVdjb2TnplAhyNt4kQJXd1jMpMxO7zthWNP9cMZMrem2HFtWM2TbMerNvsQYBx0dVaiczNr2N9VMHBas7sjiMzTjvZiIrZAy2IpoCuBWT6jjwy/eAuieyZ7pDvBHn8k3HL6Xh/VtwUbjzedbvodhvhmZBDu4xOA7vb1XHm4aYiVD9IvFlu7wpGnxbwDxL0/+qgfhnPGysrOxYJNPO5NkXqB7Jnyy0h1yet8JfczKyT6whZsVtpinwGomzq3uEP/i5PF3QjFMfrzsWkO4BNRVsszpDpf3MNjNDEH8ndDr7CjhIzZoiBfnvk2Wy7Xvxb2ZJCjg+fTxd0JR7MEBwsNzV1vALPeN95Lpvqc3kwRFPF0j+BgSijO2ove4zvqGLuSX8GL58rIsrmbyqzvk+Y5kQ4Hsdll0qOuuLOYqVZuktr/kqxmYmwmDYrDExYiOU++z/cpHjJ0NDOC6QNvU1PZ91Uy2VZ0FxeA5XiXacmuomVlSAEYJJG1o2CI3F/5j7451GoahKIA6xBVOhzKkA3gsZWAoa5YMMMBQCaGIL0CVOmSwlMq2lCVp+XKSJyoFQWwLdXiId4YMmTLc4foO8WOrgavN1IO445/fSZxOLpar+fQmiq7OelF0PZ2vlpe3iWT/Wv6kNHBuM+64W7u9TxkiRMBDcp4mPc4XMSNMFlpp4NxmxuJuj7bo5xlCxEOrlAaebabe2W9BHygrmmcI/uKuOhp4tpnGlsCOqNYMM0L4XnW8bQYC31g33MdVQkShFQhoM/Xuzbqh/nkkIeuDAv5tpg6Ie7nBe1wlJH83CgRsMxB3n+qF4URIXChjVHCbafxxL7HezEfI88EYM95m2tC446/vhOSt6YS1mX1g3MvNSa5uEtnrQAZmPfYbs0/Z0fldMjBxSDop5wsZM2Rk/3XwcVzGUgp2IrMvsp9078UfrDIf3Nzha5taGAbwA7schSMSLShMPXoGYECIKBiI3b1beu/lcjcG7NP60TCYEMagrMnnbsD7d08bN1sWgifGnGN/baFAS+3rk9cHYrKpcLSZKu4d3LxD/c0iuMcII4ThmuXVaFjLnB0j2GPhOo0s3PEaFm5cX/K4vv/j9IPtGHEykeRM6/TXwWHfqw/vQzUXux3MYQvnoSxseQ/5eA9rdx6qcQTtOKT35rbcbDq3mbuucV+/enmCcwmPmI++bbG94CCz/noIDrr/gcvm9+ZahH1qT3NloiKxnObowITL3/8FwlrdhmQ2H/um9fizRXbjMGb1OCR38b0sNx3aDO92366vnqOepibIqUk906zQWcwUJEwSgTQIi7zUyBWpI/9+U7Z573QjweeOcb9Zon4UDGOg+ZmzSJAIagiyIVbmxhMkqX+/lZWubaZ2V6y23Xz9B/WSwWgQi9rx+S/lAQMZaV5qyLjk1eevNwfiXukT90/96kyuwahomE4VHZ2RSkFWBIcL+Xb88rascLQZnrhve9UZncLozDXPzc93lgMCEiPYznUkk5d1leFoM5xxX/epMwGDUWLUiXV0Dmom/yymMq349+XBuNf6xH27vnomYLkLF1H3HNU10UB+vqMgSfx3W5Qld5vhifvx94rFBMYM02DwvebAKGBJAv/sqixKnjbDs90bry7EXKjFI5aboCHpFowEdidSPJ9aFAV3m7kreeK+/lsVdaEWL0pjNJzZiEbkGyoS7MVfZVHwtRn+uG+PfKMlx4QnwIzCQBXQZeQzD2dIrOWXosLfZvjivn79AvHTfXgiGI11NIgQRiVydSTQH9+KCmeb4Y/79uMS8ZtdAzyhwKtoAB6Mi0kTJIy63BQVzjbDHffVanXMrZEzLyLwZJBsiA7vWgzGxQqQKBe3BUfcK7xxX/306U/ETVXywHDt0MeMmDB+UZqgU9OTeDGyEWmuisR4WxYFR5vhifvqse3xL1zVJ0oSu6mHh9n1ZN4gcxiYiTmqK/eIpjb1I42ZIL1MF7PcvxQV/jZzOO6rvernVvtQ9UmycEMfa3AKLLJ8j6Zp6kxbdlqhnudbFo4G2ZamF6Ph6NWMAjelPmbQk2kCiRqaCSeeBZ0IXe78bWaz6hT01vbm/9NcvAMn8wn0wep703NFP7Qs89iYOnbo+RqcFrMVNLR6MaQegWMQn4a2XS8BI97Jg2nFttOwfRz15f3g7oxaGlfCMPwBPcmAIUxzoAGTJq03FQoJKVRoUbuyiOwusr/A0FBwwRMWatfC3ghnf/kZlcOw4LKdtzNjNg9F8TY8fr7fm0zkZJ1TOdyV08zXajfPJVtRRmrCHcQJrKEX5rsLJ7yfHUdJ6p0Ef9rdFj4IHWC/mP368B3z3SzvxpPEGQYN8B0Y7jWWZqTu1c5sV9daB1iMzXhnrv5mdJ8XeTzqeZp2h4MJJyu4karwB136PcL62STdb5MK+tx6cq/rJZpmvlbqnHdIJ7ybArM9JxDGi67Yl7Xss2lOdnATxSVy91XK7U73SnqJT1a5+CJ0r4E0g+p+e0F64ZHy9Y5oL1jRDWUoxvEin6zgh4FKlMlJBX8Q9k/g+T5hZJHOopbTXTXNQLpXiw5pZubYj4x8ECf7b2wjt4EHt0dM/WJMxugTNMdkketlXUNpBtf9nwvSzVztYmu6wn4Wp94fEmjcntG/fYyKuIdtrt6crHF4XgvgNCN1x8e7/XP4Y30X2M8m6X453rM03bo7X6HhjCB4nGK/8S7Z4qNI7nia+f5QNmS800Sllsn07sqjvUb8ScQIwNyDpd6AQHjsQLdXmbVDTPULyxpIM4Duxsa767zdOGF5KMIUzpSTBeJAQXeUYgps8MMB2eHqQcoOpBlQ9/JO/3hnkYLu+vUqRLeNk7hkHOZ6FnQnlveae7fpbCmnO5Bmvn8rq6aM92wM6K4RHvVw39OCjOP3AN0B+FR9mYnJBqcPm00twLoZXPfy7pq0kwC6a8UN4QkfmPedsZEd3RmLlXcZxyULXCyl7kA3g+ouOD8iAE1HWvs+mSGbwk18L7cQ3gHdIQbKq8zESgv5KHVHuhlc99uPBKDpPZIJmYLlaYCe3J6TYQYB8IQFRqYa7JyCjPNh+Sh9R7oZXPftu0PSDHcA3bXjx2iiMe57dmAvWRSqvodknPebZ93xbgbXvVpfvl2xnJBJihE44J15e3SnwmnavabTL/f3Qnegm9Gg+/Y9I72wpBm6Ezt2wPxekEmKMaQ7/lyHEsfmF1Wh++Me3YzUHWD9l/bmPQB0N0KRBA3sZ1zHpu40GzbqSeDDdxupO9DN7Kn73Rlppjm6kx+Psf6dt0B37NVmw4yMcrW8FwDdjA7dy6pc/G2raMN1x8lTyPcRb4/uPGnSraZPz7rv183g072sbj/b+wcW9nUnF9tYQ9YC3aH4nvpkkKPFWuqOdTO47uXTB+gi9bwGfkQ28KMhkt/jFugOxRmvIINcLtfCd7Sbkbrjvq8v32i6h2SHAdLQHMzaoztPm3KsiZ1tnnTHuhmpO55lylL3spo3TXeaIwHeyVqjO81OVPYWo2dU11J3tJv58e8WUf2Fqnw8bed0l7h96OUrrdHd7zckvH9YrgVoNyN1hzwXn6cfbj+3XXfGp9DpnrboTjOFfX2ckTFElnltvBvSvfyZ6uWL5gdn5kNAd9P4iO+RId3tT1neB17mpB3WWayk7lA3s6PucqDLT3WzvdmWgtUVacT1AN2b6Hvgzd9Ud0b6iIHfchNZZiV8R7uZnXR/ZaCLr5LtTXX3qdW64/M95W3RvXCasKuebaTur3czuO7ScDnPn/0W357n+vb/6V6dd1qtO+77pC2607QBj80cLVZC9x27GcEv0syPbz/r/h95Z9vaNhJFYUEaR0uCURxIoXHsJAAJBBzakECLnbgOxUnB9BdIIAxmrcB6yxZ93CX/fD2TOz56WW8sRvJlPHdUae6opS1+OLlzNB79t56HvqxefJHiKrrB+MkA3Dl4Pz3ZFNz3d9kXAbvDubinqpm/inkzwH25okPPScvpIlPRFUMPrgG4c/B+WP5H77U5cN+p8Vszj9fjZfJeFPe84QLsSceVrJOkyz6d7w8swB0GRYEof6vQeosDd+eYfb+ZD/2fWdwB+8rVjMA9zOp5StRJx0nWaUyyLm4EfuhHIytwd3ba/OWMx4N7c2XrvVHR+onu3JfJVjPFvBngntJzVOfilFf3eDpPxZXOYTxwrcDd6dR43Bl+3Dun3N9oGsnSXcObAe65Ih2inspJ1dVV6X3ws2sH7s6Jxib0RuPu1bhx7wF3HW9G4J7W8/QFtYs40UAAdZcLCUaW4O40i26utdfZCNzrx8y4zx+pUuh6M6TuSs+h5mKMIFcples0Lu1JkQ9cS3B3C9sz5+4m4O5+Yn6sOpS+jJY3A9wzIo4mqY4JeXk3FIzLRKDuyxv+311LcIcRqLHRuoG4OxfMm818vZ4Adx1vRuBOHjr56gT2vCFR46FIZROHUvloxIO7CdPVY28TcL9qsOLuDsaEu7Y3Q+oeQM8XCSamdBEhLjSg8vDBtQB3eHKFYn8TcO/ssuJ+cD8h3HW8GeBOOk3Ez/OkyQ7UZUf25Skg6H+/P6gId/0SkelBD+LQM/gxE7ZzYq3dh9cT4l3Xm/nnJZZkw21BU1VLoEinUMDT/cCPnirAXX9dNeeSc0STQd2PXa63oF1UUroDdx1vhnAPiW546bFCXHTpEDndVKCrFvXswd3dL1bONGre+rG7KX0FBSvuD2PgruHNQN2VB0Oi7SviYyXjlL/elDPZ5KmsVcBerSTc+d9vimiu/0fLORfujQo+GPfsbiKiFG9G4B76IfEdQNODBezQcip7ADod0XB9Rh9wN8Sdae+Yj3trVeP1yik/tq+Bu643I9Vd0qwMdYU5MZ+Cm1o2jx6dUsI7NAB3p8kg77y4O584txwZAXdtb+ZFQE6gS8BJzxXpCaqX0h6Egy17cHe9NoP3zow759c7egL3kryZXyHYhsu4DO4c/3SMu9bgjv1BNFbFGoc7x6IJiq2+YL0cb0biHqqpqRJ0gJwr1dGQB0H03Sbc3YLme6tuC+7vK3rIJEPfm4G6g+Zs5w3uZRr3bMLd6ewxbHzOijvjJpHD6+fJRN+bAe4QanCc7qObp1/G3RkT7kYsjbwxHPd6i3OmCty1vRmJe7LlSV/mzExF8ymibZtwdzqXDO/Y5fTdGfeI7AF3fW9GqjuOTMsnJOiK84B+RT+swt15z7DlOyfufHvrbA0mz+Bdy5uBui+vZVLJlEiX4u6LnCLuMeBujry3XH7cq/97d08q2RzyGbjreTNQ94zVmBd3qLkEfRqgyfG7d1bh7hRbSrB3ZTLu7sfVpuY1r5JnqsBd25shdf+f+ShKdNkn2CnBULTNgLs55syR0er+5ZZhYx2KJ4F7ad4M1B3iDkGfAutUU/gjjX4w4G6O9972TMb982qfypVTQTwCd31vRuKe55xCVusZzjO5SuOeXbg7J4W2Jbi9Mhn3I8Z3lvSAu7Y3A2cGLnpKxyXOSsqTcg704bxbhXu9rVHNGFa7t/jWum/1Be2leDPAnSR9iskoihggDsyzpQ2KdwbcjVgYeeiZi7tXY9gClkIaM6V5MwL310jQnSlY6E7Cd0zo+2I0+s6BuzHr3nc75uLe2eP7uvxvopYpz5sh3MHuwmdcJCA+4cRki3k/ejQAd4aFJKDBWNwvGhpPjjXjG+Gu780A9/x0NFmW436+pE/8kYFtuH8+LUB7o103FXe3xbg5xAi4a3ozwB31ydIG6sUZso7WP2PD3YQ9xS4/mor7Tk1jbqLvQ86Au7Y38/JHmOY2k/jJIRCf+S2+aFGXAXdzFs7cXvDhXv3Lam6rejF+T+Gu783IUBCDeqRv2u3z8MUhWrRtAu4Mr4EFg2bifs7wNSb4kDPgru/NvPyKp8A8X6UvHSHIpXn52o2fGHA3x3pvtL214X5TrgPFsdCd4t3dbDYr05uJp29QjkyeSc7nB5o84q+24e4caSwTqxD3xtGa/5MNFGql+5Cz2arVzAreDNTdzxU1lMOdSXOeZT7sWYf7l12NDTgqxL253ndSNVp1p6LYBu763gzUffl8VVUu0wXdWVmnUzCwB3f8ewvEjWsi7hcMz1MR3wTuJXkzpO5AHcaLylG6+AA7I+zq0v/AgLtB3szxjnm4uyt8JJeo0iqw3f8sUM0slXdUM6jdU7bMv+Tdf0vbQBgH8MBGcyMlpB1EIP05gHQUWprRQQvKEAEH4HwDtcg2SMZgBUoQkMH+82XvSB76tLkrZ7brsx33TU2jFUX9+PDcY0wzkA6Hso69enDx2jrui1qT94mB1T2i/GxiroG7ntkM9u7Yv4PsTGAuSj88yl/RcjfuvJmBedyXY/XZEezE3HXOZnAyw2HvScebXLikxudvrePux3W4R2TcCa+4EfvO6fLi/N3mmd2Murwj9xI6j1jIMwlt+Zo1/0jJ3cBRZM83jXunrdQeOCcMu/wB3HXNZnIUi0dC+a7UfGFXcP9kH/fFkO6cd3ruyzGxdvGPqpvNRutsJhenLaJtxTK13N1fm3B9d/KnccE0XbO4uw3aTkZMcMG5a53N5FW9ontlKwPNzLl91d3p1uA+XBrF3e3+a+3s5R1w1zSbwWZGQRx2cBPfiWd1bsFzM1WTEJ0USc9drT3xnRNn9gTctc1m8kPF6Fve5FT986TFjeeS2ce95dXwnlBxp9A+jBzmnDhXBXd9sxmxusv7ddnjPOsV32CCmX398IKcu1GXV2r3mDHcJ6pl1Bh+BgTcdc5mOHep8+PrVlAOY3p+BObTizf2cQ9QoDqhbwr3lmom0584BLkB7uj9b2cz92LHcrSZKYyXzEvoGRwU7cz6i2sfd7/OWrURmMHdnStaNC8JHCruGmczPHeVUi5fsBZZr6CYg3F4rcTPXx5m9nFnCcH/q9Jy90eh6teW6PvPgLuu2cwWqnu1m8FdQRp79DUyxzeWSVeGcKe+KgWmOfj/uQeDruIr8mLXIcotcK/VzXxXVXd5375LYR6OyuytULHGpw9XFnKf1hjNeC0a7qM/tj7phJ6qa18wh5K71tmMbDIDhRs3MI3bDjwuVHl1t5K726Q7ScxtnPISTu4i6g2Vy48ocBxS7rpmM+JkpmhXoGAXe7zf1XB4gQ3fjcdO7khQnYTmczVbPmPPrsHM92fTTtILPfUHTiYOI+aubzaD3Avo4DnDIGx4BUft+CA08ry631jI3e/V4D4n+tUa9ntx76wTRZ3BlGcwcaXhD42iJO6H4yb06wrssDgj5a51NrPNU/jL6G78crjtsxa6d7iDmMad/kknYwLumDaPN+Txhk1p+ENtcK5OYz5jDm3Y7dPjRtdsBrmXjEu54Bt2onpcmmIM5U5/ynvX18OdPo3IdegD3HXNZpB7mgFucA68sYsX3UNs5z6qwz0wlXsftNNXd32zGeAOwvdIg2eJ8+xY0jS1k/uiXeNKYsZy98bdaBkw+ur+qHU2s/2W7lgj71K2SjlkXWzWcp82a7QEE/O4Y4aNeEHavzPgrm8284tzP5izVCu6Gjpot5X7cmwFd8g4Hs1oq7vG2QxU91S0XZnOHIOOB9Zyn4VWcMeE84VPWN11zWaQ+55rZVlH4XhndXV3+8/v3Y3mjvHCsxmjqu5aZzPbz5x7Jog/5hyxVyu8tdyDbo3ud2A2d0wzngY03LXOZrY/U1yKInRROuAG4qJ1a7mzuEZZXJjOHfO+NwoouOudzXDuys5FNI4bYLeGu/3cMf3OicHfAHd9sxk5d4G4TDrWdeB+ZSX3xDrumHAUEHDXOJtB7nLncuq/2bvD1rSBMA7gB21NhhI0HQlUTbQACoJBg4JFnThGbUfZJ5iHjIAdow6gMEjYSz/3WIU97TZ3yd3jvHD3b1/1bX+cT/45754W9Z8/mjtxFea+tf2RdVjuaN0McN8PHf64U76DDlGbu+a+te3W1QFPIkgSrG4GuK+fQ/+b9L3zy0vuY3W4a+6QjnuoiWYM3HG6mYcvdL2mex5Dn1Nfs6Pkd1WJ5m5v/cahThFLEqxuBriv7/c+jwJ2dhQ7eENzhzRd4zD3TCa80wxzdX+5noPytPk2vVSSe1Vh7hA/IPi5mCUJXjcDqzu9hzemO+eZrNOnzE+U5N625Xur2vH6rltrV56nXXV36Xue5xRKxaKNOsHXTIKdk/nXBK2bAe6/1vR11lBINDc1dym2iA37hrX7X5jwCyGWVTaMXjeoVAf1Qqc5RBrhD3C3wSRMkLoZ4M4X+ntWr4kU3DX3VoZTCMpG0B7UnQ4G+HoPe3VfhAliN8PFne7JcqK5M3dEynmsklkOav16Sdi7gz3Afwhj1G7m4TsVgw5ZLRTlzrHfXcZD88pBu1UoCg7wyI3kTRjzTzP83GmKrFhXkeki0jdk5A6xjADEy+D9LIwxuxk2d5o6q3eaOyP1srTcYa6peAVpvJ+HcYzRzbC506xZneWZu+YO6VZ9SbxfTuNYrJthc6d8YV4Sr7l7ptTcIUalPpTC+zyJMbuZl9ypQKLpqebOSCs/V5FZI59ziLc7iH3kIozxuhngToXDfqmquQ/ywB3A1+3jHTkGTSRGNwPcIyoYqN3V5D5I76CaF+5wbQ1XvDJBynUYY3Yzj2jcVws1uVstCbljpTfgm2iqBCmvwhizm3nA435L/h391exiJW/ciTniaiWLDbxqBqWbwV/drxXgLnafQSnIDXeIMeCZ4AtI47s52cQo3QyDO34PqU8R6/RyyN002yWe7ZEmWjUj3s3gc49ml5q7NNcI46bhcIwzI7RdM6LdDD73iNI5UZN7N/VwaztWPrmTnn+ENhKeVVG6GUzuNFouFOV+VRJ9qSo/d2J4x2pnLmaxcDeDz50ubxTlHjSF75mUnzspZ/eO9HJ1skHoZvC5nynKfbRNm2FbZu743l2Ckbv008wnRjeDOMxMTxXlXkn/9BbIxx3/kRzSMZC2vIt2M/jc18zvZeuLJkuGhNzxrymBuEgvmkS7GXzuywVRk7vZx+kh5edOGs2jvGuabISmGQDP4I77pKovifesfHMnNfsY5cxdKNbN4HOP6HKsKPeyj/HZLj932B6Ee20yO+MwFutmULlHT5ldqMkdCLJTyTt3Yjj/f6eYCc27eDfz+JmfewT5OCGKcu+lHmiLV7nnTirFIzysvt/sWd5TdjOi3KM/srxVlXsjNQDHyD93M2P77hhEPDeC0ww/92hPlmNVude2adOy8s+ddEuZuNsBEc/5mxipmwHuvNBhdFeSu9nHrCnk507cjNOMScTzNhGaZiBpuP8g545X04aiMIAfsO0CEwkZKBhVW4AKgsGWOibqrJtoN8qewMgg2chIcADzL9mzb4zRO2RsN/luPeWe7wlq/XH9PJ7c+P9JJiSUe6UJP8qkn0GPlbv6G/TTrhCed+ZmM//gHmsnvJPK3T2D74fUT/85wJ3neC8PDI8i99Bs5tsuLgpdJduNBXAHu2yzwsCdb79frcXhceZ7U7OZA+5xkWzmjlTu3SGw/cvIHb9oRP9l47nHZzOH3OPCycIVCeCOfbSfv+Lgzr860yLibzPpn9xjNOGpWO4t/XUpW7hX2rkm7y49hdmM4o5nVhfAHdyYaTq2cCc/D/feiJ7QbObzGte+XpFU7oHuN1XPJ2u4D9SL1i1x+C9N4GzGIPdwIZZ7Q/td77Nw528znk8mMgH3Zgxyn16I5a79m2rbtYc7+cd/YnUBtpkH7pmBLiOUu+M29TcILOIeeMeeRFJ9amY2g3MPFwK4g3fMDAMG7uw7/upyHTy3SJtRp3uCco+mF2K5d/Wv1LKJe6UFcOd9pinJ8C4jtsxcAgWWgTvD3oxansBH7/hsBueefTwVwB38UC8HdnHv5uBefUmmvqzis5l0g1D/mc28JJZ7MNR+RNku7kH5+Nzrsz3UZhDu2UPWH0gs95r+XMYu7oMqwB3YE4NmM4W4ZwfZvRDL3a1qXw5qGXe3ycD95DU+m0kLQVdJJiSAO3j3b4ss4+60GLjT7RZuM2kh6CrhUgB38CfVYcc27nTDwX2Mt5m0iHOVaFYXwB3chmy71nGvcXCnyRZtM9+zAtBV1vcklntHdzzRIOu4+8DcHTnekTaT/pV7lifTEwHcsRPOOxuI5t5yyFje7JE2c8A9y51kRQzcgfeT477EGtnHveGxcF9eg23mU6ac5084ZuAOCOL4ZbE34uTO/7zqDZmLo473r7+TbzbzJcqKJ5mQAO7gmtSlYyP3MrDvDh3vWJvZIdzDpVzufc3z7Twg2dx9Mnu8A20G476ZO3K5XwHVVRJ3r0sm8/YaaDMY93BBYrk/62ke7iMi0d293CGjmWyRNhNGwOFeksvdB5q7Bdy7HnA1Jjh7B9oMwD0K70gsd7cNHO6i5u5Vl8zm/RZoM0kB7tGvxPOSAO7g3PmK7OTeAC7Ng6+c0W0zMPdIRR3u8rg7uod7r8/C/dH/PY4PzCHxvfeCbUaf+w/yzq41kSwIwwUZ7AalaTsQYaJt600LgmIkAwbXmJghmRWYX5APsOMm7GQSh92d3puZBcEm5E+vQ3BrdjsfdXrtqjPxRc1tc/JYvqdOnaogpvN9c2Vxhxr5OSVwn/kceSmxeo9q/yaxm7kIlEBHYVpm9XC3Nxh8q9a4+5zjDOKjyRK7mVMl0FHnA1Oq+aA87kXWlDOq42iCu+Xy71RR5uAmqZs5VQIddXIAy1cz+0PgbmRYhsLHldcFd6M8k0jEYjIyoZv5cq7COeriJ9EZpYUfofI3twPCuMsPrHHykIaGbbKbmTyIe6Cmk3VY2ejeqDMUi+iNu1eRsO6oau8mkZv5FCDoCjreg5WN7pbP0FtGV9xx8yLj57DHUiI3MwqDJOpXQTS6bwNZUsxVPBDHXf6qahFS0uAmiZv5Qw13PGGSje6u/peYNuHl4m677Fdb4merCdzMWTLcBybIRHd53E1aywmnbL9g3FsZ/urn+LSmBG4mEe44aG/1onsnSw1rgriXTEhVzZn8neK1wY2ymzk7SYD75R7AqkZ3Y4M6K1oS97KpRT2kkzEgPXV31d3MsTru5/2q+AhqV/OsjG+9ZNytEsOcGoqdUXYzF+q4Hx9KRQ153GsOw8m59ri3cgzF/qRaAlU3c6luZY4gPdwdvXHfyUmU/aJqeuBedGST7pidUXMzX35XNTNh2HslgTu9EZt8pUglD+nI3JrpgLtJ9DKOBynrbVvJzUw+3oWqVuYtaIB72dbYuBdAGvcNm6WIQj4mDdsqbmbyWRX34yNYWdwL1G2q+KWKjKHBOmQ9SF3V/rWCm5l8VcT9ql/Vfga1cNqolN6jmVrgbpQZSn+pOthVcDOjP28VcA8xKyM2EwKb6nKrU6H5iBbAy47uNUeHtAxmI+luZnKLuFN0sQfCuOOhJbO8uvyDmQXq8jTkLzJtAYvM4TXVzSDuxOC+vyaAO/3Cr/youXpHtl4HO3elJs9h+oGh23eim1GN7r2u8BBqVJGZdmIKsiN7mom4S8/ce8MWj8zuLtXNjCIV3C/fAcj+O1FbOtL+pqbJ+mRr0s7dt4BN79pENzOKolD8OBVlZci4u7aGtBe1CQcF4RK5DQMYtdcmuZnJJ8RdzrijLFxLwmaMTQ1V2uVx9xlTofJbq7XBmOJmJh+iKAipxn0d5HFH8S2ol6H59tRpB5v861c2RLOxWyageLarBDcz+SWKTmm4hyeHjP1b5A8xUHliBpLh+2fXZ0RVPMETJqdkA7O6uwQ3M/ptGhGPVS/fc3jkOh33OpM7LFbEM5D0wlvUpmDRUKYB3DIP28+7mdHX6ZSEe3h5pE0DF2xIxyCrQMwyN7WoP0aVbbHrCLkOCOjn9rNuZnRLwD2cC1u5MzTrEa/6QxkuEa4GXx2DXPFtJ0eMQyI6asfDexz3JxLv4b3mf/uvBIqw5Hv2N4lbZ9fQ5C4Vyll+D4BmnWajTBCRORw/42Yewz38j3pd/gpb+dyuVSR6h20b9FufSmPZTnND8/5urwfjp93MdTSdRuFDoAfz1+IDyyDTFpaEaDCjouUSK//4wpk7U5Av0gTVt0BMr/bHT7qZyTfcr0IEHWGfvxcfsZZhDJfChLJtKDNPTIpmPAAt1yfXFDh88G0Q1Hpv/ISbGZ19w/0uvBdG838Tf/weeGTGDqjlassbPnEbUWqx97iR6EZaq2tMO6rb+/VxNzP6OMd9evd9VEfwF+9TTEHqkphBldOBzd4khvbslg18auJegrdgzSpkae7SAmEd7D7uZsafp3PdLggPEHXU+VC/ybwoJ5NCjtfyqKMpMnmJETnsdUUtYs1vAVByvD/qZsZ/3eO+EIIeLF5XwzXgkl2aqatSWHJ8NZslcuc+LiMTvw3A2GHeqlFrhkwQFB6vPuZmxrfTuaJgYdvRxixEaPXL3A81rpK3zNXytqmOqrJpSwwN4bbvDXcmWzOk3nsGw3scdzTvGNn/ie2D18Amy50lU87fMZf0CB2XvH0oe3J9P+j6v3sLo1AnLscOgDa8P+xmxhHijmEdFXDSDnnMhagD37CWkBiqlbPkbeC2ITwRisNwGQVqiapvAOjFexz3D/e4R99n29G488Z2+Ju9+31t2wjjAP7Agu7A4jhpcIJKp5MKIIFAQkpksPCSNUtJtzD6qhlbGQGyZZSyhQGs22s7V8z+6dmxFStJS+0kupzcfQKQ14++fLnn/KtK5D2E3Mox3AMKosSWq2IWBsUQl3dixBTuJnUTuRrTJQDa5r0u999GM+P3y2Jv/nPylcq0Z4a8J6OMc7gbZBVMri4sEKiWc3lXfoxgbdQqzTXOdZp5vne73t++G10a/9tMel3vJ0cYlKFuIh8A852MYlgHJpUXCVuuQQxANRozeQ+iGKwzFkyDUvTlivoRAu0c7J3djPv5ZBH3SeMsU2f+5xcYVKGWkA/FNHhh5YgS+CRCUeb6zJRrSVwKapHcY/KeQoO7GaIEf3ooeRyxUK5cAIaFQUOHu6d13m/GffT7rauZX55hUIOkHuvJB9UzEx65VlbliNIPdBdFaRXEjm+Yob1ubKIclEKZy01bPoTQZH7hBVmaIkoxYGjCmKI8G7i+Yda93s1qrw1neT+bqy9m6nq/1e3fgxI08yJTtiVMBPfLsnAbirL0OUtCKaW9for4AIM6KPBKZssHZpuJ4LwsSsddcsqSi8SWaxIWBl19uX/ajPvZ4mJmPF1Wb1xA/vUttApjQvMgdiKRyA5hMYX24dl00sArfGFKVZZBV7CyK7L1zenbRtz/qMt9vFhWa7uH7a5dbukLIwlt2SmGRxWspK4bRZwZiSl11/Mr0NuTo+1lvZ//M6rbfTxqdvv+EFqERF92EFOxoRK/b3elBMSAgO7wi+2ruJ9NrtI+vpj8XTs5eqr658X1J1wECniyK5hHoQu+27tq9/dXZ5nGcebNS6z208X664sYgQq5IbvBcHPoBny4d3o21dxUpy4Wed99rvYDOfozeUBBDacrYUfQHcP9P2dxP3/XTPs877/uD6FdsewWVqYEGv4vd+Yi6JSnR9uzuC+P7lMXU5M3z55Au4iQHRL6HgJ1XKk/7iHoGvxydqBZnGVmLmZ2Xh9D27Ke7Io+cwICClEmNdfjFoUuOtw9X7wdchn4nR+/gLaVsht6SRRQUCuwpdaSqCKAoZO2vp6MbrT766GS7yfXX49FA4pB8aPFkd4Lu4swdNdPi7Qvy/1YyTdH6C7khYVAPaxxFfS4kxHotK3mvczMztZnv4z1E9/LEDyOoKdp1oUTUOg4DD/M8z6nptwhktoKE+EEiMCjKbRcYbiXUtgE1vh6uQ+hdYRLLZnMdwJK4DFh3WZjG7y0EAHAsAm2xs2j+84raB8SUjeJ8B0vo/DoT5XqNJuQ+U6cEtgkr5rtvnP8eb1saPdDg5eeVSGiMOr6v7tiOhbfibOcwIbB7uLO/eLyXuYA2ke53Xv0x2kmxmWjp4jiOukaILx/S0/htHqzuZRukCIKG+lg3Gz3LVAgiy23uKb0eZNgTUmTaUu7Qa7KlraZJAZjnPuFEw9SRAnBoJ00/oDmtCJeYwvXJ3PHDd1ggvula1WIEgyb62l9cB/PX1HVAUWNvzxrCuLrnI8o/anIqXlxHAdVllKKYUNgitDlhKpspqon4zqXisifE+xj+GJEXmxlFaL4v3btWDVuIArD6IWVyaRZIlQEEnCxVdoEQZott1RlSzZGr7N6b8teee3CfoE757TTfvzMwEQNpg/jPkUa+1L2n0UStSj78mL//0s/1tMSlfm3jfv2Us0M2vN13LPnDsfztfe5jdTg8OGr+ylSgzJt694v8/fIDW6X87Ktexe5wc9l++qeP3dot3Xv+7tD5Aan99ybyA26S+79mvuvSA1K83TNfRe5we5pqz1/7lCmpZp1h9tt3Of8ucPjsqojd3jYaq8gd/jdV3OZgbZf+mzrDnKH02vucw25w009ucOxv9Q+DIfIDUrXv/XeRHLQ1bXuuMzMqyH/ukPzNu5jF8nBoarckft8yf0YVcC6D2vuN5EcNPPqNfdTJAe7dpqHF+N95AfNn2kYxxpyh3IpfnyIWiD5b3/jcwAAAAAAAAAAAAAAAAAAAAAAAAAAAAAAAAAAAAAAAAAAAAAAAAAAAAAAAAAAAAAAAAAAAAAAAAAAAAAAAADP8INnXr2RnQQAAAAASUVORK5CYII=;" vertex="1" parent="1">
                    <mxGeometry x="535.01" y="494.5" width="50" height="50" as="geometry"/>
                </mxCell>
                <mxCell id="23" value="Gateway" style="text;html=1;strokeColor=none;fillColor=none;align=center;verticalAlign=middle;whiteSpace=wrap;rounded=0;" vertex="1" parent="1">
                    <mxGeometry x="210" y="479" width="60" height="30" as="geometry"/>
                </mxCell>
                <mxCell id="25" value="Backend" style="text;html=1;strokeColor=none;fillColor=none;align=center;verticalAlign=middle;whiteSpace=wrap;rounded=0;" vertex="1" parent="1">
                    <mxGeometry x="368.25" y="479" width="60" height="30" as="geometry"/>
                </mxCell>
                <mxCell id="26" value="Cache&lt;br&gt;Memory" style="text;html=1;strokeColor=none;fillColor=none;align=center;verticalAlign=middle;whiteSpace=wrap;rounded=0;" vertex="1" parent="1">
                    <mxGeometry x="530.01" y="400" width="60" height="30" as="geometry"/>
                </mxCell>
                <mxCell id="27" value="Database" style="text;html=1;strokeColor=none;fillColor=none;align=center;verticalAlign=middle;whiteSpace=wrap;rounded=0;" vertex="1" parent="1">
                    <mxGeometry x="530" y="559" width="60" height="30" as="geometry"/>
                </mxCell>
            </root>
        </mxGraphModel>
    </diagram>
</mxfile>